<svg xmlns="http://www.w3.org/2000/svg" xmlns:xlink="http://www.w3.org/1999/xlink" viewBox="0 0 342.9 231.09"><defs><style>.cls-1{fill:none;}.cls-2{fill:#e5e2df;}.cls-3{isolation:isolate;}.cls-4{opacity:0.8;}.cls-5{fill:#a59d9a;}.cls-6{fill:#124f66;}.cls-7{fill:#007bf4;}.cls-8{fill:#d3dbdd;}.cls-9{opacity:0.55;}.cls-17,.cls-27,.cls-9{mix-blend-mode:multiply;}.cls-10{fill:url(#Áåçûìÿííûé_ãðàäèåíò_1022);}.cls-11{fill:#26607b;}.cls-12,.cls-24,.cls-27{opacity:0.5;}.cls-13{clip-path:url(#clip-path);}.cls-14{clip-path:url(#clip-path-2);}.cls-15{clip-path:url(#clip-path-3);}.cls-16{clip-path:url(#clip-path-4);}.cls-17{opacity:0.4;}.cls-18{fill:#235974;}.cls-19{fill:#7c7c7c;}.cls-20{fill:#ffb345;}.cls-21,.cls-24{fill:#ffc255;}.cls-22{fill:#d88f39;}.cls-23{fill:#b01e1e;}.cls-24{mix-blend-mode:screen;}.cls-25,.cls-27{fill:url(#Áåçûìÿííûé_ãðàäèåíò_157);}.cls-26{fill:#303030;}.cls-28{fill:#d34242;}.cls-29{clip-path:url(#clip-path-5);}.cls-30{fill:#3c373d;}.cls-31{fill:#a3a3a3;}.cls-32{fill:#f2a741;}.cls-33{fill:url(#Áåçûìÿííûé_ãðàäèåíò_191);}.cls-34{fill:url(#Áåçûìÿííûé_ãðàäèåíò_186);}.cls-35{fill:#d4cebb;}.cls-36{fill:#383638;}.cls-37{fill:#f0ece0;}.cls-38{fill:url(#Áåçûìÿííûé_ãðàäèåíò_816);}.cls-39{fill:url(#Áåçûìÿííûé_ãðàäèåíò_1032);}.cls-40{fill:url(#linear-gradient);}.cls-41{fill:#ee9b1e;}.cls-42{fill:#ffb821;}.cls-43{fill:#ffc343;}.cls-44{fill:url(#Áåçûìÿííûé_ãðàäèåíò_89);}.cls-45{fill:#d1a15a;}.cls-46{fill:#eeba65;}.cls-47{fill:#ffd079;}.cls-48{fill:#ce9d4e;}.cls-49{fill:#282726;}.cls-50{fill:#4a4846;}.cls-51{fill:#7fad36;}.cls-52{fill:#92cc40;}.cls-53{fill:#cf9a46;}.cls-54{fill:#383534;}.cls-55{fill:#ffcb57;}</style><linearGradient id="Áåçûìÿííûé_ãðàäèåíò_1022" x1="314.57" y1="131.24" x2="296.63" y2="162.3" gradientUnits="userSpaceOnUse"><stop offset="0" stop-color="#235d75"/><stop offset="0.17" stop-color="#2a6179"/><stop offset="0.41" stop-color="#3d6e83"/><stop offset="0.7" stop-color="#5b8393"/><stop offset="1" stop-color="#839da8"/></linearGradient><clipPath id="clip-path" transform="translate(-53.77 -83.9)"><polygon class="cls-1" points="285.37 163.65 279.71 166.91 243.81 146.18 249.46 142.92 285.37 163.65"/></clipPath><clipPath id="clip-path-2" transform="translate(-53.77 -83.9)"><polygon class="cls-1" points="309.17 217.21 303.52 213.94 321.47 203.58 327.12 206.84 309.17 217.21"/></clipPath><clipPath id="clip-path-3" transform="translate(-53.77 -83.9)"><polygon class="cls-1" points="131.67 191.59 126.02 188.32 156.78 170.57 162.43 173.83 131.67 191.59"/></clipPath><clipPath id="clip-path-4" transform="translate(-53.77 -83.9)"><polygon class="cls-1" points="196.13 264.43 190.48 267.69 154.57 246.96 160.23 243.7 196.13 264.43"/></clipPath><linearGradient id="Áåçûìÿííûé_ãðàäèåíò_157" x1="33.39" y1="140.99" x2="36.88" y2="147.02" gradientUnits="userSpaceOnUse"><stop offset="0" stop-color="#bc2e2e"/><stop offset="1" stop-color="#c63434"/></linearGradient><clipPath id="clip-path-5" transform="translate(-53.77 -83.9)"><polygon class="cls-2" points="190.76 291.56 182.41 296.38 82.9 238.94 91.25 234.11 190.76 291.56"/></clipPath><radialGradient id="Áåçûìÿííûé_ãðàäèåíò_191" cx="247.56" cy="133" r="85.12" gradientUnits="userSpaceOnUse"><stop offset="0" stop-color="#ffc255"/><stop offset="0.45" stop-color="#ffb345"/><stop offset="1" stop-color="#d88f39"/></radialGradient><radialGradient id="Áåçûìÿííûé_ãðàäèåíò_186" cx="232.17" cy="125.63" r="76.43" gradientUnits="userSpaceOnUse"><stop offset="0" stop-color="#ffc255"/><stop offset="0.68" stop-color="#ffb94b"/><stop offset="1" stop-color="#ffb345"/></radialGradient><linearGradient id="Áåçûìÿííûé_ãðàäèåíò_816" x1="221.81" y1="243.21" x2="215.86" y2="253.52" xlink:href="#Áåçûìÿííûé_ãðàäèåíò_191"/><linearGradient id="Áåçûìÿííûé_ãðàäèåíò_1032" x1="233.83" y1="261.79" x2="237.71" y2="255.26" gradientUnits="userSpaceOnUse"><stop offset="0" stop-color="#f2a741"/><stop offset="0.24" stop-color="#f8b34a"/><stop offset="0.61" stop-color="#fdbe52"/><stop offset="1" stop-color="#ffc255"/></linearGradient><linearGradient id="linear-gradient" x1="195.8" y1="755.87" x2="195.8" y2="756.26" gradientTransform="matrix(-0.71, -0.71, -0.71, 0.71, 826.09, -111.16)" gradientUnits="userSpaceOnUse"><stop offset="0.25" stop-color="#3b3b3b"/><stop offset="0.43" stop-color="#636363"/><stop offset="0.58" stop-color="#545454"/><stop offset="0.73" stop-color="#3b3b3b"/></linearGradient><linearGradient id="Áåçûìÿííûé_ãðàäèåíò_89" x1="374.59" y1="283.33" x2="375.42" y2="284.53" gradientTransform="matrix(-1, 0, 0, 1, 525.71, 0)" gradientUnits="userSpaceOnUse"><stop offset="0" stop-color="#f5dfc1"/><stop offset="0.72" stop-color="#eed4b1"/><stop offset="1" stop-color="#eacfa9"/></linearGradient></defs><title>builder-schematics</title><g class="cls-3"><g id="_0" data-name="0"><g id="_1" data-name="1"><g class="cls-4"><polygon class="cls-5" points="328.6 119.91 163.56 215.19 19.22 131.86 184.26 36.57 328.6 119.91"/><polygon class="cls-5" points="139.57 214.19 130.74 219.29 4.23 146.24 13.05 141.14 139.57 214.19"/><polygon class="cls-5" points="83.92 199.64 76.59 203.87 21.05 171.81 28.38 167.57 83.92 199.64"/><polygon class="cls-5" points="342.9 123.95 157.33 231.09 148.35 225.91 333.92 118.76 342.9 123.95"/><path class="cls-5" d="M154,286.4l-2.35-2.66a1.31,1.31,0,0,0-.3-.21l-.1-.06-.13-.07c-4.1-2.36,2.42,1.42-47.45-27.48l-1.16.3-1.18.7-.51.68,46.45,26.91s.53.29.53.29l5.42,1.81,1.12.37c.05,0,.16,0,.13,0Z" transform="translate(-53.77 -83.9)"/></g><g id="_13" data-name="13"><polygon class="cls-6" points="14.44 125 14.46 127.27 161.33 212.07 162.62 208.06 14.44 125"/><path class="cls-7" d="M384,171.86,237.08,86.5c6.47,3.76,4.19,22.48-17.64,35.08L68.2,208.9l146.89,85.37L366.33,207C388.16,194.35,390.44,175.63,384,171.86Z" transform="translate(-53.77 -83.9)"/><path class="cls-8" d="M207.9,288.37a.21.21,0,0,1-.18-.11.19.19,0,0,1,.08-.27l153.56-88.67c.05,0,5.57-3.32,7.91-7.06a3,3,0,0,1,.37-.32c6-4.86,7.65-9.47,7.94-12.49.34-3.7-1-7.38-4.06-10.95a.22.22,0,0,1,0-.29.21.21,0,0,1,.29,0c3.12,3.65,4.51,7.44,4.15,11.25-.29,3.09-1.93,7.82-8.09,12.77l-.28.23c-2.39,3.81-7.81,7-8,7.19L208,288.34A.19.19,0,0,1,207.9,288.37Z" transform="translate(-53.77 -83.9)"/><path class="cls-8" d="M215.1,292.64l-.11,0L71.25,209.08a.22.22,0,0,1-.1-.18.19.19,0,0,1,.1-.17l148.88-86c15.85-9.15,21.49-21.37,21.5-29.06a14.14,14.14,0,0,0-.25-2.73.21.21,0,0,1,.08-.21.2.2,0,0,1,.22,0L380,170c.48.13,5.79,1.66,5.79,9.11,0,6.95-5.29,18.11-20.13,26.68L215.2,292.62A.18.18,0,0,1,215.1,292.64ZM71.76,208.9,215.1,292.21,365.44,205.4c14.69-8.47,19.91-19.48,19.92-26.32,0-7.44-5.44-8.7-5.5-8.72l-.06,0-137.94-79a15.35,15.35,0,0,1,.18,2.39c0,7.79-5.71,20.17-21.71,29.4Z" transform="translate(-53.77 -83.9)"/><g class="cls-9"><path class="cls-10" d="M222.63,119.58,370,204.65c18.41-12.47,20.08-29.25,14-32.79L237.08,86.5C243.22,90.06,241.45,107.08,222.63,119.58Z" transform="translate(-53.77 -83.9)"/></g><path class="cls-7" d="M234.43,101.75a.56.56,0,0,0-.54,0,1.56,1.56,0,0,0-.53.61,16.58,16.58,0,0,1-6,6.66,7.81,7.81,0,0,1-3.79,1.15,4.78,4.78,0,0,1-2.47-.58L368,195a4.78,4.78,0,0,0,2.47.58,7.92,7.92,0,0,0,3.79-1.15,16.55,16.55,0,0,0,6-6.67,1.52,1.52,0,0,1,.53-.6.53.53,0,0,1,.54,0Z" transform="translate(-53.77 -83.9)"/><path class="cls-7" d="M238.1,84.67c-2-1.18-4.8-1.07-8.08.82a20.09,20.09,0,0,0-1.69,1.1c-9.76,7.11-14,21.56-8.3,24.86l146.89,85.36c-5.68-3.3-.79-16.64,8.3-24.48a13.9,13.9,0,0,1,2-1.23c3.29-1.9,5.69-2.24,7.72-1.06Z" transform="translate(-53.77 -83.9)"/><path class="cls-11" d="M376.91,170.86a17.87,17.87,0,0,0-1.69,1.1c-11.1,8.08-15,25.63-5.41,25.53a9.27,9.27,0,0,0,4.47-1.36,19.54,19.54,0,0,0,7.07-7.85c.5-.92,0-1.44-.57-1.12a1.52,1.52,0,0,0-.53.6,16.55,16.55,0,0,1-6,6.67,7.92,7.92,0,0,1-3.79,1.15c-8.33.07-4.59-15.09,5-22a17.11,17.11,0,0,1,1.46-.95c13.34-7.7,17.27,18.3-10.55,34.36L215.09,294.27V296l151.24-87.32C396.36,191.32,392,162.14,376.91,170.86Z" transform="translate(-53.77 -83.9)"/><path class="cls-8" d="M250.56,272.17a.17.17,0,0,1-.1,0l-7.31-4.21a.21.21,0,0,1-.08-.28.21.21,0,0,1,.28-.08l7.31,4.22a.2.2,0,0,1,.07.28A.19.19,0,0,1,250.56,272.17Z" transform="translate(-53.77 -83.9)"/><path class="cls-8" d="M286.91,251.19a.23.23,0,0,1-.11,0l-7.3-4.22a.21.21,0,0,1-.08-.28.2.2,0,0,1,.28-.07L287,250.8a.2.2,0,0,1,.07.28A.2.2,0,0,1,286.91,251.19Z" transform="translate(-53.77 -83.9)"/><path class="cls-8" d="M301.66,242.67a.19.19,0,0,1-.1,0l-7.31-4.22a.21.21,0,0,1-.07-.28.2.2,0,0,1,.28-.07l7.3,4.22a.19.19,0,0,1,.08.27A.21.21,0,0,1,301.66,242.67Z" transform="translate(-53.77 -83.9)"/><path class="cls-8" d="M345.4,217.41l-.1,0L338,213.17a.21.21,0,0,1,.21-.36l7.3,4.22a.21.21,0,0,1,.08.28A.2.2,0,0,1,345.4,217.41Z" transform="translate(-53.77 -83.9)"/><path class="cls-8" d="M363.81,206.79a.19.19,0,0,1-.1,0l-7.31-4.22a.2.2,0,0,1-.07-.28.2.2,0,0,1,.28-.07l7.3,4.21a.21.21,0,0,1,.08.28A.21.21,0,0,1,363.81,206.79Z" transform="translate(-53.77 -83.9)"/><path class="cls-8" d="M246.86,269.94a.21.21,0,0,1-.1-.38l51-29.45a.21.21,0,0,1,.28.08.2.2,0,0,1-.08.28l-51,29.44A.23.23,0,0,1,246.86,269.94Z" transform="translate(-53.77 -83.9)"/><path class="cls-8" d="M341.69,215.19a.22.22,0,0,1-.18-.1.21.21,0,0,1,.07-.28l18.31-10.57a.21.21,0,0,1,.2.36l-18.3,10.56A.19.19,0,0,1,341.69,215.19Z" transform="translate(-53.77 -83.9)"/><path class="cls-8" d="M277.21,229.33a.18.18,0,0,1-.1,0l-41.82-24.15a.21.21,0,0,1-.1-.18.19.19,0,0,1,.1-.17l1.53-.89a.23.23,0,0,1,.2,0l41.82,24.15a.2.2,0,0,1,.11.18.18.18,0,0,1-.11.17l-1.53.89A.16.16,0,0,1,277.21,229.33ZM235.8,205l41.41,23.91,1.12-.64-41.41-23.91Z" transform="translate(-53.77 -83.9)"/><path class="cls-8" d="M149.55,237.74a.19.19,0,0,1-.1,0l-1.53-.88a.21.21,0,0,1-.1-.18.19.19,0,0,1,.1-.17l43.45-25.09a.2.2,0,0,1,.21,0l1.53.88a.21.21,0,0,1,0,.36l-43.46,25.08A.17.17,0,0,1,149.55,237.74Zm-1.12-1.09,1.12.65,43-24.85-1.13-.65Z" transform="translate(-53.77 -83.9)"/><path class="cls-8" d="M172,202.23l-.1,0-1.53-.89a.19.19,0,0,1-.1-.17.21.21,0,0,1,.1-.18l13.7-7.91a.2.2,0,0,1,.21,0l1.53.88a.21.21,0,0,1,0,.36l-13.71,7.91Zm-1.12-1.08,1.12.64,13.3-7.67-1.13-.65Z" transform="translate(-53.77 -83.9)"/><path class="cls-8" d="M198.32,187a.23.23,0,0,1-.11,0l-1.53-.88a.21.21,0,0,1,0-.36L225.79,169a.2.2,0,0,1,.21,0l1.53.88a.21.21,0,0,1,0,.36L198.42,187A.19.19,0,0,1,198.32,187Zm-1.13-1.09,1.13.65L227,170l-1.13-.65Z" transform="translate(-53.77 -83.9)"/><path class="cls-8" d="M236.94,206.06a.17.17,0,0,1-.1,0l-1.53-.88a.2.2,0,0,1-.11-.18.18.18,0,0,1,.11-.17l6.55-3.79a.23.23,0,0,1,.2,0l1.53.89a.18.18,0,0,1,.11.17.2.2,0,0,1-.11.18L237,206A.19.19,0,0,1,236.94,206.06ZM235.82,205l1.12.65,6.14-3.55-1.12-.64Z" transform="translate(-53.77 -83.9)"/><path class="cls-8" d="M256.14,195l-.1,0-1.53-.89a.19.19,0,0,1-.1-.17.21.21,0,0,1,.1-.18L290.38,173a.23.23,0,0,1,.2,0l1.53.89a.19.19,0,0,1,.1.17.21.21,0,0,1-.1.18L256.25,195ZM255,193.89l1.12.64,35.46-20.47-1.12-.64Z" transform="translate(-53.77 -83.9)"/><path class="cls-8" d="M206.1,270.39a.19.19,0,0,1-.1,0L100.73,209.59a.21.21,0,0,1,0-.36L227,136.36a.23.23,0,0,1,.2,0l105.27,60.78a.21.21,0,0,1,.1.18.19.19,0,0,1-.1.17l-63,36.36a.18.18,0,0,1-.2,0l-1.63-.94a.2.2,0,0,1-.11-.18.18.18,0,0,1,.11-.17l61-35.24L227.05,138.66,104.51,209.41,206.1,268.07,255,239.86a.18.18,0,0,1,.2,0l1.63.94a.21.21,0,0,1,0,.36l-50.59,29.2A.17.17,0,0,1,206.1,270.39Zm-104.86-61L206.1,270l50.18-29-1.22-.71L206.2,268.48a.18.18,0,0,1-.2,0L104,209.59a.2.2,0,0,1,0-.36l122.94-71a.2.2,0,0,1,.21,0l102,58.89a.21.21,0,0,1,.1.18.19.19,0,0,1-.1.17l-61,35.24,1.22.71,62.57-36.12L227.05,136.77Z" transform="translate(-53.77 -83.9)"/><path class="cls-8" d="M150.59,189.93l-.1,0-7.82-4.52a.21.21,0,0,1-.1-.18.19.19,0,0,1,.1-.17l1.53-.89a.26.26,0,0,1,.21,0l7.81,4.52a.2.2,0,0,1,.11.18.18.18,0,0,1-.11.17l-1.53.89Zm-7.41-4.72,7.41,4.28,1.12-.64-7.41-4.28Z" transform="translate(-53.77 -83.9)"/><path class="cls-8" d="M205.49,221.63a.17.17,0,0,1-.1,0l-42.25-24.39a.21.21,0,0,1-.1-.18.19.19,0,0,1,.1-.17l1.53-.89a.26.26,0,0,1,.21,0l42.24,24.39a.21.21,0,0,1,0,.36l-1.53.88A.19.19,0,0,1,205.49,221.63ZM163.65,197l41.84,24.16,1.12-.65-41.84-24.16Z" transform="translate(-53.77 -83.9)"/><path class="cls-8" d="M248,246.19a.23.23,0,0,1-.11,0L218,228.91a.21.21,0,0,1,0-.36l1.53-.88a.18.18,0,0,1,.2,0l29.89,17.25a.21.21,0,0,1,0,.36l-1.53.88A.19.19,0,0,1,248,246.19Zm-29.48-17.46,29.48,17,1.12-.65-29.48-17Z" transform="translate(-53.77 -83.9)"/><path class="cls-8" d="M261.7,191.77a.17.17,0,0,1-.1,0l-10.7-6.18a.18.18,0,0,1-.11-.17.2.2,0,0,1,.11-.18l1.53-.88a.18.18,0,0,1,.2,0l10.7,6.17a.21.21,0,0,1,0,.36l-1.53.88A.19.19,0,0,1,261.7,191.77Zm-10.29-6.38,10.29,5.94,1.12-.65-10.29-5.94Z" transform="translate(-53.77 -83.9)"/><path class="cls-8" d="M238.35,178.29a.17.17,0,0,1-.1,0l-41.63-24a.19.19,0,0,1-.1-.17.22.22,0,0,1,.1-.18l1.53-.88a.18.18,0,0,1,.2,0L240,177a.22.22,0,0,1,.1.18.19.19,0,0,1-.1.17l-1.53.89A.19.19,0,0,1,238.35,178.29Zm-41.22-24.24,41.22,23.8,1.12-.65-41.22-23.8Z" transform="translate(-53.77 -83.9)"/><path class="cls-8" d="M269.31,233.86a.17.17,0,0,1-.1,0L255,225.62a.2.2,0,0,1-.07-.28.2.2,0,0,1,.28-.07l14.22,8.21a.21.21,0,0,1,.08.28A.22.22,0,0,1,269.31,233.86Z" transform="translate(-53.77 -83.9)"/><g class="cls-12"><path class="cls-8" d="M255.27,240.1c-3.44-2-5.31-4.58-5.31-7.36s1.87-5.4,5.27-7.36a.07.07,0,0,1,.11,0,.08.08,0,0,1,0,.11c-3.34,1.93-5.19,4.49-5.19,7.22S252,238,255.31,240a.08.08,0,0,1,0,.11A.07.07,0,0,1,255.27,240.1Z" transform="translate(-53.77 -83.9)"/></g><path class="cls-8" d="M192.66,229a.22.22,0,0,1-.18-.1.21.21,0,0,1,.08-.28l14.22-8.21a.2.2,0,1,1,.2.35L192.76,229A.19.19,0,0,1,192.66,229Z" transform="translate(-53.77 -83.9)"/><g class="cls-12"><path class="cls-8" d="M205.29,231.82a25.82,25.82,0,0,1-12.66-3,.07.07,0,0,1,0-.11.08.08,0,0,1,.11,0c6.93,4,18.22,4,25.16,0a.08.08,0,0,1,.08.14A25.85,25.85,0,0,1,205.29,231.82Z" transform="translate(-53.77 -83.9)"/></g><path class="cls-8" d="M268.88,202.33l-.1,0-14.23-8.22a.21.21,0,0,1-.07-.28.21.21,0,0,1,.28-.07L269,202a.21.21,0,0,1,.08.28A.2.2,0,0,1,268.88,202.33Z" transform="translate(-53.77 -83.9)"/><g class="cls-12"><path class="cls-8" d="M256.25,205.12a25.82,25.82,0,0,1-12.66-3,.08.08,0,1,1,.08-.14c6.93,4,18.22,4,25.16,0a.08.08,0,0,1,.08.14A25.85,25.85,0,0,1,256.25,205.12Z" transform="translate(-53.77 -83.9)"/></g><path class="cls-8" d="M238.5,178.21a.21.21,0,0,1-.18-.11.19.19,0,0,1,.08-.27l14.22-8.22a.21.21,0,0,1,.28.08.2.2,0,0,1-.08.28l-14.22,8.21A.19.19,0,0,1,238.5,178.21Z" transform="translate(-53.77 -83.9)"/><g class="cls-12"><path class="cls-8" d="M252.54,184.45a.07.07,0,0,1-.07,0,.07.07,0,0,1,0-.11c3.34-1.93,5.18-4.5,5.18-7.22s-1.84-5.28-5.18-7.21a.09.09,0,0,1,0-.12.09.09,0,0,1,.11,0c3.39,2,5.26,4.58,5.26,7.36s-1.87,5.4-5.26,7.36Z" transform="translate(-53.77 -83.9)"/></g><path class="cls-8" d="M198.13,186.9a.17.17,0,0,1-.1,0l-14.23-8.21a.2.2,0,0,1-.07-.28.21.21,0,0,1,.28-.08l14.22,8.22a.19.19,0,0,1,.07.27A.18.18,0,0,1,198.13,186.9Z" transform="translate(-53.77 -83.9)"/><g class="cls-12"><path class="cls-8" d="M184.09,193.14c-3.44-2-5.31-4.58-5.31-7.37s1.87-5.39,5.27-7.36a.09.09,0,0,1,.11,0,.1.1,0,0,1,0,.12c-3.34,1.93-5.19,4.49-5.19,7.21s1.85,5.29,5.19,7.22a.08.08,0,0,1,0,.11A.07.07,0,0,1,184.09,193.14Z" transform="translate(-53.77 -83.9)"/></g><path class="cls-8" d="M137.78,197.32a.22.22,0,0,1-.18-.1.21.21,0,0,1,.07-.28l14.23-8.21a.2.2,0,0,1,.28.07.21.21,0,0,1-.08.28l-14.22,8.21A.19.19,0,0,1,137.78,197.32Z" transform="translate(-53.77 -83.9)"/><g class="cls-12"><path class="cls-8" d="M150.41,200.1a26,26,0,0,1-12.67-3,.08.08,0,0,1,0-.11.09.09,0,0,1,.12,0c6.93,4,18.22,4,25.16,0,0,0,.08,0,.11,0a.08.08,0,0,1,0,.11A26,26,0,0,1,150.41,200.1Z" transform="translate(-53.77 -83.9)"/></g><g class="cls-13"><g class="cls-12"><path class="cls-8" d="M246,148.46a.09.09,0,0,1-.09-.08v-8.44a.09.09,0,0,1,.09-.09.09.09,0,0,1,.08.09v8.44A.09.09,0,0,1,246,148.46Z" transform="translate(-53.77 -83.9)"/></g><g class="cls-12"><path class="cls-8" d="M247.93,149.6a.09.09,0,0,1-.09-.09v-8.44a.09.09,0,0,1,.09-.08.09.09,0,0,1,.08.08v8.44A.09.09,0,0,1,247.93,149.6Z" transform="translate(-53.77 -83.9)"/></g><g class="cls-12"><path class="cls-8" d="M249.9,150.73a.07.07,0,0,1-.08-.08v-8.44a.08.08,0,0,1,.08-.08.09.09,0,0,1,.08.08v8.44A.08.08,0,0,1,249.9,150.73Z" transform="translate(-53.77 -83.9)"/></g><g class="cls-12"><path class="cls-8" d="M251.87,151.87a.08.08,0,0,1-.08-.08v-8.44a.09.09,0,0,1,.08-.08.08.08,0,0,1,.08.08v8.44A.07.07,0,0,1,251.87,151.87Z" transform="translate(-53.77 -83.9)"/></g><g class="cls-12"><path class="cls-8" d="M253.84,153a.09.09,0,0,1-.08-.08v-8.44a.08.08,0,0,1,.08-.08.07.07,0,0,1,.08.08v8.44A.08.08,0,0,1,253.84,153Z" transform="translate(-53.77 -83.9)"/></g><g class="cls-12"><path class="cls-8" d="M255.81,154.15a.09.09,0,0,1-.08-.08v-8.44a.09.09,0,0,1,.08-.09.08.08,0,0,1,.08.09v8.44A.08.08,0,0,1,255.81,154.15Z" transform="translate(-53.77 -83.9)"/></g><g class="cls-12"><path class="cls-8" d="M257.78,155.29a.09.09,0,0,1-.08-.09v-8.44a.09.09,0,0,1,.08-.08.09.09,0,0,1,.09.08v8.44A.09.09,0,0,1,257.78,155.29Z" transform="translate(-53.77 -83.9)"/></g><g class="cls-12"><path class="cls-8" d="M259.75,156.42a.08.08,0,0,1-.08-.08V147.9a.09.09,0,0,1,.08-.08.09.09,0,0,1,.09.08v8.44A.08.08,0,0,1,259.75,156.42Z" transform="translate(-53.77 -83.9)"/></g><g class="cls-12"><path class="cls-8" d="M261.73,157.56a.08.08,0,0,1-.09-.08V149a.09.09,0,0,1,.09-.08.09.09,0,0,1,.08.08v8.44A.08.08,0,0,1,261.73,157.56Z" transform="translate(-53.77 -83.9)"/></g><g class="cls-12"><path class="cls-8" d="M263.7,158.7a.08.08,0,0,1-.08-.08v-8.44a.07.07,0,0,1,.08-.08.08.08,0,0,1,.08.08v8.44A.09.09,0,0,1,263.7,158.7Z" transform="translate(-53.77 -83.9)"/></g><g class="cls-12"><path class="cls-8" d="M265.67,159.84a.08.08,0,0,1-.08-.08v-8.44a.07.07,0,0,1,.08-.08.08.08,0,0,1,.08.08v8.44A.09.09,0,0,1,265.67,159.84Z" transform="translate(-53.77 -83.9)"/></g><g class="cls-12"><path class="cls-8" d="M267.64,161a.08.08,0,0,1-.08-.08v-8.44a.08.08,0,0,1,.08-.09.09.09,0,0,1,.08.09v8.44A.09.09,0,0,1,267.64,161Z" transform="translate(-53.77 -83.9)"/></g><g class="cls-12"><path class="cls-8" d="M269.61,162.12a.09.09,0,0,1-.08-.09v-8.44a.09.09,0,0,1,.08-.08.08.08,0,0,1,.08.08V162A.08.08,0,0,1,269.61,162.12Z" transform="translate(-53.77 -83.9)"/></g><g class="cls-12"><path class="cls-8" d="M271.58,163.25a.08.08,0,0,1-.08-.08v-8.44a.09.09,0,0,1,.08-.08.09.09,0,0,1,.09.08v8.44A.08.08,0,0,1,271.58,163.25Z" transform="translate(-53.77 -83.9)"/></g><g class="cls-12"><path class="cls-8" d="M273.55,164.39a.09.09,0,0,1-.08-.08v-8.44a.08.08,0,0,1,.08-.08.08.08,0,0,1,.09.08v8.44A.09.09,0,0,1,273.55,164.39Z" transform="translate(-53.77 -83.9)"/></g><g class="cls-12"><path class="cls-8" d="M275.53,165.53a.09.09,0,0,1-.09-.08V157a.08.08,0,0,1,.09-.08.08.08,0,0,1,.08.08v8.44A.09.09,0,0,1,275.53,165.53Z" transform="translate(-53.77 -83.9)"/></g><g class="cls-12"><path class="cls-8" d="M277.5,166.67a.08.08,0,0,1-.08-.08v-8.44a.08.08,0,0,1,.08-.09.09.09,0,0,1,.08.09v8.44A.09.09,0,0,1,277.5,166.67Z" transform="translate(-53.77 -83.9)"/></g><g class="cls-12"><path class="cls-8" d="M279.47,167.81a.08.08,0,0,1-.08-.09v-8.44a.08.08,0,0,1,.08-.08.09.09,0,0,1,.08.08v8.44A.09.09,0,0,1,279.47,167.81Z" transform="translate(-53.77 -83.9)"/></g><g class="cls-12"><path class="cls-8" d="M281.44,168.94a.07.07,0,0,1-.08-.08v-8.44a.08.08,0,0,1,.08-.08.09.09,0,0,1,.08.08v8.44A.08.08,0,0,1,281.44,168.94Z" transform="translate(-53.77 -83.9)"/></g><g class="cls-12"><path class="cls-8" d="M283.41,170.08a.08.08,0,0,1-.08-.08v-8.44a.09.09,0,0,1,.08-.08.08.08,0,0,1,.08.08V170A.07.07,0,0,1,283.41,170.08Z" transform="translate(-53.77 -83.9)"/></g></g><g class="cls-14"><g class="cls-12"><path class="cls-8" d="M332.45,204.81H317.83a.09.09,0,0,1-.09-.09.09.09,0,0,1,.09-.08h14.62a.09.09,0,0,1,.08.08A.09.09,0,0,1,332.45,204.81Z" transform="translate(-53.77 -83.9)"/></g><g class="cls-12"><path class="cls-8" d="M330.47,205.94H315.86a.08.08,0,0,1-.09-.08.09.09,0,0,1,.09-.08h14.61a.09.09,0,0,1,.09.08A.08.08,0,0,1,330.47,205.94Z" transform="translate(-53.77 -83.9)"/></g><g class="cls-12"><path class="cls-8" d="M328.5,207.08H313.88a.08.08,0,0,1-.08-.08.09.09,0,0,1,.08-.08H328.5a.08.08,0,0,1,.08.08A.07.07,0,0,1,328.5,207.08Z" transform="translate(-53.77 -83.9)"/></g><g class="cls-12"><path class="cls-8" d="M326.53,208.22H311.91a.09.09,0,0,1-.08-.08.08.08,0,0,1,.08-.08h14.62a.07.07,0,0,1,.08.08A.08.08,0,0,1,326.53,208.22Z" transform="translate(-53.77 -83.9)"/></g><g class="cls-12"><path class="cls-8" d="M324.56,209.36H309.94a.09.09,0,0,1-.08-.08.08.08,0,0,1,.08-.08h14.62a.08.08,0,0,1,.08.08A.09.09,0,0,1,324.56,209.36Z" transform="translate(-53.77 -83.9)"/></g><g class="cls-12"><path class="cls-8" d="M322.59,210.5H308a.08.08,0,0,1-.08-.08.08.08,0,0,1,.08-.09h14.62a.09.09,0,0,1,.08.09A.09.09,0,0,1,322.59,210.5Z" transform="translate(-53.77 -83.9)"/></g><g class="cls-12"><path class="cls-8" d="M320.62,211.64H306a.08.08,0,0,1-.08-.09.08.08,0,0,1,.08-.08h14.62a.09.09,0,0,1,.08.08A.09.09,0,0,1,320.62,211.64Z" transform="translate(-53.77 -83.9)"/></g><g class="cls-12"><path class="cls-8" d="M318.65,212.77H304a.07.07,0,0,1-.08-.08.08.08,0,0,1,.08-.08h14.62a.09.09,0,0,1,.08.08A.08.08,0,0,1,318.65,212.77Z" transform="translate(-53.77 -83.9)"/></g><g class="cls-12"><path class="cls-8" d="M316.67,213.91H302.06a.09.09,0,0,1-.09-.08.08.08,0,0,1,.09-.08h14.61a.08.08,0,0,1,.09.08A.09.09,0,0,1,316.67,213.91Z" transform="translate(-53.77 -83.9)"/></g><g class="cls-12"><path class="cls-8" d="M314.7,215.05H300.08A.09.09,0,0,1,300,215a.08.08,0,0,1,.08-.08H314.7a.08.08,0,0,1,.09.08A.09.09,0,0,1,314.7,215.05Z" transform="translate(-53.77 -83.9)"/></g><g class="cls-12"><path class="cls-8" d="M312.73,216.19H298.11a.09.09,0,0,1-.08-.08.09.09,0,0,1,.08-.09h14.62a.08.08,0,0,1,.08.09A.08.08,0,0,1,312.73,216.19Z" transform="translate(-53.77 -83.9)"/></g></g><g class="cls-15"><g class="cls-12"><path class="cls-8" d="M171.92,169.2H157.3a.09.09,0,0,1-.08-.08.09.09,0,0,1,.08-.09h14.62a.08.08,0,0,1,.08.09A.08.08,0,0,1,171.92,169.2Z" transform="translate(-53.77 -83.9)"/></g><g class="cls-12"><path class="cls-8" d="M170,170.34H155.33a.09.09,0,0,1-.08-.09.09.09,0,0,1,.08-.08H170a.08.08,0,0,1,.08.08A.08.08,0,0,1,170,170.34Z" transform="translate(-53.77 -83.9)"/></g><g class="cls-12"><path class="cls-8" d="M168,171.47H153.36a.08.08,0,0,1-.08-.08.09.09,0,0,1,.08-.08H168a.09.09,0,0,1,.08.08A.08.08,0,0,1,168,171.47Z" transform="translate(-53.77 -83.9)"/></g><g class="cls-12"><path class="cls-8" d="M166,172.61H151.39a.09.09,0,0,1-.08-.08.08.08,0,0,1,.08-.08H166a.08.08,0,0,1,.08.08A.09.09,0,0,1,166,172.61Z" transform="translate(-53.77 -83.9)"/></g><g class="cls-12"><path class="cls-8" d="M164,173.75H149.42a.08.08,0,0,1-.08-.08.07.07,0,0,1,.08-.08H164a.08.08,0,0,1,.08.08A.09.09,0,0,1,164,173.75Z" transform="translate(-53.77 -83.9)"/></g><g class="cls-12"><path class="cls-8" d="M162.07,174.89H147.45a.08.08,0,0,1-.08-.08.08.08,0,0,1,.08-.09h14.62a.09.09,0,0,1,.08.09A.09.09,0,0,1,162.07,174.89Z" transform="translate(-53.77 -83.9)"/></g><g class="cls-12"><path class="cls-8" d="M160.09,176H145.48a.08.08,0,0,1-.08-.09.08.08,0,0,1,.08-.08h14.61a.09.09,0,0,1,.09.08A.09.09,0,0,1,160.09,176Z" transform="translate(-53.77 -83.9)"/></g><g class="cls-12"><path class="cls-8" d="M158.12,177.16H143.5a.08.08,0,0,1-.08-.08.09.09,0,0,1,.08-.08h14.62a.09.09,0,0,1,.09.08A.08.08,0,0,1,158.12,177.16Z" transform="translate(-53.77 -83.9)"/></g><g class="cls-12"><path class="cls-8" d="M156.15,178.3H141.53a.08.08,0,0,1-.08-.08.09.09,0,0,1,.08-.08h14.62a.08.08,0,0,1,.08.08A.07.07,0,0,1,156.15,178.3Z" transform="translate(-53.77 -83.9)"/></g><g class="cls-12"><path class="cls-8" d="M154.18,179.44H139.56a.09.09,0,0,1-.08-.08.08.08,0,0,1,.08-.08h14.62a.07.07,0,0,1,.08.08A.08.08,0,0,1,154.18,179.44Z" transform="translate(-53.77 -83.9)"/></g><g class="cls-12"><path class="cls-8" d="M152.21,180.58H137.59a.09.09,0,0,1-.08-.08.09.09,0,0,1,.08-.09h14.62a.09.09,0,0,1,.08.09A.09.09,0,0,1,152.21,180.58Z" transform="translate(-53.77 -83.9)"/></g><g class="cls-12"><path class="cls-8" d="M150.24,181.72H135.62a.09.09,0,0,1-.08-.09.09.09,0,0,1,.08-.08h14.62a.09.09,0,0,1,.08.08A.09.09,0,0,1,150.24,181.72Z" transform="translate(-53.77 -83.9)"/></g><g class="cls-12"><path class="cls-8" d="M148.27,182.85H133.65a.07.07,0,0,1-.08-.08.08.08,0,0,1,.08-.08h14.62a.09.09,0,0,1,.08.08A.08.08,0,0,1,148.27,182.85Z" transform="translate(-53.77 -83.9)"/></g><g class="cls-12"><path class="cls-8" d="M146.3,184H131.68a.07.07,0,0,1-.08-.08.08.08,0,0,1,.08-.08H146.3a.09.09,0,0,1,.08.08A.08.08,0,0,1,146.3,184Z" transform="translate(-53.77 -83.9)"/></g><g class="cls-12"><path class="cls-8" d="M144.32,185.13H129.71a.09.09,0,0,1-.09-.08.08.08,0,0,1,.09-.08h14.61a.08.08,0,0,1,.09.08A.09.09,0,0,1,144.32,185.13Z" transform="translate(-53.77 -83.9)"/></g><g class="cls-12"><path class="cls-8" d="M142.35,186.27H127.73a.09.09,0,0,1-.08-.08.08.08,0,0,1,.08-.08h14.62a.07.07,0,0,1,.08.08A.08.08,0,0,1,142.35,186.27Z" transform="translate(-53.77 -83.9)"/></g><g class="cls-12"><path class="cls-8" d="M140.38,187.41H125.76a.09.09,0,0,1-.08-.08.09.09,0,0,1,.08-.09h14.62a.08.08,0,0,1,.08.09A.08.08,0,0,1,140.38,187.41Z" transform="translate(-53.77 -83.9)"/></g><g class="cls-12"><path class="cls-8" d="M138.41,188.55H123.79a.09.09,0,0,1-.08-.09.09.09,0,0,1,.08-.08h14.62a.08.08,0,0,1,.08.08A.08.08,0,0,1,138.41,188.55Z" transform="translate(-53.77 -83.9)"/></g><g class="cls-12"><path class="cls-8" d="M136.44,189.68H121.82a.08.08,0,0,1-.08-.08.09.09,0,0,1,.08-.08h14.62a.09.09,0,0,1,.08.08A.08.08,0,0,1,136.44,189.68Z" transform="translate(-53.77 -83.9)"/></g><g class="cls-12"><path class="cls-8" d="M134.47,190.82H119.85a.07.07,0,0,1-.08-.08.08.08,0,0,1,.08-.08h14.62a.09.09,0,0,1,.08.08A.08.08,0,0,1,134.47,190.82Z" transform="translate(-53.77 -83.9)"/></g></g><g class="cls-16"><g class="cls-12"><path class="cls-8" d="M156.9,249.35a.09.09,0,0,1-.08-.09v-8.44a.09.09,0,0,1,.08-.08.08.08,0,0,1,.08.08v8.44A.08.08,0,0,1,156.9,249.35Z" transform="translate(-53.77 -83.9)"/></g><g class="cls-12"><path class="cls-8" d="M158.87,250.48a.08.08,0,0,1-.08-.08V242a.09.09,0,0,1,.08-.08.08.08,0,0,1,.08.08v8.44A.07.07,0,0,1,158.87,250.48Z" transform="translate(-53.77 -83.9)"/></g><g class="cls-12"><path class="cls-8" d="M160.84,251.62a.09.09,0,0,1-.08-.08V243.1a.08.08,0,0,1,.08-.08.07.07,0,0,1,.08.08v8.44A.08.08,0,0,1,160.84,251.62Z" transform="translate(-53.77 -83.9)"/></g><g class="cls-12"><path class="cls-8" d="M162.81,252.76a.09.09,0,0,1-.08-.08v-8.44a.08.08,0,0,1,.08-.08.08.08,0,0,1,.09.08v8.44A.09.09,0,0,1,162.81,252.76Z" transform="translate(-53.77 -83.9)"/></g><g class="cls-12"><path class="cls-8" d="M164.79,253.9a.09.09,0,0,1-.09-.08v-8.44a.09.09,0,0,1,.09-.09.09.09,0,0,1,.08.09v8.44A.09.09,0,0,1,164.79,253.9Z" transform="translate(-53.77 -83.9)"/></g><g class="cls-12"><path class="cls-8" d="M166.76,255a.08.08,0,0,1-.08-.09v-8.44a.08.08,0,0,1,.08-.08.09.09,0,0,1,.08.08V255A.09.09,0,0,1,166.76,255Z" transform="translate(-53.77 -83.9)"/></g><g class="cls-12"><path class="cls-8" d="M168.73,256.17a.07.07,0,0,1-.08-.08v-8.44a.08.08,0,0,1,.08-.08.09.09,0,0,1,.08.08v8.44A.08.08,0,0,1,168.73,256.17Z" transform="translate(-53.77 -83.9)"/></g><g class="cls-12"><path class="cls-8" d="M170.7,257.31a.07.07,0,0,1-.08-.08v-8.44a.08.08,0,0,1,.08-.08.09.09,0,0,1,.08.08v8.44A.08.08,0,0,1,170.7,257.31Z" transform="translate(-53.77 -83.9)"/></g><g class="cls-12"><path class="cls-8" d="M172.67,258.45a.09.09,0,0,1-.08-.08v-8.44a.08.08,0,0,1,.08-.08.07.07,0,0,1,.08.08v8.44A.08.08,0,0,1,172.67,258.45Z" transform="translate(-53.77 -83.9)"/></g><g class="cls-12"><path class="cls-8" d="M174.64,259.59a.09.09,0,0,1-.08-.08v-8.44a.09.09,0,0,1,.08-.09.08.08,0,0,1,.08.09v8.44A.08.08,0,0,1,174.64,259.59Z" transform="translate(-53.77 -83.9)"/></g><g class="cls-12"><path class="cls-8" d="M176.61,260.73a.09.09,0,0,1-.08-.09v-8.43a.09.09,0,0,1,.08-.09.09.09,0,0,1,.09.09v8.43A.09.09,0,0,1,176.61,260.73Z" transform="translate(-53.77 -83.9)"/></g><g class="cls-12"><path class="cls-8" d="M178.59,261.87a.09.09,0,0,1-.09-.09v-8.44a.09.09,0,0,1,.09-.08.09.09,0,0,1,.08.08v8.44A.09.09,0,0,1,178.59,261.87Z" transform="translate(-53.77 -83.9)"/></g><g class="cls-12"><path class="cls-8" d="M180.56,263a.08.08,0,0,1-.09-.08v-8.44a.09.09,0,0,1,.09-.08.09.09,0,0,1,.08.08v8.44A.08.08,0,0,1,180.56,263Z" transform="translate(-53.77 -83.9)"/></g><g class="cls-12"><path class="cls-8" d="M182.53,264.14a.08.08,0,0,1-.08-.08v-8.44a.07.07,0,0,1,.08-.08.08.08,0,0,1,.08.08v8.44A.09.09,0,0,1,182.53,264.14Z" transform="translate(-53.77 -83.9)"/></g><g class="cls-12"><path class="cls-8" d="M184.5,265.28a.08.08,0,0,1-.08-.08v-8.44a.08.08,0,0,1,.08-.09.09.09,0,0,1,.08.09v8.44A.09.09,0,0,1,184.5,265.28Z" transform="translate(-53.77 -83.9)"/></g><g class="cls-12"><path class="cls-8" d="M186.47,266.42a.09.09,0,0,1-.08-.09V257.9a.09.09,0,0,1,.08-.09.08.08,0,0,1,.08.09v8.43A.08.08,0,0,1,186.47,266.42Z" transform="translate(-53.77 -83.9)"/></g><g class="cls-12"><path class="cls-8" d="M188.44,267.56a.09.09,0,0,1-.08-.09V259a.09.09,0,0,1,.08-.08.08.08,0,0,1,.08.08v8.44A.08.08,0,0,1,188.44,267.56Z" transform="translate(-53.77 -83.9)"/></g><g class="cls-12"><path class="cls-8" d="M190.41,268.69a.08.08,0,0,1-.08-.08v-8.44a.09.09,0,0,1,.08-.08.08.08,0,0,1,.08.08v8.44A.07.07,0,0,1,190.41,268.69Z" transform="translate(-53.77 -83.9)"/></g><g class="cls-12"><path class="cls-8" d="M192.38,269.83a.09.09,0,0,1-.08-.08v-8.44a.08.08,0,0,1,.08-.08.08.08,0,0,1,.09.08v8.44A.09.09,0,0,1,192.38,269.83Z" transform="translate(-53.77 -83.9)"/></g><g class="cls-12"><path class="cls-8" d="M194.36,271a.09.09,0,0,1-.09-.08v-8.44a.08.08,0,0,1,.09-.08.08.08,0,0,1,.08.08v8.44A.09.09,0,0,1,194.36,271Z" transform="translate(-53.77 -83.9)"/></g></g><path class="cls-8" d="M279.71,167.11l-.1,0-35.9-20.73a.2.2,0,0,1,0-.36l5.65-3.26a.18.18,0,0,1,.2,0l35.91,20.73a.21.21,0,0,1,.1.18.19.19,0,0,1-.1.17l-5.66,3.27Zm-35.49-20.93,35.49,20.49,5.25-3-35.5-20.5Z" transform="translate(-53.77 -83.9)"/><path class="cls-8" d="M309.17,217.41a.17.17,0,0,1-.1,0l-5.65-3.26a.2.2,0,0,1-.11-.18.18.18,0,0,1,.11-.17l17.95-10.37a.18.18,0,0,1,.2,0l5.65,3.26a.2.2,0,0,1,0,.36l-18,10.36A.17.17,0,0,1,309.17,217.41Zm-5.24-3.47,5.24,3,17.54-10.13-5.24-3Z" transform="translate(-53.77 -83.9)"/><path class="cls-8" d="M131.67,191.79a.19.19,0,0,1-.1,0l-5.65-3.26a.2.2,0,0,1-.11-.18.18.18,0,0,1,.11-.17l30.75-17.76a.2.2,0,0,1,.21,0l5.65,3.26a.21.21,0,0,1,0,.36l-30.76,17.75A.17.17,0,0,1,131.67,191.79Zm-5.24-3.47,5.24,3L162,173.83l-5.24-3Z" transform="translate(-53.77 -83.9)"/><path class="cls-8" d="M190.48,267.9a.17.17,0,0,1-.1,0l-35.91-20.73a.21.21,0,0,1-.1-.18.19.19,0,0,1,.1-.17l5.65-3.27a.26.26,0,0,1,.21,0l35.9,20.73a.2.2,0,0,1,0,.36l-5.65,3.26A.19.19,0,0,1,190.48,267.9ZM155,247l35.5,20.5,5.24-3-35.49-20.5Z" transform="translate(-53.77 -83.9)"/></g><g class="cls-17"><path class="cls-18" d="M262.78,156.2l-18.91-10.92c-16.33-9.43-41.9-8.9-58.23.53s-17.24,24.19-.91,33.62l18.9,10.91c16.34,9.43,42.82,9.43,59.15,0S279.11,165.63,262.78,156.2Z" transform="translate(-53.77 -83.9)"/><path class="cls-18" d="M234.82,259a1.76,1.76,0,0,0-.85-1.17L194.68,235.1a1.27,1.27,0,0,1-.45-1.75L214,200.68a5.22,5.22,0,0,0,.38-4.62,5.47,5.47,0,0,0-2.4-2.67L204.43,189a6.53,6.53,0,0,0-6.54,0l-6.54,3.77a1.78,1.78,0,0,0-.62.63l-.61-.35-70.23,40.55a.53.53,0,0,0,0,.92l10.21,5.89a1.78,1.78,0,0,0,1.76,0l69.36-40a.52.52,0,0,0,0-.9l-7.12-4.12,5.58-3.22a2.94,2.94,0,0,1,2.95,0l7.75,4.47a1.63,1.63,0,0,1,.75,1,1.61,1.61,0,0,1-.18,1.23l-19.8,32.67a4.85,4.85,0,0,0-.35,4.31,5.1,5.1,0,0,0,2.24,2.5l11.44,6.6-2.81,1.62a.29.29,0,0,0,0,.49l32.19,18.59a1.29,1.29,0,0,0,1.29,0l5.1-3a.33.33,0,0,0,0-.57Z" transform="translate(-53.77 -83.9)"/></g><polygon class="cls-19" points="138.91 208.53 130.54 213.36 130.54 218.58 130.99 218.84 139.37 214 139.37 208.79 138.91 208.53"/><path class="cls-20" d="M81.92,217.89l-.07,22.65a1.08,1.08,0,0,1-.44,1l10.32-6a1.06,1.06,0,0,0,.45-1l.06-22.65Z" transform="translate(-53.77 -83.9)"/><path class="cls-21" d="M91.5,208.67a10.16,10.16,0,0,0-1.64-2.58c-.1-.12-.22-.24-.33-.36a104.38,104.38,0,0,0-7.8-7.31,22.52,22.52,0,0,0-3-2.25l-.51-.31c-3.91-2.25-7.45-2.46-10-1l-10.33,6,24.05,17,10.32-6A7.92,7.92,0,0,0,91.5,208.67Z" transform="translate(-53.77 -83.9)"/><path class="cls-22" d="M79.2,211.73a106.13,106.13,0,0,0-7.79-7.31,22.61,22.61,0,0,0-3-2.25l-.51-.3c-7.67-4.43-13.93-1-14.1,7.72-.17,9,6.45,20.22,14.33,24.77l12.21,7c.85.49,1.54.1,1.54-.87l.07-22.65A9.45,9.45,0,0,0,79.2,211.73Z" transform="translate(-53.77 -83.9)"/><path class="cls-23" d="M67,206.19c-5.23-3-9.49-.6-9.5,5.41s4.21,13.34,9.44,16.37,9.49.59,9.51-5.42S72.21,209.21,67,206.19Z" transform="translate(-53.77 -83.9)"/><path class="cls-22" d="M67,209.28c-3.75-2.16-6.8-.42-6.81,3.88a14.92,14.92,0,0,0,6.76,11.71c3.75,2.17,6.79.43,6.81-3.88A14.94,14.94,0,0,0,67,209.28Z" transform="translate(-53.77 -83.9)"/><path class="cls-24" d="M89.86,206.09l-10.32,6a10.12,10.12,0,0,1,1.63,2.58l10.33-6A10.16,10.16,0,0,0,89.86,206.09Z" transform="translate(-53.77 -83.9)"/><polygon class="cls-25" points="36.44 130.95 30.24 134.53 30.24 150.86 36.44 147.28 36.44 130.95"/><polygon class="cls-26" points="37.54 148.34 29.14 153.19 29.14 155.76 37.54 150.91 37.54 148.34"/><polygon class="cls-27" points="36.05 131.17 36.05 147.06 30.24 150.41 30.24 150.86 36.44 147.28 36.44 130.95 36.05 131.17"/><g class="cls-3"><path class="cls-28" d="M93.5,218.56a6,6,0,0,0-.83-1.36l-2-2.49a.88.88,0,0,0-.17-.14.23.23,0,0,0-.25,0L84,218.19l3,7.56,6.27-3.65a1.77,1.77,0,0,0,.73-1.62A4.94,4.94,0,0,0,93.5,218.56Z" transform="translate(-53.77 -83.9)"/><path class="cls-23" d="M84.24,218.21a.57.57,0,0,1,.17.15l2,2.49a5.48,5.48,0,0,1,1.27,3.27c0,1-.48,1.74-1.28,1.79l-2,.17a.24.24,0,0,1-.16,0,.76.76,0,0,1-.35-.58v-7.05C83.89,218.17,84.06,218.11,84.24,218.21Z" transform="translate(-53.77 -83.9)"/></g><polygon class="cls-2" points="136.99 207.66 128.64 212.48 29.14 155.03 37.49 150.21 136.99 207.66"/><g class="cls-29"><polygon class="cls-30" points="35.53 153.65 35.32 153.52 39.48 151.12 39.7 151.24 35.53 153.65"/><polygon class="cls-30" points="38.68 155.47 38.47 155.34 42.63 152.94 42.85 153.06 38.68 155.47"/><polygon class="cls-30" points="41.84 157.28 41.62 157.16 45.78 154.75 46 154.88 41.84 157.28"/><polygon class="cls-30" points="44.99 159.1 44.77 158.98 48.94 156.57 49.15 156.7 44.99 159.1"/><polygon class="cls-28" points="47.02 161.84 46.49 161.54 52.02 158.35 52.54 158.65 47.02 161.84"/><polygon class="cls-30" points="51.36 162.78 51.14 162.66 55.3 160.25 55.52 160.38 51.36 162.78"/><polygon class="cls-30" points="54.51 164.6 54.29 164.48 58.46 162.07 58.67 162.2 54.51 164.6"/><polygon class="cls-30" points="57.66 166.42 57.44 166.29 61.61 163.89 61.82 164.01 57.66 166.42"/><polygon class="cls-30" points="60.81 168.24 60.59 168.11 64.76 165.71 64.97 165.83 60.81 168.24"/><polygon class="cls-28" points="62.84 170.98 62.32 170.68 67.84 167.49 68.36 167.79 62.84 170.98"/><polygon class="cls-30" points="67.18 171.92 66.96 171.79 71.13 169.39 71.34 169.51 67.18 171.92"/><polygon class="cls-30" points="70.33 173.74 70.11 173.61 74.28 171.21 74.5 171.33 70.33 173.74"/><polygon class="cls-30" points="73.48 175.56 73.27 175.43 77.43 173.03 77.65 173.15 73.48 175.56"/><polygon class="cls-30" points="76.63 177.37 76.42 177.25 80.58 174.84 80.8 174.97 76.63 177.37"/><polygon class="cls-28" points="78.66 180.11 78.14 179.81 83.66 176.62 84.18 176.92 78.66 180.11"/><polygon class="cls-30" points="83 181.05 82.79 180.93 86.95 178.52 87.17 178.65 83 181.05"/><polygon class="cls-30" points="86.15 182.87 85.94 182.75 90.1 180.34 90.32 180.47 86.15 182.87"/><polygon class="cls-30" points="89.31 184.69 89.09 184.57 93.25 182.16 93.47 182.29 89.31 184.69"/><polygon class="cls-30" points="92.46 186.51 92.24 186.38 96.41 183.98 96.62 184.11 92.46 186.51"/><polygon class="cls-28" points="94.49 189.25 93.97 188.95 99.48 185.76 100.01 186.06 94.49 189.25"/><polygon class="cls-30" points="98.83 190.19 98.61 190.06 102.78 187.66 102.99 187.78 98.83 190.19"/><polygon class="cls-30" points="101.98 192.01 101.76 191.88 105.93 189.48 106.14 189.6 101.98 192.01"/><polygon class="cls-30" points="105.13 193.83 104.91 193.7 109.08 191.3 109.29 191.42 105.13 193.83"/><polygon class="cls-30" points="108.28 195.65 108.06 195.52 112.23 193.12 112.44 193.24 108.28 195.65"/><polygon class="cls-28" points="110.31 198.38 109.79 198.08 115.31 194.9 115.83 195.2 110.31 198.38"/><polygon class="cls-30" points="114.65 199.32 114.44 199.2 118.6 196.79 118.81 196.92 114.65 199.32"/><polygon class="cls-30" points="117.8 201.14 117.58 201.02 121.75 198.61 121.97 198.74 117.8 201.14"/><polygon class="cls-30" points="120.95 202.96 120.74 202.84 124.9 200.43 125.12 200.56 120.95 202.96"/><polygon class="cls-30" points="124.1 204.78 123.89 204.66 128.05 202.25 128.27 202.38 124.1 204.78"/><polygon class="cls-28" points="126.13 207.52 125.61 207.22 131.13 204.03 131.65 204.33 126.13 207.52"/></g><g id="Axonometric_Cube" data-name="Axonometric Cube"><polygon class="cls-19" points="130.97 213.38 125.91 210.46 125.91 211.21 130.97 214.13 139.37 209.28 139.37 208.53 130.97 213.38"/><polygon id="Cube_face_-_top" data-name="Cube face - top" class="cls-31" points="130.97 213.38 125.91 210.46 134.31 205.61 139.37 208.53 130.97 213.38"/></g><path class="cls-21" d="M262.92,189c-16.25,9.39-42.61,9.39-58.86,0l-18.82-10.86c-16.26-9.38-15.36-24.09.89-33.47s41.72-9.9,58-.52L262.92,155C279.18,164.41,279.18,179.63,262.92,189Z" transform="translate(-53.77 -83.9)"/><path class="cls-32" d="M224.63,138l.05,0c-13.35-1.74-27.9.58-38.53,6.72-16.27,9.37-17.17,24.08-.91,33.46l7.58,4.38C200.67,165.9,212,151.32,224.63,138Z" transform="translate(-53.77 -83.9)"/><path class="cls-33" d="M235.68,121.39c-30.7-11.28-58.09,6.06-59.55,40.47,0,5.84,4.92,9.74,12.09,14.89a59.07,59.07,0,0,0,13.18,7,65,65,0,0,0,6.79,2.35c15.23,4,30.92,2.08,41.82-4,8.05-4.52,12.66-9.82,12.75-15.85,0-1,0-3.93,0-4.89C262.23,143,253.51,127.93,235.68,121.39Z" transform="translate(-53.77 -83.9)"/><g id="Axonometric_Cube-2" data-name="Axonometric Cube"><polygon id="Cube_face_-_left" data-name="Cube face - left" class="cls-22" points="144.62 101.85 131.46 94.25 131.46 85.92 144.62 93.52 144.62 101.85"/><polygon id="Cube_face_-_right" data-name="Cube face - right" class="cls-20" points="147.91 99.96 144.62 101.85 144.62 93.52 147.91 91.62 147.91 99.96"/><polygon id="Cube_face_-_top-2" data-name="Cube face - top" class="cls-21" points="144.62 93.52 131.46 85.92 134.74 84.02 147.91 91.62 144.62 93.52"/></g><path class="cls-34" d="M228.34,123.72,227,123A36,36,0,0,0,208,119,38.25,38.25,0,0,0,192,126.73c3.84-1.36,12.65-2.44,24.11,3.25,18.73,9.3,33.73,19.87,32.63,52.79l1.11.64c.44-.22.9-.43,1.32-.67,4.22-2.36,7.32-3.88,9.33-6.85,0-.68,0-2.62,0-3.28C260.49,143.08,246.35,132.66,228.34,123.72Z" transform="translate(-53.77 -83.9)"/><path class="cls-22" d="M217.6,129.09c-11.46-5.69-21.49-4.93-25.65-2.36,3.84-1.36,12.65-2.44,24.11,3.25,18.73,9.3,33.73,19.87,32.63,52.79l1.11.64.07,0C251.1,149.37,236.08,138.27,217.6,129.09Z" transform="translate(-53.77 -83.9)"/><path class="cls-31" d="M234,254.63,194.68,232a1.26,1.26,0,0,1-.45-1.74L214,197.53a5.2,5.2,0,0,0-1.86-7.19l-7.74-4.48a6.58,6.58,0,0,0-6.54,0l-6.54,3.78a1.8,1.8,0,0,0,1.8,3.11l6.53-3.77a3,3,0,0,1,2.95,0l7.75,4.47a1.63,1.63,0,0,1,.75,1,1.61,1.61,0,0,1-.18,1.23l-19.8,32.68a4.86,4.86,0,0,0,1.73,6.71l39.29,22.69a1.87,1.87,0,0,0,.9.24,1.8,1.8,0,0,0,.9-3.36Z" transform="translate(-53.77 -83.9)"/><g id="Axonometric_Cylinder" data-name="Axonometric Cylinder"><path id="Cylinder_face" data-name="Cylinder face" class="cls-35" d="M135.82,232.62c0,5.32-3.74,7.48-8.34,4.82s-8.34-9.13-8.34-14.44,3.74-7.47,8.34-4.82S135.82,227.31,135.82,232.62Z" transform="translate(-53.77 -83.9)"/><path id="Cylinder_face-2" data-name="Cylinder face" class="cls-19" d="M133.66,231.38c0,3.94-2.77,5.54-6.18,3.57a13.68,13.68,0,0,1-6.18-10.71c0-3.94,2.77-5.54,6.18-3.56A13.66,13.66,0,0,1,133.66,231.38Z" transform="translate(-53.77 -83.9)"/><path id="Cylinder_face-3" data-name="Cylinder face" class="cls-36" d="M131.38,230.06c0,2.49-1.75,3.5-3.9,2.25a8.61,8.61,0,0,1-3.9-6.75c0-2.49,1.75-3.49,3.9-2.25A8.63,8.63,0,0,1,131.38,230.06Z" transform="translate(-53.77 -83.9)"/><path id="Cylinder_body" data-name="Cylinder body" class="cls-37" d="M121.53,217.63l68.2-39.37c1.51-.91,3.62-.8,6,.55,4.6,2.66,8.34,9.12,8.34,14.44,0,2.63-.91,4.48-2.39,5.36L133.43,238c1.48-.89,2.39-2.74,2.39-5.37,0-5.31-3.74-11.78-8.34-14.44C125.15,216.84,123,216.73,121.53,217.63Z" transform="translate(-53.77 -83.9)"/></g><g id="Axonometric_Cylinder-2" data-name="Axonometric Cylinder"><path class="cls-38" d="M206.11,234.15a2.92,2.92,0,0,0-3,.28,9.27,9.27,0,0,0-4.21,7.28,3,3,0,0,0,1.2,2.71l34.41,19.86,6-10.27Z" transform="translate(-53.77 -83.9)"/><path id="Cylinder_face-4" data-name="Cylinder face" class="cls-32" d="M233.31,261.58c0,2.68,1.88,3.76,4.2,2.42a9.27,9.27,0,0,0,4.21-7.28c0-2.68-1.88-3.77-4.21-2.43A9.29,9.29,0,0,0,233.31,261.58Z" transform="translate(-53.77 -83.9)"/></g><path class="cls-39" d="M233.31,261.58c.66-4.73,4.64-8.77,7.18-7.58C238.5,252.27,233.3,256.32,233.31,261.58Z" transform="translate(-53.77 -83.9)"/><path class="cls-40" d="M153.44,285.41l1,.91s0,.06-.07,0l-1.59-.57Z" transform="translate(-53.77 -83.9)"/><polygon class="cls-41" points="94.27 199.3 46.87 171.86 46.87 172.61 94.27 200.05 94.27 199.3"/><polygon class="cls-42" points="94.73 198.5 47.33 171.06 46.87 171.86 94.27 199.3 94.73 198.5"/><polygon class="cls-43" points="95.39 198.13 47.98 170.68 47.33 171.06 94.73 198.5 95.39 198.13"/><path class="cls-44" d="M147.6,282.29l2,.1a3.36,3.36,0,0,1,1.12.56l3.1,2.8c-.37-.21-.58.08-.44.25,0,0-4.82-1.75-4.82-1.75-.19-.13-.48-.26-.54-.43l-.65-1.4Z" transform="translate(-53.77 -83.9)"/><path class="cls-42" d="M150.28,282.67c-.12.29-.57.12-.75.24s.92.82.2.93a3.44,3.44,0,0,1-1.13-.26c-.11,0-.27,0-.31,0s.35.34.28.65l-2.84-1.69,1.41-1.7Z" transform="translate(-53.77 -83.9)"/><path class="cls-43" d="M147.14,280.86l.85.49,2.29,1.32c-.13.28-.58.12-.75.24a.07.07,0,0,0,0,.07l-3.09-1.78Z" transform="translate(-53.77 -83.9)"/><path class="cls-41" d="M146.09,282.07l2.7,1.57-.19-.06c-.11,0-.27,0-.31,0s.35.34.28.65l-3.34-1.92Z" transform="translate(-53.77 -83.9)"/><g id="Axonometric_Cube-3" data-name="Axonometric Cube"><polygon id="Cube_face_-_left-2" data-name="Cube face - left" class="cls-45" points="76.73 203.64 21.42 171.71 21.42 171.38 76.73 203.31 76.73 203.64"/><polygon id="Cube_face_-_right-2" data-name="Cube face - right" class="cls-46" points="83.8 199.56 76.73 203.64 76.73 203.31 83.8 199.23 83.8 199.56"/><polygon id="Cube_face_-_top-3" data-name="Cube face - top" class="cls-47" points="76.73 203.31 21.42 171.38 28.49 167.3 83.8 199.23 76.73 203.31"/></g><path class="cls-48" d="M113.53,269.25l.07,0-2.26,1.31-.08,0ZM113.4,271l.08,0,1.61-.93-.08,0Zm1.48.85.08.05,1.61-.93-.08-.05Zm-4.45-2.57.08.05,1.61-.93-.08-.05ZM106,266.75l.07.05,1.61-.93-.07-.05Zm-2.14-.48.07.05,2.27-1.31-.08,0Zm5.11,2.2.07,0,1.61-.93-.07,0Zm7.42,4.28.07,0,1.61-.93-.07,0Zm-8.91-5.14.08,0,1.61-.93-.08,0Zm14.85,8.57.07,0,1.61-.93-.07,0Zm3,1.71.07.05L127,277l-.07-.05Zm-1.49-.85.08,0,1.61-.93-.08,0Zm6.14,1.68-.08,0-1.61.93.08,0Zm-3.83.41.08,0,2.26-1.31-.07,0ZM103,265l.07,0,1.61-.93-.07,0Zm15.67,9.8.08.05,2.26-1.31-.07,0Zm2.14.48.08.05,1.61-.93-.08-.05Zm-3-1.71.08,0,1.61-.93-.08,0ZM83.71,253.9l.08,0L85.4,253l-.08,0Zm47.63,25.63-1.61.93.07.05,1.61-.93ZM81.57,253.42l.08,0,2.26-1.31-.07,0Zm3.63,1.33.07.05,1.61-.93-.07-.05Zm1.48.86.08,0,1.61-.93-.08,0Zm46,26.57.07,0,1.61-.93-.07,0Zm3.17,0-.08,0-2.26,1.3.07,0Zm-47.7-25.68.07,0,1.61-.93-.07,0Zm44.73,24-.08,0-1.61.93.08,0ZM100,263.32l.08.05,1.61-.93-.08-.05ZM96.42,262l.07,0,2.27-1.31-.08,0Zm2.14.48.07,0,1.61-.93-.07,0ZM89,257.7l.08.05,2.26-1.31-.07,0Zm6.6,3.05.07.05,1.61-.93-.07-.05Zm5.94,3.43.07,0,1.61-.93-.07,0Zm-10.4-6,.08,0,1.61-.92-.08-.05Zm1.49.86.07,0,1.61-.93-.07,0Zm1.48.86.08,0,1.61-.93-.08,0Z" transform="translate(-53.77 -83.9)"/><polygon class="cls-49" points="267.8 151.03 256.32 152.47 256.32 163.19 264.48 165.9 269.26 159.18 267.8 151.03"/><polygon id="Cube_face_-_top-4" data-name="Cube face - top" class="cls-50" points="246.35 172.94 239.64 169.06 256.32 159.43 263.04 163.31 246.35 172.94"/><g id="Axonometric_Cylinder-3" data-name="Axonometric Cylinder"><path id="Cylinder_face-5" data-name="Cylinder face" class="cls-51" d="M297.69,254.23c0,1.91-1.33,2.68-3,1.73a6.62,6.62,0,0,1-3-5.18c0-1.9,1.34-2.68,3-1.72A6.59,6.59,0,0,1,297.69,254.23Z" transform="translate(-53.77 -83.9)"/><path id="Cylinder_body-2" data-name="Cylinder body" class="cls-52" d="M292.57,248.86l17.5-10.1a2.07,2.07,0,0,1,2.13.19,6.62,6.62,0,0,1,3,5.18,2.13,2.13,0,0,1-.85,1.92l-17.5,10.1a2.1,2.1,0,0,0,.85-1.92,6.59,6.59,0,0,0-3-5.17A2.07,2.07,0,0,0,292.57,248.86Z" transform="translate(-53.77 -83.9)"/></g><g id="Axonometric_Cube-4" data-name="Axonometric Cube"><polygon id="Cube_face_-_left-3" data-name="Cube face - left" class="cls-53" points="332.37 129.59 325.65 125.71 325.65 112.44 332.37 116.32 332.37 129.59"/><polygon id="Cube_face_-_right-3" data-name="Cube face - right" class="cls-54" points="342.46 123.77 332.37 129.59 332.37 116.32 342.46 110.49 342.46 123.77"/><polygon id="Cube_face_-_top-5" data-name="Cube face - top" class="cls-50" points="332.37 116.32 325.65 112.44 335.74 106.61 342.46 110.49 332.37 116.32"/></g><g id="Axonometric_Cube-5" data-name="Axonometric Cube"><polygon id="Cube_face_-_left-4" data-name="Cube face - left" class="cls-53" points="167.44 224.81 160.73 220.93 160.73 207.66 167.44 211.54 167.44 224.81"/><polygon class="cls-20" points="264.05 155.76 264.05 163.99 245.29 174.82 245.29 166.59 167.44 211.54 167.44 224.81 333 129.23 333 115.95 264.05 155.76"/><polygon class="cls-54" points="263.04 156.34 263.04 163.31 246.39 172.92 246.39 165.96 243.57 167.59 243.57 177.16 265.91 164.27 265.91 154.69 263.04 156.34"/><polygon class="cls-55" points="263.55 156.05 333 115.95 326.28 112.08 256.83 152.17 263.55 156.05"/><polygon class="cls-50" points="265.88 154.71 259.16 150.83 256.32 152.47 263.04 156.34 265.88 154.71"/><polygon class="cls-55" points="243.97 167.36 237.25 163.48 160.73 207.66 167.44 211.54 243.97 167.36"/></g><g id="Axonometric_Cube-6" data-name="Axonometric Cube"><polygon id="Cube_face_-_left-5" data-name="Cube face - left" class="cls-49" points="157.67 230.45 150.95 226.57 150.95 213.3 157.67 217.18 157.67 230.45"/><polygon id="Cube_face_-_right-4" data-name="Cube face - right" class="cls-54" points="167.76 224.63 157.67 230.45 157.67 217.18 167.76 211.35 167.76 224.63"/><polygon id="Cube_face_-_top-6" data-name="Cube face - top" class="cls-50" points="157.67 217.18 150.95 213.3 161.05 207.47 167.76 211.35 157.67 217.18"/></g><path class="cls-54" d="M366.91,213.26c1.38-.8,2.73-.75,3.49.28,1.1,1.56.47,4.74-1.48,7.17a7.21,7.21,0,0,1-2,1.75c-1.38.8-2.72.75-3.46-.33-1.14-1.54-.47-4.74,1.43-7.09A7.23,7.23,0,0,1,366.91,213.26Z" transform="translate(-53.77 -83.9)"/><path class="cls-54" d="M243.17,284.69c1.38-.79,2.73-.74,3.5.29,1.09,1.56.46,4.74-1.48,7.16a7.38,7.38,0,0,1-2,1.76c-1.38.79-2.73.75-3.46-.33-1.14-1.54-.47-4.74,1.43-7.09A7.42,7.42,0,0,1,243.17,284.69Z" transform="translate(-53.77 -83.9)"/><polygon class="cls-50" points="246.4 165.95 239.68 162.07 236.85 163.71 243.57 167.59 246.4 165.95"/></g></g></g></svg>