<svg xmlns="http://www.w3.org/2000/svg" xmlns:xlink="http://www.w3.org/1999/xlink" viewBox="0 0 456.62 298.45"><defs><style>.cls-1{isolation:isolate;}.cls-2{fill:#bb315e;opacity:0.23;}.cls-13,.cls-2,.cls-29,.cls-42,.cls-45,.cls-50,.cls-69,.cls-7,.cls-75,.cls-76,.cls-91{mix-blend-mode:multiply;}.cls-3{fill:#001f35;}.cls-4{fill:#2e0624;}.cls-5{fill:url(#Áåçûìÿííûé_ãðàäèåíò_92);}.cls-44,.cls-46,.cls-51,.cls-6,.cls-60{fill:#fff;}.cls-6{opacity:0.69;}.cls-44,.cls-46,.cls-51,.cls-6,.cls-66,.cls-67,.cls-96{mix-blend-mode:soft-light;}.cls-7{fill:#80008a;}.cls-13,.cls-7{opacity:0.33;}.cls-8{fill:url(#Áåçûìÿííûé_ãðàäèåíò_243);}.cls-9{fill:url(#Áåçûìÿííûé_ãðàäèåíò_92-2);}.cls-10{fill:url(#Áåçûìÿííûé_ãðàäèåíò_54);}.cls-11{fill:url(#Áåçûìÿííûé_ãðàäèåíò_92-3);}.cls-12{fill:url(#Áåçûìÿííûé_ãðàäèåíò_47);}.cls-13,.cls-29,.cls-42,.cls-45{fill:#80408a;}.cls-14{fill:url(#Áåçûìÿííûé_ãðàäèåíò_196);}.cls-15{fill:url(#Áåçûìÿííûé_ãðàäèåíò_243-2);}.cls-16{fill:url(#Áåçûìÿííûé_ãðàäèåíò_196-2);}.cls-17{fill:url(#Áåçûìÿííûé_ãðàäèåíò_274);}.cls-18{fill:url(#Áåçûìÿííûé_ãðàäèåíò_284);}.cls-19{fill:url(#Áåçûìÿííûé_ãðàäèåíò_274-2);}.cls-20{fill:url(#Áåçûìÿííûé_ãðàäèåíò_284-2);}.cls-21{fill:url(#Áåçûìÿííûé_ãðàäèåíò_284-3);}.cls-22{fill:url(#Áåçûìÿííûé_ãðàäèåíò_284-4);}.cls-23{fill:url(#Áåçûìÿííûé_ãðàäèåíò_284-5);}.cls-24{fill:url(#Áåçûìÿííûé_ãðàäèåíò_284-6);}.cls-25{fill:url(#Áåçûìÿííûé_ãðàäèåíò_274-3);}.cls-26{fill:url(#Áåçûìÿííûé_ãðàäèåíò_274-4);}.cls-27{fill:url(#Áåçûìÿííûé_ãðàäèåíò_92-4);}.cls-28{fill:url(#Áåçûìÿííûé_ãðàäèåíò_18);}.cls-30{fill:url(#Áåçûìÿííûé_ãðàäèåíò_18-2);}.cls-31{fill:url(#Áåçûìÿííûé_ãðàäèåíò_92-5);}.cls-32{fill:url(#Áåçûìÿííûé_ãðàäèåíò_18-3);}.cls-33{fill:url(#Áåçûìÿííûé_ãðàäèåíò_92-6);}.cls-34{fill:#4f4060;}.cls-35{fill:url(#Áåçûìÿííûé_ãðàäèåíò_284-7);}.cls-36{fill:url(#Áåçûìÿííûé_ãðàäèåíò_92-7);}.cls-37{fill:url(#Áåçûìÿííûé_ãðàäèåíò_18-4);}.cls-38{fill:url(#Áåçûìÿííûé_ãðàäèåíò_246);}.cls-39{fill:url(#Áåçûìÿííûé_ãðàäèåíò_247);}.cls-40{fill:url(#Áåçûìÿííûé_ãðàäèåíò_92-8);}.cls-41{fill:url(#Áåçûìÿííûé_ãðàäèåíò_18-5);}.cls-42{opacity:0.46;}.cls-43{fill:#bfb8c3;}.cls-45,.cls-76,.cls-91{opacity:0.2;}.cls-46,.cls-50{opacity:0.3;}.cls-47{fill:url(#Áåçûìÿííûé_ãðàäèåíò_284-8);}.cls-48{fill:url(#Áåçûìÿííûé_ãðàäèåíò_274-5);}.cls-49{fill:#221638;}.cls-50{fill:#812e45;}.cls-51,.cls-63,.cls-67,.cls-69,.cls-73,.cls-96{opacity:0.5;}.cls-52{fill:#82606e;}.cls-53,.cls-69,.cls-75,.cls-76{fill:#791640;}.cls-54{fill:#f08364;}.cls-55{fill:#ffab82;}.cls-56{fill:#da6951;}.cls-57,.cls-63{fill:#380808;}.cls-58{fill:#ffffd8;}.cls-59{fill:#3f1b08;}.cls-61{fill:#984e25;}.cls-62{fill:url(#Áåçûìÿííûé_ãðàäèåíò_118);}.cls-64{fill:#521c08;}.cls-65{fill:url(#Áåçûìÿííûé_ãðàäèåíò_118-2);}.cls-66,.cls-67{fill:#ffccb3;}.cls-68{fill:#896b72;}.cls-70{fill:#e0ffff;}.cls-71{fill:#694051;}.cls-72{fill:url(#Áåçûìÿííûé_ãðàäèåíò_50);}.cls-73{fill:url(#Áåçûìÿííûé_ãðàäèåíò_13);}.cls-74{fill:#ffffb8;}.cls-75{opacity:0.4;}.cls-77{fill:url(#Áåçûìÿííûé_ãðàäèåíò_56);}.cls-78{fill:#ffb48a;}.cls-79{fill:#f08d6c;}.cls-80{fill:#ff9e7f;}.cls-81{fill:url(#Áåçûìÿííûé_ãðàäèåíò_105);}.cls-82{fill:#ffa47f;}.cls-83{fill:#791c08;}.cls-84{fill:#bb0e64;}.cls-85{fill:#5f0d0e;}.cls-86{fill:#8d3308;}.cls-87{fill:#5d1b1c;}.cls-88{fill:#ae013e;}.cls-89{fill:#740129;}.cls-90{fill:#6a1c08;}.cls-91{fill:#4f00bf;}.cls-92{fill:#ffd6bf;}.cls-93{fill:url(#Áåçûìÿííûé_ãðàäèåíò_49);}.cls-94{fill:url(#Áåçûìÿííûé_ãðàäèåíò_29);}.cls-95{fill:#ff9b7e;}.cls-97{fill:#4e4560;}.cls-98{fill:#73fdcf;}.cls-99{fill:#382d4c;}</style><linearGradient id="Áåçûìÿííûé_ãðàäèåíò_92" x1="427.68" y1="248.52" x2="427.68" y2="191.19" gradientUnits="userSpaceOnUse"><stop offset="0" stop-color="#002c40"/><stop offset="1" stop-color="#114a55"/></linearGradient><linearGradient id="Áåçûìÿííûé_ãðàäèåíò_243" x1="627.45" y1="279.1" x2="752.52" y2="279.1" gradientUnits="userSpaceOnUse"><stop offset="0.02" stop-color="#f4f3ba"/><stop offset="1" stop-color="#72637a"/></linearGradient><linearGradient id="Áåçûìÿííûé_ãðàäèåíò_92-2" x1="304.79" y1="248.52" x2="304.79" y2="191.19" xlink:href="#Áåçûìÿííûé_ãðàäèåíò_92"/><linearGradient id="Áåçûìÿííûé_ãðàäèåíò_54" x1="624.94" y1="301.97" x2="624.94" y2="258.36" gradientUnits="userSpaceOnUse"><stop offset="0" stop-color="#905960"/><stop offset="1" stop-color="#63365e"/></linearGradient><linearGradient id="Áåçûìÿííûé_ãðàäèåíò_92-3" x1="297.8" y1="242.52" x2="297.8" y2="197.18" xlink:href="#Áåçûìÿííûé_ãðàäèåíò_92"/><linearGradient id="Áåçûìÿííûé_ãðàäèåíò_47" x1="612.41" y1="279.52" x2="619.3" y2="279.52" gradientUnits="userSpaceOnUse"><stop offset="0.02" stop-color="#f4f3f5"/><stop offset="0.79" stop-color="#72637a"/><stop offset="1" stop-color="#c0949d"/></linearGradient><linearGradient id="Áåçûìÿííûé_ãðàäèåíò_196" x1="164.75" y1="254.29" x2="164.75" y2="234.94" gradientUnits="userSpaceOnUse"><stop offset="0" stop-color="#39223b"/><stop offset="1" stop-color="#773b64"/></linearGradient><linearGradient id="Áåçûìÿííûé_ãðàäèåíò_243-2" x1="462.35" y1="304.71" x2="488.69" y2="304.71" xlink:href="#Áåçûìÿííûé_ãðàäèåíò_243"/><linearGradient id="Áåçûìÿííûé_ãðàäèåíò_196-2" x1="140.03" y1="254.29" x2="140.03" y2="234.94" xlink:href="#Áåçûìÿííûé_ãðàäèåíò_196"/><linearGradient id="Áåçûìÿííûé_ãðàäèåíò_274" x1="34.36" y1="262.52" x2="34.36" y2="31.47" gradientUnits="userSpaceOnUse"><stop offset="0" stop-color="#72637a"/><stop offset="0.98" stop-color="#cebfc0"/></linearGradient><linearGradient id="Áåçûìÿííûé_ãðàäèåíò_284" x1="29.9" y1="262.52" x2="29.9" y2="31.47" gradientUnits="userSpaceOnUse"><stop offset="0" stop-color="#4d4a69"/><stop offset="1" stop-color="#43365e"/></linearGradient><linearGradient id="Áåçûìÿííûé_ãðàäèåíò_274-2" x1="105.35" y1="261.41" x2="105.35" y2="30.36" xlink:href="#Áåçûìÿííûé_ãðàäèåíò_274"/><linearGradient id="Áåçûìÿííûé_ãðàäèåíò_284-2" x1="100.88" y1="261.41" x2="100.88" y2="30.36" xlink:href="#Áåçûìÿííûé_ãðàäèåíò_284"/><linearGradient id="Áåçûìÿííûé_ãðàäèåíò_284-3" x1="39.9" y1="125.48" x2="100.88" y2="125.48" xlink:href="#Áåçûìÿííûé_ãðàäèåíò_284"/><linearGradient id="Áåçûìÿííûé_ãðàäèåíò_284-4" x1="70.48" y1="235.73" x2="219.77" y2="235.73" xlink:href="#Áåçûìÿííûé_ãðàäèåíò_284"/><linearGradient id="Áåçûìÿííûé_ãðàäèåíò_284-5" x1="178.42" y1="260.2" x2="234.84" y2="260.2" xlink:href="#Áåçûìÿííûé_ãðàäèåíò_284"/><linearGradient id="Áåçûìÿííûé_ãðàäèåíò_284-6" x1="45.55" y1="255.78" x2="110.39" y2="255.78" xlink:href="#Áåçûìÿííûé_ãðàäèåíò_284"/><linearGradient id="Áåçûìÿííûé_ãðàäèåíò_274-3" x1="229.28" y1="260.2" x2="261.13" y2="260.2" xlink:href="#Áåçûìÿííûé_ãðàäèåíò_274"/><linearGradient id="Áåçûìÿííûé_ãðàäèåíò_274-4" x1="213.2" y1="257.88" x2="213.2" y2="208.94" xlink:href="#Áåçûìÿííûé_ãðàäèåíò_274"/><linearGradient id="Áåçûìÿííûé_ãðàäèåíò_92-4" x1="49.01" y1="143.19" x2="106.76" y2="143.19" xlink:href="#Áåçûìÿííûé_ãðàäèåíò_92"/><linearGradient id="Áåçûìÿííûé_ãðàäèåíò_18" x1="79.27" y1="173.96" x2="79.27" y2="107.79" gradientUnits="userSpaceOnUse"><stop offset="0" stop-color="#1f637a"/><stop offset="1" stop-color="#36a68e"/></linearGradient><linearGradient id="Áåçûìÿííûé_ãðàäèåíò_18-2" x1="94.61" y1="208.94" x2="94.61" y2="174.71" xlink:href="#Áåçûìÿííûé_ãðàäèåíò_18"/><linearGradient id="Áåçûìÿííûé_ãðàäèåíò_92-5" x1="80.29" y1="206.45" x2="199.35" y2="206.45" xlink:href="#Áåçûìÿííûé_ãðàäèåíò_92"/><linearGradient id="Áåçûìÿííûé_ãðàäèåíò_18-3" x1="195.03" y1="206.45" x2="234.66" y2="206.45" xlink:href="#Áåçûìÿííûé_ãðàäèåíò_18"/><linearGradient id="Áåçûìÿííûé_ãðàäèåíò_92-6" x1="71.74" y1="190.85" x2="83.29" y2="190.85" xlink:href="#Áåçûìÿííûé_ãðàäèåíò_92"/><linearGradient id="Áåçûìÿííûé_ãðàäèåíò_284-7" x1="253.14" y1="229.03" x2="253.14" y2="184.29" xlink:href="#Áåçûìÿííûé_ãðàäèåíò_284"/><linearGradient id="Áåçûìÿííûé_ãðàäèåíò_92-7" x1="240.22" y1="186.83" x2="271.53" y2="186.83" xlink:href="#Áåçûìÿííûé_ãðàäèåíò_92"/><linearGradient id="Áåçûìÿííûé_ãðàäèåíò_18-4" x1="269.51" y1="186.83" x2="291.22" y2="186.83" xlink:href="#Áåçûìÿííûé_ãðàäèåíò_18"/><linearGradient id="Áåçûìÿííûé_ãðàäèåíò_246" x1="255.47" y1="229.03" x2="255.47" y2="189.91" gradientUnits="userSpaceOnUse"><stop offset="0.02" stop-color="#f4f3db"/><stop offset="0.95" stop-color="#72637a"/></linearGradient><linearGradient id="Áåçûìÿííûé_ãðàäèåíò_247" x1="88.61" y1="252.06" x2="88.61" y2="216.6" xlink:href="#Áåçûìÿííûé_ãðàäèåíò_246"/><linearGradient id="Áåçûìÿííûé_ãðàäèåíò_92-8" x1="219.18" y1="226.86" x2="250.49" y2="226.86" xlink:href="#Áåçûìÿííûé_ãðàäèåíò_92"/><linearGradient id="Áåçûìÿííûé_ãðàäèåíò_18-5" x1="248.46" y1="226.86" x2="270.17" y2="226.86" xlink:href="#Áåçûìÿííûé_ãðàäèåíò_18"/><linearGradient id="Áåçûìÿííûé_ãðàäèåíò_284-8" x1="13.97" y1="259.7" x2="62.29" y2="259.7" xlink:href="#Áåçûìÿííûé_ãðàäèåíò_284"/><linearGradient id="Áåçûìÿííûé_ãðàäèåíò_274-5" x1="57.53" y1="259.7" x2="85.66" y2="259.7" xlink:href="#Áåçûìÿííûé_ãðàäèåíò_274"/><linearGradient id="Áåçûìÿííûé_ãðàäèåíò_118" x1="492.77" y1="84.7" x2="534.33" y2="84.7" gradientUnits="userSpaceOnUse"><stop offset="0" stop-color="#4f010f"/><stop offset="1" stop-color="#6e1a13"/></linearGradient><linearGradient id="Áåçûìÿííûé_ãðàäèåíò_118-2" x1="518.07" y1="123.56" x2="518.07" y2="101.83" xlink:href="#Áåçûìÿííûé_ãðàäèåíò_118"/><linearGradient id="Áåçûìÿííûé_ãðàäèåíò_50" x1="523.11" y1="223.16" x2="523.11" y2="117.53" gradientUnits="userSpaceOnUse"><stop offset="0" stop-color="#d71f27"/><stop offset="1" stop-color="#a00031"/></linearGradient><linearGradient id="Áåçûìÿííûé_ãðàäèåíò_13" x1="206.34" y1="108.07" x2="206.34" y2="78.4" gradientUnits="userSpaceOnUse"><stop offset="0" stop-color="#ffae48"/><stop offset="1" stop-color="#fff281"/></linearGradient><linearGradient id="Áåçûìÿííûé_ãðàäèåíò_56" x1="352.16" y1="96.83" x2="351.72" y2="80.1" gradientUnits="userSpaceOnUse"><stop offset="0.02" stop-color="#cebfc0"/><stop offset="1" stop-color="#72637a"/></linearGradient><linearGradient id="Áåçûìÿííûé_ãðàäèåíò_105" x1="547.55" y1="170.63" x2="547.55" y2="110.19" gradientUnits="userSpaceOnUse"><stop offset="0" stop-color="#6e1a13"/><stop offset="1" stop-color="#32011b"/></linearGradient><linearGradient id="Áåçûìÿííûé_ãðàäèåíò_49" x1="560.4" y1="180" x2="601.25" y2="180" gradientUnits="userSpaceOnUse"><stop offset="0" stop-color="#891da9"/><stop offset="1" stop-color="#c2007a"/></linearGradient><linearGradient id="Áåçûìÿííûé_ãðàäèåíò_29" x1="581.89" y1="343.46" x2="581.89" y2="215.63" gradientUnits="userSpaceOnUse"><stop offset="0" stop-color="#0079a9"/><stop offset="1" stop-color="#003b7a"/></linearGradient></defs><title>jordy-amara-fitness</title><g class="cls-1"><g id="interior"><ellipse class="cls-2" cx="370.32" cy="248.52" rx="75.96" ry="1.94"/><path class="cls-3" d="M778.71,280.16a33.07,33.07,0,0,1-4.32,16.59h0c-4.26,7.31-11.24,12.08-19.14,12.08a19.73,19.73,0,0,1-8.9-2.14c-8.54-4.29-14.56-14.55-14.56-26.53,0-15.83,10.51-28.66,23.46-28.66S778.71,264.33,778.71,280.16Z" transform="translate(-322.1 -60.31)"/><polygon class="cls-4" points="427.68 191.19 433.16 191.19 432.63 192.62 427.68 191.19"/><polygon class="cls-4" points="427.68 248.52 433.16 248.52 429.5 247.61 427.68 248.52"/><ellipse class="cls-5" cx="427.68" cy="219.85" rx="23.46" ry="28.66"/><path class="cls-6" d="M749.78,251.5l-.76,0c12.61.49,22.7,13.12,22.7,28.64S761.63,308.31,749,308.8l.76,0c13,0,23.46-12.84,23.46-28.67S762.73,251.5,749.78,251.5Z" transform="translate(-322.1 -60.31)"/><path class="cls-6" d="M759.33,268.58l1.48-1.21a18.45,18.45,0,0,1,2.7,5.32l-1.8.52A25.33,25.33,0,0,0,759.33,268.58Z" transform="translate(-322.1 -60.31)"/><path class="cls-6" d="M761.91,265.71l4.76-4.17a27,27,0,0,1,4.75,10.13l-6.16,1.15A40.29,40.29,0,0,0,761.91,265.71Z" transform="translate(-322.1 -60.31)"/><polygon class="cls-7" points="428.68 221.23 436.33 246.65 439.03 244.94 430.42 218.99 428.68 221.23"/><path class="cls-8" d="M627.45,275.31l123.33,1.75a2.06,2.06,0,0,1,1.74,2.24h0a2,2,0,0,1-1.74,2.24l-122.21,1.35Z" transform="translate(-322.1 -60.31)"/><path class="cls-3" d="M655.82,280.16a33,33,0,0,1-4.33,16.59h0c-4.25,7.31-11.23,12.08-19.13,12.08a19.77,19.77,0,0,1-8.91-2.14c-8.54-4.29-14.55-14.55-14.55-26.53,0-15.83,10.5-28.66,23.46-28.66S655.82,264.33,655.82,280.16Z" transform="translate(-322.1 -60.31)"/><polygon class="cls-4" points="304.79 191.19 310.26 191.19 309.74 192.62 304.79 191.19"/><polygon class="cls-4" points="304.79 248.52 310.26 248.52 306.6 247.61 304.79 248.52"/><ellipse class="cls-9" cx="304.79" cy="219.85" rx="23.46" ry="28.66"/><path class="cls-6" d="M626.88,251.5l-.75,0c12.6.49,22.7,13.12,22.7,28.64s-10.1,28.15-22.7,28.64l.75,0c13,0,23.46-12.84,23.46-28.67S639.84,251.5,626.88,251.5Z" transform="translate(-322.1 -60.31)"/><path class="cls-6" d="M626.29,258.47a14.76,14.76,0,0,0-1.77-.11c-9.85,0-17.84,9.76-17.84,21.8s8,21.81,17.84,21.81a14.76,14.76,0,0,0,1.77-.11c9-1.09,16.08-10.38,16.08-21.7S635.31,259.55,626.29,258.47Zm0,42.88a14.1,14.1,0,0,1-1.73.1c-9.62,0-17.42-9.53-17.42-21.29s7.8-21.28,17.42-21.28a14.1,14.1,0,0,1,1.73.1c8.81,1.06,15.7,10.14,15.7,21.18S635.06,300.29,626.25,301.35Z" transform="translate(-322.1 -60.31)"/><path class="cls-10" d="M626.71,258.47a14.76,14.76,0,0,0-1.77-.11c-9.85,0-17.84,9.76-17.84,21.8s8,21.81,17.84,21.81a14.76,14.76,0,0,0,1.77-.11c9-1.09,16.08-10.38,16.08-21.7S635.73,259.55,626.71,258.47Zm0,42.88a14.1,14.1,0,0,1-1.73.1c-9.62,0-17.42-9.53-17.42-21.29s7.8-21.28,17.42-21.28a14.1,14.1,0,0,1,1.73.1c8.81,1.06,15.7,10.14,15.7,21.18S635.48,300.29,626.67,301.35Z" transform="translate(-322.1 -60.31)"/><path class="cls-6" d="M636.43,268.58l1.48-1.21a18.45,18.45,0,0,1,2.7,5.32l-1.8.52A25.33,25.33,0,0,0,636.43,268.58Z" transform="translate(-322.1 -60.31)"/><path class="cls-6" d="M639,265.71l4.75-4.17a27,27,0,0,1,4.75,10.13l-6.15,1.15A40.29,40.29,0,0,0,639,265.71Z" transform="translate(-322.1 -60.31)"/><path class="cls-3" d="M642.78,280.16a26.06,26.06,0,0,1-3.42,13.12h0c-3.36,5.77-8.88,9.55-15.13,9.55a15.49,15.49,0,0,1-7-1.7c-6.76-3.39-11.52-11.5-11.52-21,0-12.52,8.31-22.67,18.56-22.67S642.78,267.64,642.78,280.16Z" transform="translate(-322.1 -60.31)"/><polygon class="cls-4" points="297.8 197.18 302.13 197.18 301.72 198.31 297.8 197.18"/><polygon class="cls-4" points="297.8 242.53 302.13 242.53 299.24 241.81 297.8 242.53"/><ellipse class="cls-11" cx="297.8" cy="219.85" rx="18.55" ry="22.67"/><path class="cls-3" d="M619.9,279.52c0,2.32-1.54,4.21-3.45,4.21s-3.44-1.89-3.44-4.21,1.54-4.21,3.44-4.21S619.9,277.19,619.9,279.52Z" transform="translate(-322.1 -60.31)"/><path class="cls-12" d="M619.3,279.52c0,2.32-1.54,4.21-3.45,4.21s-3.44-1.89-3.44-4.21,1.54-4.21,3.44-4.21S619.3,277.19,619.3,279.52Z" transform="translate(-322.1 -60.31)"/><path class="cls-6" d="M619.9,257.49l-.6,0c10,.39,18,10.38,18,22.65s-8,22.27-18,22.66l.6,0c10.25,0,18.55-10.15,18.55-22.68S630.15,257.49,619.9,257.49Z" transform="translate(-322.1 -60.31)"/><path class="cls-6" d="M619.43,263a10.74,10.74,0,0,0-1.4-.09c-7.79,0-14.11,7.72-14.11,17.24s6.32,17.25,14.11,17.25a10.74,10.74,0,0,0,1.4-.09c7.14-.85,12.71-8.21,12.71-17.16S626.57,263.86,619.43,263Zm0,33.91A10.29,10.29,0,0,1,618,297c-7.61,0-13.78-7.54-13.78-16.84s6.17-16.83,13.78-16.83a10.29,10.29,0,0,1,1.37.08c7,.84,12.41,8,12.41,16.75S626.37,296.08,619.4,296.92Z" transform="translate(-322.1 -60.31)"/><path class="cls-3" d="M619.76,263a10.7,10.7,0,0,0-1.39-.09c-7.8,0-14.12,7.72-14.12,17.24s6.32,17.25,14.12,17.25a10.7,10.7,0,0,0,1.39-.09c7.14-.85,12.72-8.21,12.72-17.16S626.9,263.86,619.76,263Zm0,33.91a10.24,10.24,0,0,1-1.36.08c-7.61,0-13.78-7.54-13.78-16.84s6.17-16.83,13.78-16.83a10.24,10.24,0,0,1,1.36.08c7,.84,12.41,8,12.41,16.75S626.7,296.08,619.73,296.92Z" transform="translate(-322.1 -60.31)"/><path class="cls-6" d="M627.45,271l1.17-1a14.74,14.74,0,0,1,2.14,4.21l-1.42.41A20.62,20.62,0,0,0,627.45,271Z" transform="translate(-322.1 -60.31)"/><path class="cls-6" d="M629.5,268.73l3.76-3.29a21.17,21.17,0,0,1,3.75,8l-4.87.91A31.82,31.82,0,0,0,629.5,268.73Z" transform="translate(-322.1 -60.31)"/><polygon class="cls-13" points="334.55 215.41 337.59 220.35 430.29 219.85 429.9 220.58 337.63 221.73 337.13 222.24 333.72 222.28 333.44 215.4 334.55 215.41"/><polygon class="cls-6" points="342.05 215.52 345.74 217.17 417.56 217.9 415.9 216.57 342.05 215.52"/><path class="cls-2" d="M505.19,314.17c0,1.08-13.28,1.95-29.67,1.95s-29.67-.87-29.67-1.95,13.28-1.94,29.67-1.94S505.19,313.1,505.19,314.17Z" transform="translate(-322.1 -60.31)"/><path class="cls-4" d="M498.34,304.92a11.14,11.14,0,0,1-1.46,5.6h0a7.62,7.62,0,0,1-6.46,4.07,6.61,6.61,0,0,1-3-.72c-2.88-1.45-4.91-4.91-4.91-9,0-5.34,3.54-9.67,7.92-9.67S498.34,299.58,498.34,304.92Z" transform="translate(-322.1 -60.31)"/><polygon class="cls-4" points="164.75 234.94 167.97 234.94 166.42 235.42 164.75 234.94"/><polygon class="cls-4" points="164.75 254.29 168.58 254.29 166.22 253.43 164.75 254.29"/><ellipse class="cls-14" cx="164.75" cy="244.61" rx="7.92" ry="9.68"/><path class="cls-6" d="M486.84,295.25h-.25c4.25.16,7.66,4.43,7.66,9.67s-3.41,9.5-7.66,9.66h.25c4.38,0,7.92-4.33,7.92-9.67S491.22,295.25,486.84,295.25Z" transform="translate(-322.1 -60.31)"/><path class="cls-15" d="M462.35,301.14l24.75,1a3.71,3.71,0,0,1,1.59,2.76h0a3.13,3.13,0,0,1-1.59,2.51l-24.57.84Z" transform="translate(-322.1 -60.31)"/><polygon class="cls-13" points="146.61 240.32 146.93 244.75 166.27 245.83 165.81 246.48 146.82 247.06 146.61 248.32 145.92 248.37 145.87 240.26 146.61 240.32"/><polygon class="cls-6" points="148.07 241.64 148.34 242.35 163.03 242.77 162.54 242.13 148.07 241.64"/><path class="cls-4" d="M473.53,304.92a11.14,11.14,0,0,1-1.46,5.6h0a7.61,7.61,0,0,1-6.46,4.07,6.64,6.64,0,0,1-3-.72c-2.88-1.45-4.91-4.91-4.91-9,0-5.34,3.55-9.67,7.92-9.67S473.53,299.58,473.53,304.92Z" transform="translate(-322.1 -60.31)"/><polygon class="cls-4" points="140.03 234.94 143.51 234.94 141.7 235.42 140.03 234.94"/><polygon class="cls-4" points="140.03 254.29 143.31 254.29 141.21 253.05 140.03 254.29"/><ellipse class="cls-16" cx="140.03" cy="244.61" rx="7.92" ry="9.68"/><path class="cls-6" d="M466,304.62c0,2.8-1.86,5.07-4.15,5.07s-4.14-2.27-4.14-5.07,1.85-5.06,4.14-5.06S466,301.82,466,304.62Z" transform="translate(-322.1 -60.31)"/><path class="cls-4" d="M463.76,304.71a2.53,2.53,0,1,1-2.48-3A2.8,2.8,0,0,1,463.76,304.71Z" transform="translate(-322.1 -60.31)"/><path class="cls-6" d="M462.13,295.25h-.26c4.26.16,7.67,4.43,7.67,9.67s-3.41,9.5-7.67,9.66h.26c4.37,0,7.92-4.33,7.92-9.67S466.5,295.25,462.13,295.25Z" transform="translate(-322.1 -60.31)"/><path class="cls-2" d="M666.8,322.83c0,2.4-77.16,4.34-172.35,4.34s-172.35-1.94-172.35-4.34,77.16-4.33,172.35-4.33S666.8,320.44,666.8,322.83Z" transform="translate(-322.1 -60.31)"/><polygon class="cls-17" points="40.56 262.52 22.76 31.47 35.98 32.33 45.96 262.52 40.56 262.52"/><polygon class="cls-18" points="22.76 31.47 19.23 33.6 38.01 261.28 40.56 262.52 22.76 31.47"/><polygon class="cls-19" points="111.55 261.41 93.75 30.36 106.97 31.22 116.94 261.41 111.55 261.41"/><polygon class="cls-20" points="93.75 30.36 90.22 32.49 108.99 260.17 111.55 261.41 93.75 30.36"/><polygon class="cls-21" points="100.88 122.71 39.9 122.71 39.9 128.26 100.88 126.78 100.88 122.71"/><polygon class="cls-22" points="219.77 262.53 214.16 262.53 190.01 217.34 188.81 215.1 97.19 216.6 94.03 221.55 74.54 252.06 74.53 252.06 73.39 253.86 70.48 253.86 77.97 231.45 85.07 210.2 85.48 208.94 204.44 208.94 204.8 210.2 206.63 216.6 219.77 262.53"/><polygon class="cls-23" points="182.69 257.88 178.42 262.52 234.84 262.52 229.28 257.88 182.69 257.88"/><polygon class="cls-24" points="109.67 250.71 45.55 253.18 45.88 260.85 110.39 260.85 109.67 250.71"/><polygon class="cls-25" points="229.28 257.88 256.2 257.88 261.13 262.52 234.84 262.52 229.28 257.88"/><polygon class="cls-26" points="204.44 208.94 210.46 208.94 221.97 257.88 218.44 257.88 204.44 208.94"/><polygon class="cls-27" points="51.79 107.79 49.01 111.85 70.11 178.59 104.74 174.98 106.76 172.87 72.43 173.97 51.79 107.79"/><polygon class="cls-28" points="51.79 107.79 72.43 173.97 106.76 172.87 90.22 107.79 51.79 107.79"/><polygon class="cls-29" points="70.11 178.59 72.43 173.97 106.76 172.87 103.83 176.76 70.11 178.59"/><polygon class="cls-30" points="73.66 175.25 85.48 208.94 115.56 208.94 106.94 174.71 73.66 175.25"/><polygon class="cls-31" points="82.29 202.71 80.29 210.2 199.35 210.2 195.05 202.71 82.29 202.71"/><polygon class="cls-32" points="195.03 202.71 230 202.71 234.66 209.56 199.35 210.2 195.03 202.71"/><polygon class="cls-33" points="73.66 175.25 71.74 180.19 81.29 206.45 83.29 202.71 73.66 175.25"/><polygon class="cls-34" points="208.49 224.71 237.17 224.71 245.21 229.03 210.46 231.57 208.49 224.71"/><polygon class="cls-35" points="236.12 229.03 244.8 195.73 268.72 184.29 270.17 185.76 249.52 197.16 245.21 229.03 236.12 229.03"/><polygon class="cls-36" points="243 185.66 240.22 189.91 271.53 189.91 269.51 183.75 243 185.66"/><polygon class="cls-37" points="269.51 183.75 288.23 183.75 291.22 189.91 271.53 189.91 269.51 183.75"/><polygon class="cls-38" points="265.74 189.91 251.92 197.03 249.44 229.03 245.21 229.03 249.52 197.16 262.65 189.91 265.74 189.91"/><polygon class="cls-39" points="102.68 216.6 99.32 221.32 77.52 251.94 74.54 252.06 74.53 252.06 94.03 221.55 97.19 216.6 102.68 216.6"/><polygon class="cls-40" points="221.95 225.7 219.18 229.94 250.49 229.94 248.46 223.78 221.95 225.7"/><polygon class="cls-41" points="248.46 223.78 267.18 223.78 270.17 229.94 250.49 229.94 248.46 223.78"/><polygon class="cls-4" points="96.85 71.28 102.13 71.28 101.92 72.34 96.85 71.28"/><polygon class="cls-42" points="104.65 58.56 96.21 63.08 96.84 71.28 102.12 71.28 104.65 58.56"/><polygon class="cls-42" points="108.8 78.41 98.1 87.62 97.01 73.42 108.53 72.34 108.8 78.41"/><polygon class="cls-34" points="93.51 72.83 103.73 74.58 104.65 57.21 102.9 57.21 101.91 72.34 93.33 70.54 93.51 72.83"/><polygon class="cls-43" points="103.73 74.58 117.52 74.58 116.24 57.96 104.65 57.21 103.73 74.58"/><polygon class="cls-44" points="107.98 57.6 115.64 58.27 117.06 74.58 115.36 63.03 111.65 58.56 107.98 57.6"/><polygon class="cls-42" points="105.35 58.56 104.65 73.66 115.14 73.66 105.54 72.96 105.35 58.56"/><polygon class="cls-4" points="25.79 71.28 31.07 71.28 30.86 72.34 25.79 71.28"/><polygon class="cls-42" points="33.59 58.56 25.14 63.08 25.78 71.28 31.06 71.28 33.59 58.56"/><polygon class="cls-42" points="37.73 78.41 27.04 87.62 25.94 73.42 37.47 72.34 37.73 78.41"/><polygon class="cls-34" points="22.45 72.83 32.67 74.58 33.59 57.21 31.84 57.21 30.84 72.34 22.26 70.54 22.45 72.83"/><polygon class="cls-43" points="32.67 74.58 46.45 74.58 45.18 57.96 33.59 57.21 32.67 74.58"/><polygon class="cls-44" points="36.91 57.6 44.58 58.27 46 74.58 44.29 63.03 40.59 58.56 36.91 57.6"/><polygon class="cls-42" points="34.28 58.56 33.59 73.66 44.08 73.66 34.47 72.96 34.28 58.56"/><polygon class="cls-45" points="39.56 118.01 30.52 133.86 40.2 257.88 45.76 257.88 39.56 118.01"/><polygon class="cls-44" points="109.9 101.44 100.56 118.83 102.9 151.02 111.55 136.87 109.9 101.44"/><polygon class="cls-46" points="51.79 107.79 77.88 110.21 97.01 141.84 105.35 171.28 89.47 108.29 51.79 107.79"/><polygon class="cls-46" points="74.82 175.74 106.06 175.74 113.23 201.82 108.71 188.78 100.88 176.63 74.82 175.74"/><polygon class="cls-45" points="53.66 109.11 73.04 172.93 103.24 172.31 73.66 171.9 53.66 109.11"/><polygon class="cls-45" points="74.82 176.76 84.2 201.82 109.67 201.82 85.16 200.79 74.82 176.76"/><polygon class="cls-46" points="195.03 202.71 226.85 204.2 229.91 209.47 234.66 209.56 230 202.71 195.03 202.71"/><polygon class="cls-46" points="270.17 183.75 287.94 184.29 290.4 189.43 288.42 189.67 285.81 184.71 270.17 183.75"/><polygon class="cls-46" points="249.22 224.71 266.52 224.71 268.89 229.49 265.74 229.49 263.28 225.19 249.22 224.71"/><polygon class="cls-45" points="222.51 226.13 220.94 229.49 249.22 229.49 221.97 228.66 222.51 226.13"/><polygon class="cls-45" points="243.56 185.96 241.66 189.11 270.17 189.11 242.92 188.4 243.56 185.96"/><polygon class="cls-42" points="206.63 216.6 190.01 217.34 188.81 215.1 97.19 216.6 102.68 216.6 99.32 221.32 94.03 221.55 77.97 231.45 85.07 210.2 204.8 210.2 206.63 216.6"/><polygon class="cls-42" points="206.63 216.6 211.96 215.3 210.71 209.99 204.8 210.2 206.63 216.6"/><polygon class="cls-42" points="216.76 235.74 213.2 239.56 210.9 231.54 215.69 231.19 216.76 235.74"/><polygon class="cls-44" points="231.28 257.88 255.47 258.47 259.67 261.99 255.75 261.99 253.14 258.93 231.28 257.88"/><polygon class="cls-42" points="183.21 258.7 180.79 261.99 231.28 261.99 183.44 261.16 183.21 258.7"/><polygon class="cls-42" points="192.25 218.26 211.96 257.88 213.83 257.88 192.25 218.26"/><polygon class="cls-47" points="17.63 258.43 13.97 262.52 62.29 262.52 57.53 256.87 17.63 258.43"/><polygon class="cls-48" points="57.53 256.87 81.83 256.87 85.66 262.52 62.29 262.52 57.53 256.87"/><polygon class="cls-44" points="58.55 257.24 81.28 257.24 84.61 262.03 81.6 262.03 78.5 257.88 58.55 257.24"/><polygon class="cls-42" points="17.97 258.93 15.23 262.03 58.14 262.03 16.51 261.39 17.97 258.93"/><path class="cls-49" d="M592.6,342.68h0a4.58,4.58,0,0,1-.1.59S586.78,346,581.43,346s-18.34-1.26-23.19-1.26-11.69.9-13.21,0a1.44,1.44,0,0,1-.52-.57c-1.45-2.71,2.24-11.69,2.24-11.69s5.4-4.71,8.5-6.23,12.13,4,12.7,4.35l0,0a15.58,15.58,0,0,0,2.24,1.41h0a44.53,44.53,0,0,0,6.26,2.7c6.31,2.23,14.12,4.22,15.34,5.43a2.68,2.68,0,0,1,.77,1.75A4.24,4.24,0,0,1,592.6,342.68Z" transform="translate(-322.1 -60.31)"/><path class="cls-50" d="M592.6,342.68h0a4.58,4.58,0,0,1-.1.59S586.78,346,581.43,346s-18.34-1.26-23.19-1.26H545l-.52-.57c-1.45-2.71,2.24-11.69,2.24-11.69s5.4-4.71,8.5-6.23,12.13,4,12.7,4.35l0,0a15.58,15.58,0,0,0,2.24,1.41c-.29,0-6.81.06-8.1,1.34s-7,8.73-7,8.73,20.28,2.63,25.72,2.63,11.74-2.82,11.74-2.82Z" transform="translate(-322.1 -60.31)"/><path class="cls-51" d="M564.74,334s13.52,4.4,17.79,5.38a15.76,15.76,0,0,0,7.44,0s-12.22-3.43-14.75-4.34-6.4-2.52-6.4-2.52Z" transform="translate(-322.1 -60.31)"/><path class="cls-52" d="M559.62,324.64c-4,5.94-12.87,7.81-12.87,7.81s-.37,1.25-1.1-3.23-8.65-21.25-10-28.6S535,282.16,535,280.7s-1.1-5.21-1.1-6.16,1.68-1.68,1.68-2.78-5.37-27.86-5.37-27.86l.69-5.46,3.59-28.69s7.91-14.67,14.66-1.17c6.6,13.21,9.13,49.58,7.2,70.36,0,.45-.08.89-.12,1.32C554.1,300.78,559.62,324.64,559.62,324.64Z" transform="translate(-322.1 -60.31)"/><path class="cls-53" d="M496.5,205.35c-.62,2.27,8.25,7,8.25,7l1.61-3.51s-6.52-8.51-7.55-7.48A18.4,18.4,0,0,0,496.5,205.35Z" transform="translate(-322.1 -60.31)"/><path class="cls-53" d="M492.9,156.61s1.56,11.09,2,12.32,1.58,3.84,3.65,3.84,4.42-6.8,4.42-6.8Z" transform="translate(-322.1 -60.31)"/><path class="cls-54" d="M537.21,64.49c-.68,0-2.87.66-2.88,2s1.78,1.9,2.93,2.13C539.55,69.08,538.94,64.49,537.21,64.49Z" transform="translate(-322.1 -60.31)"/><path class="cls-55" d="M530.7,119S550,107.17,552,103.92s3.87-28.71,3.87-28.71l-1.7-1.1s-1.73,1.71-3,1.71-2.22-.77-2.64-.66a5.17,5.17,0,0,1-2.29-.08c-.75-.24-.88-.46-1.55-.46s-2,0-2.28-.27-1-1.38-1.57-1.38a6.43,6.43,0,0,1-3.39-1.32c-.84-.84-.18-10.06.64-10.88s12.89-.71,18.89,1.81c1.83.77,6.14,8.7,6.65,9.75s2.87,9.43,5.17,19.42,1.45,18.86,1.1,19.22-12.42,16.41-16.38,18.89-6.89,5.71-10.48,4.76-13.44-9-13.44-9Z" transform="translate(-322.1 -60.31)"/><path class="cls-55" d="M503.62,126.11v18.08l-6.14,8.66-6.87-9.14s-6.68-3.08-19.87-8.36-25.58-20.89-25.58-20.89c-1-13.16,15.94-36.82,16.44-37.32a34.1,34.1,0,0,1,10.66-5.89,43.6,43.6,0,0,1,12.23-1.87.16.16,0,0,1,.09,0s.06,0,.1.06c1.05,1,2.39,9.53,2.07,10.35a4.4,4.4,0,0,1-1.47,1.76c-.56.58-1.69,1.78-2.56,2.64a14.31,14.31,0,0,1-2.33,1.62h0a26.82,26.82,0,0,1-3.19,1.72c-.84.29-2.82.43-3.25,0s.33-1.84.42-2A9.74,9.74,0,0,1,470.17,87c-2.3.15-4.49-1.75-4.49-1.75a40.83,40.83,0,0,0,.15,11.4,63.71,63.71,0,0,0,3.13,12.3,30.62,30.62,0,0,0,8.81,4.52c5.87,2.07,14.59.94,19.71,4.08A14,14,0,0,1,503.62,126.11Z" transform="translate(-322.1 -60.31)"/><path class="cls-54" d="M531.3,126s8.77,5.21,13.94,5.21S565.1,117.6,568.07,111s-2.68-32.52-2.68-32.52,6.93,23.84,6.07,31.39-27.28,31.58-27.28,31.58l-.89,2.77L529.5,126.1Z" transform="translate(-322.1 -60.31)"/><path class="cls-54" d="M503.62,126.1s-1.69,18.05-5.12,21.49-7.9-3.89-7.9-3.89l-6.38-1s10,19,16.13,25.1C500.35,167.75,505.68,152.54,503.62,126.1Z" transform="translate(-322.1 -60.31)"/><path class="cls-54" d="M492.76,145.27a93.09,93.09,0,0,1-27.59-12.05c-13.53-8.9-20-18.76-20-18.76s26.72,25.25,46.4,26.3Z" transform="translate(-322.1 -60.31)"/><path class="cls-56" d="M502.63,111.36l-1.37,7.74s7.57,7.75,13.15,9.43,11,2.05,11.74,1.32.28-3.15.28-3.15l-22-16.86Z" transform="translate(-322.1 -60.31)"/><path class="cls-55" d="M503.08,104.38l-4.22-8.81,2.4-13.25L511,76l13.84.82,3.48,11.27s-.37,6.87.07,8.29a29.25,29.25,0,0,1,1.37,4.66c.22,1.65-1.09,13.79-1.09,13.79l-4.41,4.86L511,116.88Z" transform="translate(-322.1 -60.31)"/><path class="cls-54" d="M525.89,82.52A23,23,0,0,0,512.06,84c-7.09,3.23-6,18.08-4,23.73s6.22,6.69,6.22,6.69H507L498.5,99.35l3.14-17.87,16.92-9s6.73,4.56,7,4.25S525.89,82.52,525.89,82.52Z" transform="translate(-322.1 -60.31)"/><path class="cls-57" d="M511.62,79.45s6.09-.76,10.09,1l1.51-2.27a74.75,74.75,0,0,1,4.36,7.55l5.17,3.67-1-3.15,2.82,2.48s-.76-11.29-3.66-14.18S517,76.05,517,76.05Z" transform="translate(-322.1 -60.31)"/><path class="cls-56" d="M519.81,102.77a23.19,23.19,0,0,0-1,3c0,.48,1.79.17,2.86.72a3.6,3.6,0,0,0,4.07-.25,3,3,0,0,0,.7-1,3.78,3.78,0,0,1-3.64.21c-1.72-.73-3-.21-3.28-.45S519.81,102.77,519.81,102.77Z" transform="translate(-322.1 -60.31)"/><path class="cls-58" d="M525.6,95.57l.26,1.56s1.6.72,2.18.3.31-2,.31-2l-.65-.76Z" transform="translate(-322.1 -60.31)"/><path class="cls-58" d="M512.06,96.25s.37,1.28,1.08,1.55a6.48,6.48,0,0,0,3.22.26c.92-.32,1-1.09,1.1-2s-1-1.49-1-1.49A32.06,32.06,0,0,0,512.06,96.25Z" transform="translate(-322.1 -60.31)"/><path class="cls-49" d="M503.62,339.62a9.76,9.76,0,0,1-.26,1.59c-.49,1.2-2,1.51-4,3s-4.91,6.1-5.16,7.63-2,2.13-9.14,3.06-15.57-3.39-15.57-3.39.16-1,.37-2.33l.19-1.21c.29-1.82,7.17-7.3,10.17-9.47a35.07,35.07,0,0,0,5.14-5l.4-.47c.57-.66.95-1.16,1.08-1.31l0-.06s6-6.63,8.32-6.26,4.38,4.06,4.38,4.06S503.82,338.4,503.62,339.62Z" transform="translate(-322.1 -60.31)"/><path class="cls-50" d="M503.62,339.62a14.72,14.72,0,0,1-.58,2.17c-.48,1.2-1.72.93-3.72,2.38s-4.91,6.1-5.16,7.63-2,2.13-9.14,3.06-15.57-3.39-15.57-3.39.16-1,.37-2.33a34,34,0,0,0,9.76,3.53c4.92.79,13.49.52,14.15-2.45s6.13-8.78,6.19-9.16-.6-4-2.69-5.71-11.92-1.91-11.92-1.91v0l.4-.47,1.08-1.31,0-.06s8.23-2.38,11.39-1.28C501,331.28,503,338.21,503.62,339.62Z" transform="translate(-322.1 -60.31)"/><path class="cls-51" d="M472.1,346.25s7.86,1.9,12.57.39,10.66-10.53,10.66-10.53-5.32,6-7.08,6.26S478,341.1,478,341.1Z" transform="translate(-322.1 -60.31)"/><path class="cls-56" d="M516.64,94.17a3.4,3.4,0,0,0-1.52-1c-.81-.19-2.38,1.52-3.3,3.24Z" transform="translate(-322.1 -60.31)"/><path class="cls-59" d="M511.62,96.61s2.7-3.23,6.16-2.37Z" transform="translate(-322.1 -60.31)"/><ellipse class="cls-59" cx="194.27" cy="35.76" rx="1.1" ry="1.67"/><path class="cls-59" d="M528.4,95.91c0,.77-.36,1.4-.82,1.4s-.82-.63-.82-1.4.37-1.4.82-1.4S528.4,95.13,528.4,95.91Z" transform="translate(-322.1 -60.31)"/><path class="cls-59" d="M512.57,97.49a8.21,8.21,0,0,0,3.79.57A4.44,4.44,0,0,1,512.57,97.49Z" transform="translate(-322.1 -60.31)"/><path class="cls-56" d="M528.42,94.39s-1.42-2-2.37-1a2.57,2.57,0,0,0-.53,1.8l.08.33Z" transform="translate(-322.1 -60.31)"/><path class="cls-59" d="M516.57,94.39a5.13,5.13,0,0,0-1.3-1.24,7.71,7.71,0,0,1,2.19,1.13Z" transform="translate(-322.1 -60.31)"/><path class="cls-59" d="M525.6,95.57l4.19-1.29s-1.93-.88-4.19,1.09Z" transform="translate(-322.1 -60.31)"/><path class="cls-59" d="M528.24,94.39A7.33,7.33,0,0,0,527,93.15a4.33,4.33,0,0,1,1.69,1.24Z" transform="translate(-322.1 -60.31)"/><path class="cls-59" d="M528.35,96.9a1.41,1.41,0,0,1-1.15.65S528.35,97.93,528.35,96.9Z" transform="translate(-322.1 -60.31)"/><path class="cls-60" d="M515.57,96.39a.32.32,0,0,1-.33.32.32.32,0,1,1,0-.64A.32.32,0,0,1,515.57,96.39Z" transform="translate(-322.1 -60.31)"/><circle class="cls-60" cx="204.66" cy="35.76" r="0.32"/><path class="cls-59" d="M516.36,89.33s2.06-2,1.83-2.28-1.31.84-1.31.84,1-1.64.59-1.64-1.11,1.1-1.11,1.1l-.23-1.1s-6,2.55-7.78,4.81v1.48S513,89.4,516.36,89.33Z" transform="translate(-322.1 -60.31)"/><path class="cls-61" d="M524.41,91.55s2.27,9.06,2,13.45a48.81,48.81,0,0,0-1.49-13.91Z" transform="translate(-322.1 -60.31)"/><path class="cls-59" d="M524.41,91.55s1.74-2.82,3.29-3.73c.42-.25,0,.63,0,.63a5,5,0,0,1,1.68-.71c.55,0-1,2.19-1,2.19a7.5,7.5,0,0,0-3.91,1.82Z" transform="translate(-322.1 -60.31)"/><path class="cls-59" d="M520.2,106s2.15-.45,2.82.22-.51.66-.75.42a3.18,3.18,0,0,0-.68-.46Z" transform="translate(-322.1 -60.31)"/><path class="cls-61" d="M525.41,108.4s-.15,1-.83,1.24a15.6,15.6,0,0,1-5.26-.17,23.31,23.31,0,0,1-4.07-2.43l-.49.21a29.21,29.21,0,0,0,4.65,2.72,20.9,20.9,0,0,0,5.46.13C525.35,109.91,525.41,108.4,525.41,108.4Z" transform="translate(-322.1 -60.31)"/><path class="cls-61" d="M516,106.43c0-.4-1.71.86-1.53,1.27S516,106.82,516,106.43Z" transform="translate(-322.1 -60.31)"/><path class="cls-62" d="M534.33,86c-.33-1.89-1.84-9.79-5.16-11.49a2.88,2.88,0,0,0-1.31-.32,11.59,11.59,0,0,0-2.64.43h0c-7.1,1.77-22.05,8.41-22.05,8.41,1.76,7.59-.77,12.11-1.38,12.71s.06,4.72-.33,5.77-.88,2.41-.88,2.41l-6.16-13.58h-1.64l7.14-8.68c5.38-9.67,15.43-14.61,20.33-15.86a6.7,6.7,0,0,1,2.43-.3c1.75.3,4,3,5.18,4.54.52.71.85,1.21.85,1.21A12.73,12.73,0,0,1,532,74.77C532.92,76.33,534.07,84.13,534.33,86Z" transform="translate(-322.1 -60.31)"/><path class="cls-54" d="M503.93,103.81s-3.27-6.6-9-5.59,1,13.51,5.68,13.47,4.3-4.17,4.3-4.17Z" transform="translate(-322.1 -60.31)"/><path class="cls-56" d="M502.63,105.19s-5.07-3.73-8.27-3.39C494.36,101.8,499.35,106.58,502.63,105.19Z" transform="translate(-322.1 -60.31)"/><path class="cls-56" d="M501,104.91s.81,2.82-.3,3.75-3.19-.92-3.19-.92,1.77,1.06,2.46.29-.4-3.39-.4-3.39Z" transform="translate(-322.1 -60.31)"/><path class="cls-63" d="M503.15,83S518.71,71.79,529,71.79l-.27-.54S519.15,71,503.15,83Z" transform="translate(-322.1 -60.31)"/><path class="cls-63" d="M525.41,67.25S513.87,68.57,502.63,82c0,0,10.75-12,23.26-14.27Z" transform="translate(-322.1 -60.31)"/><path class="cls-63" d="M503.15,83s-2.4,6.1-8.4,8.06l.47,1s6.1-2.77,8.16-8Z" transform="translate(-322.1 -60.31)"/><path class="cls-64" d="M500.31,81s-.11-5.3.95-6.36-.48,5.58-.48,5.58Z" transform="translate(-322.1 -60.31)"/><path class="cls-57" d="M503.62,107.06s1.18,11.21,8.33,17.42,18.22,2.67,19.35,1.54a14.61,14.61,0,0,0,2.2-3.79L530.7,119l-12.14-.33-10.51-6L504,107Z" transform="translate(-322.1 -60.31)"/><path class="cls-65" d="M502.63,101.83s2.87,7,5.71,9.86c3.72,3.73,12.72,3.41,13.37,2.77a7,7,0,0,0,.95-2.77h1.27s2,3.45,3,3.45,2.13-5.34,2.13-5.34,1.76,8.58,4.45,12.43L530.7,119l1.5,3.34a47.17,47.17,0,0,0-11.34,1c-6.44,1.32-14.4-5.12-15.91-10.78S502.63,101.83,502.63,101.83Z" transform="translate(-322.1 -60.31)"/><polygon class="cls-57" points="199.61 64.23 198.6 58.78 200.57 63.9 199.61 64.23"/><polygon class="cls-57" points="197.33 63.25 197.33 61.51 196.47 63.68 197.33 63.25"/><path class="cls-66" d="M529.5,74.5h-.33a2.88,2.88,0,0,0-1.31-.32,11.59,11.59,0,0,0-2.64.43h0s.86-5.36-.34-7.37c-.58-1-1.79-2.12-4.63-1.45a6.7,6.7,0,0,1,2.43-.3c1.75.3,4,3,5.18,4.54C528.79,72.37,529.5,74.5,529.5,74.5Z" transform="translate(-322.1 -60.31)"/><path class="cls-63" d="M521.71,114.46s3.8,7.49,4.44,8.12h-.25l-4.45-8Z" transform="translate(-322.1 -60.31)"/><polygon class="cls-63" points="188.94 53.13 189.53 60.69 190.48 61.28 189.4 53.32 188.94 53.13"/><path class="cls-67" d="M531.23,117.52a12,12,0,0,1-7.43,1.58c-4.76-.33-8.33,1.48-10.69.82a33.48,33.48,0,0,1-5.1-2l2.33,2.19s2.84,1.52,4.84,1.11c1.51-.31,3.6-2.7,7.48-1.81,6.52,1.5,9.19-.27,9.19-.27Z" transform="translate(-322.1 -60.31)"/><path class="cls-54" d="M518.07,88.88a9,9,0,0,1,3.38,4.27,48.27,48.27,0,0,1,1.21,8.19s-2.45-7.44-3.81-8.8S518.07,88.88,518.07,88.88Z" transform="translate(-322.1 -60.31)"/><path class="cls-51" d="M522.66,95.75l.42,8.89s2.41.4,3.07-.26c0,0-.47-6-1-7.12S522.66,95.75,522.66,95.75Z" transform="translate(-322.1 -60.31)"/><path class="cls-56" d="M487.3,136.79l11.2,23.46S498.67,145.05,487.3,136.79Z" transform="translate(-322.1 -60.31)"/><path class="cls-54" d="M467.44,115.41s1.61-4.91-.66-11.8-1.1-18.4-1.1-18.4-.28,14,2.32,18.71S467.44,115.41,467.44,115.41Z" transform="translate(-322.1 -60.31)"/><path class="cls-56" d="M542.35,141.73a36.73,36.73,0,0,1,4.18-13s-2.64,10.7-2.64,17.08Z" transform="translate(-322.1 -60.31)"/><path class="cls-54" d="M553.24,74.5s4.17,2.18,7.29-.94a6,6,0,0,1-5.28-.59Z" transform="translate(-322.1 -60.31)"/><path class="cls-54" d="M465.38,84.7a6.48,6.48,0,0,0,6.46,1.55A11.7,11.7,0,0,0,477.19,83V84s-2.53,1.32-2.86,2.86,2.86.75,2.86.75-2.79.86-3.45.2a1.56,1.56,0,0,1-.36-1.53A5.78,5.78,0,0,1,469,87.38,7.15,7.15,0,0,1,465.38,84.7Z" transform="translate(-322.1 -60.31)"/><path class="cls-54" d="M551.48,71.25s0-3.44,4.34-4.76Z" transform="translate(-322.1 -60.31)"/><path class="cls-54" d="M553,69.55s3.21-.64,3.85.49-4.49,5.28-5.4,5.53a3.79,3.79,0,0,1-1.84,0s1.87,1,4.73-.95,3.42-3.87,3.08-4.91c-.57-1.72-4.21-.39-4.21-.39Z" transform="translate(-322.1 -60.31)"/><path class="cls-51" d="M486.75,79.82a4.4,4.4,0,0,1-1.47,1.76c-.56.58-1.69,1.78-2.56,2.64a14.31,14.31,0,0,1-2.33,1.62,8.76,8.76,0,0,0-.26-4.86c-.5-1-4.6-4.51-4.56-5,.06-.79,1.22-1.5,1.91-1.5s.8-.4,1.71-1.31,3.08-1.32,3.52-2.42a2.66,2.66,0,0,1,1.78-1.39.16.16,0,0,1,.09,0s.06,0,.1.06C485.73,70.44,487.07,79,486.75,79.82Z" transform="translate(-322.1 -60.31)"/><path class="cls-51" d="M537.35,71.65a6.44,6.44,0,0,0,2.94.22c1-.35,2.36,1.1,3,1.1s2-.13,2.44.28,4.49.86,4.82.86-.65-7,3.45-11.11c2-2-14.59-2.44-15.44-2S536.88,69.51,537.35,71.65Z" transform="translate(-322.1 -60.31)"/><path class="cls-54" d="M540.74,73a4.64,4.64,0,0,1-1-2c0-.79.28-3.68.28-3.68s.22,3.36.31,4a9.92,9.92,0,0,0,.92,1.92Z" transform="translate(-322.1 -60.31)"/><path class="cls-54" d="M544.59,74.62a3.85,3.85,0,0,1-.7-2.29c0-1.43.48-5.08.48-5.08l.1,6,.57,1.36Z" transform="translate(-322.1 -60.31)"/><path class="cls-54" d="M548.43,75.16a9.47,9.47,0,0,1-.62-2.83,21.53,21.53,0,0,1,.62-3.72,22.17,22.17,0,0,0-.31,3.83,13.12,13.12,0,0,0,1,2.89Z" transform="translate(-322.1 -60.31)"/><path class="cls-54" d="M483.32,83.61a12.25,12.25,0,0,0-.62-3.24,20.28,20.28,0,0,0-2.84-3.23,20.81,20.81,0,0,1,3.28,3.24,7.66,7.66,0,0,1,.44,3Z" transform="translate(-322.1 -60.31)"/><path class="cls-68" d="M539.05,212.38c0,10.71-7,27.34-7,27.34l-1.32.11s-1.17,12.58-4,22.1a87.08,87.08,0,0,1-9.34,20.72c-.27.44-.52.87-.78,1.28-3.22,5.29-8.79,26.68-11.77,34a25.46,25.46,0,0,0-1.57,13.79s-2.64,3.22-5.57,3.22-10.29-5.87-10.29-5.87c-1.17-21,3.85-47.71,5.82-51.89s3.3-6.37,3.3-7.55,1.83-.8,2.56-1.54,5.75-30.57,5.75-31.59-1.86-3.23-1.86-4.39,1.86-23.53,1.86-23.53S539.05,201.68,539.05,212.38Z" transform="translate(-322.1 -60.31)"/><polygon class="cls-69" points="194.7 158.23 195.96 188.3 195.38 192.26 197.1 192.26 196.66 188.3 198.14 162.15 194.7 158.23"/><polygon class="cls-70" points="195.3 159.78 196.47 187.69 195.88 191.66 197.61 191.66 197.17 187.69 198.65 161.55 195.3 159.78"/><polygon class="cls-69" points="221.69 154.51 222.17 170.05 223.77 174.89 220.64 175.72 221.52 170.27 219.5 156.77 221.69 154.51"/><polygon class="cls-70" points="222.34 153.69 222.83 169.22 224.43 174.06 221.3 174.89 222.18 169.44 220.16 155.94 222.34 153.69"/><path class="cls-54" d="M485.69,81.22a20.09,20.09,0,0,0-.91-4.69,13.57,13.57,0,0,0-1.2-2.64,25.26,25.26,0,0,1,2.11,3.85A7.13,7.13,0,0,1,486,81Z" transform="translate(-322.1 -60.31)"/><path class="cls-71" d="M530.7,239.82a48.41,48.41,0,0,0,7.6-20.36l2.22-1.64s-4.41,20.2-10.29,26.08Z" transform="translate(-322.1 -60.31)"/><path class="cls-69" d="M551.14,213.56s-14,13.78-26.31,18.32-21.18-8.72-21.18-8.72l1.19-14.58,35.51,5,8.82-5Z" transform="translate(-322.1 -60.31)"/><path class="cls-72" d="M551.37,207.66a29.94,29.94,0,0,0-4.84,4.07c-2.81,2.8-8.8,11.43-20,11.43a13.12,13.12,0,0,1-3.39-.46c-10-2.61-19.28-15.6-21.91-18.23-2.93-2.93-4.77.88-4.77.88V179.18a32.46,32.46,0,0,0-1.64-10.24c.13.28,1.77,3.49,3.11,2.14,2.11-2.1,4.41-7.51,5.65-28.08,1.21-20-5.71-25.18-6.12-25.47l1.41.58.51.21h0l1.84.77s11.2,8.06,17.29,9.58,8-1,8-1l1.5-.41,1.91-.52s13.54,16,15.52,20.2-.29,43.29,2.06,49.61S551.37,207.66,551.37,207.66Z" transform="translate(-322.1 -60.31)"/><ellipse class="cls-73" cx="206.34" cy="93.23" rx="12.49" ry="14.84"/><path class="cls-74" d="M518.83,157.5l0-.47,2.63-.1a.41.41,0,0,0,.3-.1.48.48,0,0,0,.07-.33l0-.61a.4.4,0,0,0-.08-.26.37.37,0,0,0-.26-.07l-2.13.08a.61.61,0,0,1-.44-.11.63.63,0,0,1-.14-.44l-.11-3a4.6,4.6,0,0,1,0-.55.71.71,0,0,1,.13-.34.59.59,0,0,1,.28-.16,2.34,2.34,0,0,1,.45-.06l2-.07a2,2,0,0,1,.44,0,.53.53,0,0,1,.27.16.56.56,0,0,1,.14.32,3.39,3.39,0,0,1,.06.54l.08,2.35-.79,0-.06-1.5a.76.76,0,0,0-.11-.48.45.45,0,0,0-.38-.11l-1.23.05a.85.85,0,0,0-.25,0,.27.27,0,0,0-.15.1.37.37,0,0,0-.08.19,1.32,1.32,0,0,0,0,.3l.08,1.91a.38.38,0,0,0,.09.28.38.38,0,0,0,.27.07l2.15-.08a.51.51,0,0,1,.4.11.68.68,0,0,1,.13.44l0,1.07a2.92,2.92,0,0,1,0,.33.51.51,0,0,1-.1.21.4.4,0,0,1-.19.11,1.23,1.23,0,0,1-.31,0Z" transform="translate(-322.1 -60.31)"/><path class="cls-74" d="M524.16,155.65l.06,1.65-.85,0-.25-6.5,2.92-.11a1.53,1.53,0,0,1,.39,0,.53.53,0,0,1,.25.15.68.68,0,0,1,.15.32,3.71,3.71,0,0,1,0,.55l.12,3.07a1.84,1.84,0,0,1,0,.36.38.38,0,0,1-.11.22.37.37,0,0,1-.2.12,1.3,1.3,0,0,1-.31,0Zm2-3a2,2,0,0,0,0-.31.35.35,0,0,0-.1-.19.38.38,0,0,0-.19-.09h-.31l-1.44.05.11,3.08,1.64-.06a.45.45,0,0,0,.32-.11.42.42,0,0,0,.08-.33Z" transform="translate(-322.1 -60.31)"/><path class="cls-74" d="M528.31,157.15a.76.76,0,0,1-.51-.13.73.73,0,0,1-.16-.52l-.18-4.76a4.6,4.6,0,0,1,0-.55.62.62,0,0,1,.13-.34.46.46,0,0,1,.27-.16,2.23,2.23,0,0,1,.45-.06l1.88-.07a2.06,2.06,0,0,1,.45,0,.54.54,0,0,1,.29.15.64.64,0,0,1,.15.32,2.72,2.72,0,0,1,0,.55l.18,4.77a.54.54,0,0,1-.62.69Zm2.1-4.66a.76.76,0,0,0-.13-.49.53.53,0,0,0-.42-.1l-1.11,0a.85.85,0,0,0-.25,0,.24.24,0,0,0-.15.1.47.47,0,0,0-.08.19,2.82,2.82,0,0,0,0,.31l.14,3.69a.35.35,0,0,0,.41.4l1.35,0a.35.35,0,0,0,.38-.43Z" transform="translate(-322.1 -60.31)"/><path class="cls-74" d="M535.4,156.88c-.18,0-.27-.11-.28-.34l0-.88a.49.49,0,0,0-.14-.41.73.73,0,0,0-.44-.1l-1.62.06.06,1.76-.82,0-.25-6.5,2.94-.11a1.84,1.84,0,0,1,.43,0,.52.52,0,0,1,.27.15.73.73,0,0,1,.14.32,2.64,2.64,0,0,1,.05.55l.1,2.61a1.39,1.39,0,0,1,0,.37.73.73,0,0,1-.12.25.58.58,0,0,1-.19.15,1.12,1.12,0,0,1-.29.07,1.16,1.16,0,0,1,.29.05.43.43,0,0,1,.21.11.56.56,0,0,1,.13.23,1.22,1.22,0,0,1,.05.37l0,.9a.39.39,0,0,0,0,.21.65.65,0,0,0,.12.11Zm-.44-4.57a.9.9,0,0,0-.11-.48.48.48,0,0,0-.38-.11l-1.72.07.11,3,1.62-.06a.61.61,0,0,0,.43-.12.49.49,0,0,0,.12-.4Z" transform="translate(-322.1 -60.31)"/><path class="cls-74" d="M537.87,156.79l-.19-5c0-.1-.06-.14-.18-.14l-1.29,0-.05-1.32,3.73-.14.05,1.32-1.29,0a.18.18,0,0,0-.14,0,.16.16,0,0,0,0,.11l.19,5Z" transform="translate(-322.1 -60.31)"/><path class="cls-69" d="M528.07,127.25c-1,2.61-3.89,8.65-10,6.56-7.6-2.59-18.31-15.09-18.64-15.48l1.84.77s11.2,8.06,17.29,9.58,8-1,8-1Z" transform="translate(-322.1 -60.31)"/><path class="cls-53" d="M506.36,130.32s14,12,24.09,15.73C530.45,146.05,518.23,144.42,506.36,130.32Z" transform="translate(-322.1 -60.31)"/><path class="cls-53" d="M503.43,145.92s6.55,30.37,14.64,46.14,12.38,21.5,12.38,21.5-12-14.37-17.68-27.32C508.09,175.48,503.43,145.92,503.43,145.92Z" transform="translate(-322.1 -60.31)"/><path class="cls-53" d="M544.44,160.09s-3.48,35-8.17,44.38C536.27,204.47,544.44,189.92,544.44,160.09Z" transform="translate(-322.1 -60.31)"/><path class="cls-75" d="M523.18,222.7c-10-2.61-19.28-15.6-21.91-18.23-2.93-2.93-4.77.88-4.77.88V179.18a32.46,32.46,0,0,0-1.64-10.24c.13.28,1.77,3.49,3.11,2.14,2.11-2.1,4.41-7.51,5.65-28.08,1.21-20-5.71-25.18-6.12-25.47l1.41.58,7.45,5.45s4.35,17.45-1.42,43.1,13.52,54.58,18.17,56Z" transform="translate(-322.1 -60.31)"/><path class="cls-71" d="M549.83,219.46s7.25,32.36,4.47,52.3C554.3,271.76,559.43,256,549.83,219.46Z" transform="translate(-322.1 -60.31)"/><path class="cls-71" d="M506.36,235.84s-.14,24.92,1.32,35.92C507.68,271.76,502.84,254.46,506.36,235.84Z" transform="translate(-322.1 -60.31)"/><polygon class="cls-71" points="209.63 167.03 208.24 182.76 209.63 181.93 209.63 167.03"/><path class="cls-71" d="M511.49,291.34s-8.13,26.94-15.17,34.63C496.32,326,508,314.44,511.49,291.34Z" transform="translate(-322.1 -60.31)"/><path class="cls-71" d="M539.05,277s-2.78,28.3,9.53,45.16A113.1,113.1,0,0,1,539.05,277Z" transform="translate(-322.1 -60.31)"/><path class="cls-76" d="M517.4,282.65c-.27.44-.52.87-.78,1.28-3.22,5.29-8.79,26.68-11.77,34a25.46,25.46,0,0,0-1.57,13.79s-2.64,3.22-5.57,3.22-10.29-5.87-10.29-5.87c-1.17-21,3.85-47.71,5.82-51.89s3.3-6.37,3.3-7.55,1.83-.8,2.56-1.54,5.75-30.57,5.75-31.59-1.86-3.23-1.86-4.39,1.86-23.53,1.86-23.53l7.37,7.59s-7.14,46.06-7.14,56.62C505.08,281.43,514.13,282.53,517.4,282.65Z" transform="translate(-322.1 -60.31)"/><path class="cls-76" d="M559.62,324.64c-4,5.94-12.87,7.81-12.87,7.81s-.37,1.25-1.1-3.23-8.65-21.25-10-28.6S535,282.16,535,280.7s-1.1-5.21-1.1-6.16,1.68-1.68,1.68-2.78-5.37-27.86-5.37-27.86l.69-5.46,4-6.62s.44,27.91,5.56,39.94c5,11.78,15.45,7.37,15.85,7.18,0,.45-.08.89-.12,1.32C554.1,300.78,559.62,324.64,559.62,324.64Z" transform="translate(-322.1 -60.31)"/><path class="cls-70" d="M503.62,339.62a17.29,17.29,0,0,1,.62,3.44c0,1.23-5.72,1.55-7.92,6.32s-2.93,6-4,7-8.64,2.34-15.17,2.34c-5.94,0-7.74-2.64-7.74-2.64v-4.65a6.43,6.43,0,0,1,5.54-3.26c3.89,0,8.28,5.93,9.6,6.15a9.81,9.81,0,0,0,8.17-3.06c3.22-3.21,4.32-6.24,6.44-8.35A20.33,20.33,0,0,1,503.62,339.62Z" transform="translate(-322.1 -60.31)"/><path class="cls-70" d="M544.27,343.38s-.59,3.51-.59,4.39,15-.55,19.05-.55,13.19,1.93,21.62.83,9.9-4.67,9.9-4.67-1.78-3.89-2.43-3.24-3,4.09-3,4.09-5,1.34-14.14,1.34S544.27,343.38,544.27,343.38Z" transform="translate(-322.1 -60.31)"/><path class="cls-51" d="M471.28,111.32A33.29,33.29,0,0,0,481.61,115c6.1,1.1,11.64.87,14.56,2.55a11.19,11.19,0,0,1,4.24,5.06s-3.69-2.76-11.38-4.25S475.29,115.33,471.28,111.32Z" transform="translate(-322.1 -60.31)"/><path class="cls-51" d="M462.2,77.85s-13.45,17.94-16.09,35.59Z" transform="translate(-322.1 -60.31)"/><path class="cls-51" d="M532.53,118.52s9.67-.84,15-4.06,7-10.54,6.3-10.54-3.34,2.43-3.34,2.43Z" transform="translate(-322.1 -60.31)"/><path class="cls-54" d="M555.56,78.45l10.69,3.1L563.78,73l-3.25.59s-1.93,1.58-3,1.58-1.72.07-1.72.07Z" transform="translate(-322.1 -60.31)"/><polygon class="cls-77" points="359.41 79.89 341.4 95.7 344.43 97.04 362.45 80.11 359.41 79.89"/><path class="cls-78" d="M607.34,216.31s-14,7.64-22.16,8.89-10.38-.52-10.38-.52l.33-1.43a111.13,111.13,0,0,1,5.7-17.14c0-1-2.43-3.42-4.38-5.23-1.32-1.22-2.42-2.16-2.42-2.16s7.2-2.94,14.26-5.19c1.19-.38,2.38-.74,3.53-1.06A37.28,37.28,0,0,1,599,191v.18c0,.28-.11.89-.18,1.69,0,.21,0,.42-.06.65-.24,2.82-.46,7.21.25,9C600,205.37,606.54,214.08,607.34,216.31Z" transform="translate(-322.1 -60.31)"/><path class="cls-79" d="M599,191v.18l-.18,1.69-.06.65s-10.37,1.87-13.23,5.53c-2.22,2.85-1.31,5.33-3.58,12.28a20,20,0,0,0-.44,12l-6.32-.15a111.13,111.13,0,0,1,5.7-17.14c0-1-2.43-3.42-4.38-5.23l11.84-7.35.84-.52,2.69-.54Z" transform="translate(-322.1 -60.31)"/><path class="cls-54" d="M641.57,176.07l.48.06c1.76.23,7.82,1,8.85.59,1.2-.45,3.05-4.93,3.55-5.43s4.45-1.37,4.45-2.47-3-3.09-3-3.09a66.94,66.94,0,0,0-8.06-1.29c-2,0-6.86,6.19-6.86,6.19l-.33,5.7Z" transform="translate(-322.1 -60.31)"/><path class="cls-78" d="M655.07,162.66c-2,.93-5.56,2.19-5.82,2.45S648.37,169,646,170s-4.39,6.09-4.39,6.09l-2.15,1.61h0c-5.85,4.36-21.89,15.94-26.94,16.13-1.2.05-6.82-2.76-12.57-7.27a53.25,53.25,0,0,1-7.62-7.21,94.27,94.27,0,0,1-12.52-19.87s4.34-2.12,7.63-2.12c3.44,0,21.72,23.16,24.57,23.16s26.08-8.8,27.15-9.88,5-7.62,7.19-8.82,11-3,11.46-3S657,161.72,655.07,162.66Z" transform="translate(-322.1 -60.31)"/><path class="cls-80" d="M583.74,161.76S599.66,173.5,603.32,175s4.13,2,4.13,2l4.5,3.56s-1.91,10.74-.59,13.05l-13.52-5.37Z" transform="translate(-322.1 -60.31)"/><path class="cls-81" d="M560.39,157.35c-1.46,3.54-11.59,9.74-12.36,10.5s3,2.78,3,2.78-4.29-.65-4.29-2.19,1.8-1.75,1.8-3.4-9.11-1.1-10.42-4.86,4.72-7.42,4.72-9.76-6.59-8.09-8.34-18.73a19.6,19.6,0,0,1,.71-9c2.19-7,7.71-12.54,12-12.54,4.6,0,9.16,4.78,11,7,.6.7.93,1.17.93,1.17v.7S561.86,153.81,560.39,157.35Z" transform="translate(-322.1 -60.31)"/><path class="cls-82" d="M536.77,168.66s-3.34-11-2.16-11.82c1.6-1.15,4.88,10.61,4.88,10.61l.53.19s.87-8.83,2.16-9.32c1.64-.63,0,12.31,0,12.31Z" transform="translate(-322.1 -60.31)"/><path class="cls-54" d="M540.28,181.31a37.59,37.59,0,0,0,2.87-4.62c.56-2,.94-4.26.43-4.9s-4.93-3-4.93-3l-1.88-.1-3.81.55v3.29Z" transform="translate(-322.1 -60.31)"/><polygon class="cls-54" points="244.11 130.25 245.75 132.37 250.47 131.68 251.93 125.1 244.55 115.59 238.79 110.84 244.11 130.25"/><path class="cls-54" d="M591.76,170.63c0,.81-15.28,8.56-20.24,6.81s-8.72-8.85-8.72-8.85,3.22-3.7,4.8-5.84a4.74,4.74,0,0,0,.86-1.4c0-.74-2-4-2-4l7.3,1.16,6,1S591.76,169.83,591.76,170.63Z" transform="translate(-322.1 -60.31)"/><path class="cls-56" d="M579,160a15,15,0,0,1-11.4,2.76,4.74,4.74,0,0,0,.86-1.4c0-.74-2-4-2-4l7.3,1.16Z" transform="translate(-322.1 -60.31)"/><path class="cls-83" d="M558.28,117.22c-1.72.7-5.35,2.49-6.89,5.76,0,0-9.14-4.2-13.45-2.44a6.3,6.3,0,0,0-2.73,2.19c2.19-7,7.71-12.54,12-12.54C551.83,110.19,556.39,115,558.28,117.22Z" transform="translate(-322.1 -60.31)"/><path class="cls-84" d="M562.06,117.58a7.12,7.12,0,0,0-4.87-.51c-3,.62-7.74,4.91-6.05,11.9Z" transform="translate(-322.1 -60.31)"/><path class="cls-85" d="M581.09,126s-1.84-7.34-4-8.1c-1.65-.59-13.59-4-21.73,2.37-7.65,6-2.7,25.9,0,28.59a18.76,18.76,0,0,0,6.5,3.95Z" transform="translate(-322.1 -60.31)"/><path class="cls-86" d="M590.57,132.44s2.4,6.16,7.23,8.27c0,0-4.79.6-6.77-1.38S590.57,132.44,590.57,132.44Z" transform="translate(-322.1 -60.31)"/><path class="cls-78" d="M584.91,151.47c-.88,4.19-5.82,9.29-7.61,9.29a18.79,18.79,0,0,1-2.47-.19h0c-2.94-.43-6.85-1.6-9.33-4.08-3.29-3.29-7.57-11.76-7.57-11.76a26.42,26.42,0,0,1,9.66-12.6,19.69,19.69,0,0,1,14.55-3.45,18.49,18.49,0,0,1,.68,2.14h0a27.45,27.45,0,0,1,.93,9.26C583.42,142.62,585.79,147.26,584.91,151.47Z" transform="translate(-322.1 -60.31)"/><path class="cls-54" d="M563.74,150.05a17.43,17.43,0,0,0,11.08,10.52c-2.94-.43-6.85-1.6-9.33-4.08-3.29-3.29-7.57-11.76-7.57-11.76a24.27,24.27,0,0,1,9.24-13,19.25,19.25,0,0,1,15-3,18.49,18.49,0,0,1,.68,2.14c-.21-.18-3-2.36-11.3.49C562.86,134.27,561.63,143.69,563.74,150.05Z" transform="translate(-322.1 -60.31)"/><path class="cls-59" d="M572.81,153.91H573a41.84,41.84,0,0,0,5.47-.3,17.33,17.33,0,0,0,1.9-.47s.37,3.58,0,4.18-3.33,1.25-4.15.92-3.22-3.8-3.22-3.8Z" transform="translate(-322.1 -60.31)"/><path class="cls-87" d="M579.12,155.18a2.67,2.67,0,0,1,1.13,1.82c0,1-2.8,1.82-2.8,1.82l-2.71-1.66-1.93-3.25.41.57Z" transform="translate(-322.1 -60.31)"/><path class="cls-58" d="M575.47,157s3.39.88,4.71-1.15l-.32,1.12-2.78,1.82-1.77-.69Z" transform="translate(-322.1 -60.31)"/><path class="cls-56" d="M576.37,148.55s.24,1.19.69,1.19,1.37-.56,2.69-.7a3,3,0,0,0,2.38-1.31s-.85,2.07-1.57,2.32-1.09-.12-1.81-.12-1.45.41-1.9.41S576.37,148.55,576.37,148.55Z" transform="translate(-322.1 -60.31)"/><path class="cls-58" d="M579.93,142.88a6,6,0,0,1,1.82-2.79c1.44-1.27,2.5.5,2.5.82a4.69,4.69,0,0,1-.11,2.6,2.78,2.78,0,0,1-3.51,1.81S579.59,144.73,579.93,142.88Z" transform="translate(-322.1 -60.31)"/><path class="cls-58" d="M573.92,145.46s-.55-5.59-4.21-4.75-6,4.61-6,4.61a7.66,7.66,0,0,0,5.59,2.14C572.77,147.3,573.92,145.46,573.92,145.46Z" transform="translate(-322.1 -60.31)"/><path class="cls-54" d="M562.15,149.87s-3.45-5-7.94-3.44,2.41,10.83,6.23,10.23,3-3.9,3-3.9Z" transform="translate(-322.1 -60.31)"/><path class="cls-56" d="M561.26,151.15s-4.56-2.41-7.11-1.75C554.15,149.4,558.77,152.67,561.26,151.15Z" transform="translate(-322.1 -60.31)"/><path class="cls-56" d="M559.89,151.13s1,2.18.21,3.07-2.7-.37-2.7-.37,1.56.66,2-.06-.73-2.69-.73-2.69Z" transform="translate(-322.1 -60.31)"/><path class="cls-59" d="M573.92,144.89s-.66-3.73-3.4-3.73c-3.12,0-7.11,4.52-7.11,4.52l-3-.91,2.16-.43s5-4.94,8.22-4.17C573.55,140.83,573.92,144.89,573.92,144.89Z" transform="translate(-322.1 -60.31)"/><path class="cls-59" d="M564.23,145.92a7.79,7.79,0,0,0,4.91,1.54A23.86,23.86,0,0,1,564.23,145.92Z" transform="translate(-322.1 -60.31)"/><path class="cls-59" d="M572.81,143.87a2.2,2.2,0,1,1-2.17-2.5A2.36,2.36,0,0,1,572.81,143.87Z" transform="translate(-322.1 -60.31)"/><path class="cls-59" d="M584.09,142.28c0,1.21-.57,2.19-1.27,2.19s-1.26-1-1.26-2.19.56-2.19,1.26-2.19S584.09,141.07,584.09,142.28Z" transform="translate(-322.1 -60.31)"/><path class="cls-59" d="M579.75,143.21a14.24,14.24,0,0,1,1.77-3.45,3.44,3.44,0,0,1,2.43-1.54l.79,2.11,1.54-.74-2,3s.38-2.64-1.21-2.81C581.72,139.65,579.75,143.21,579.75,143.21Z" transform="translate(-322.1 -60.31)"/><path class="cls-59" d="M584.27,141.88a3.86,3.86,0,0,1-1.72,3.44,3.39,3.39,0,0,0,2-3.3Z" transform="translate(-322.1 -60.31)"/><path class="cls-60" d="M569,144.21a.52.52,0,0,1-.52.52.52.52,0,0,1,0-1A.52.52,0,0,1,569,144.21Z" transform="translate(-322.1 -60.31)"/><path class="cls-60" d="M582.13,142.54a.52.52,0,1,1-.52-.52A.51.51,0,0,1,582.13,142.54Z" transform="translate(-322.1 -60.31)"/><path class="cls-59" d="M572.17,135.9s.9-2.24.59-2.23-.61,1.43-.61,1.43-.12-1.11-.4-1.1a19.62,19.62,0,0,0-8,4.82S570.16,136,572.17,135.9Z" transform="translate(-322.1 -60.31)"/><path class="cls-59" d="M577.3,150.05a4.36,4.36,0,0,1,1.92-.62c.92,0,.27.51-.25.51a4.38,4.38,0,0,1-.73-.11Z" transform="translate(-322.1 -60.31)"/><path class="cls-61" d="M581.09,135.93s-2.27,3.41-2.08,6.61,3.12,5.19,3.12,5.19a7.07,7.07,0,0,1-2.73-5.45c0-3.51,2.73-6.58,2.73-6.58Z" transform="translate(-322.1 -60.31)"/><path class="cls-59" d="M580.36,137.23s2.08-3.95,3.95-3.95c.25,0,.34,1.34,0,1.68S581.71,135.4,580.36,137.23Z" transform="translate(-322.1 -60.31)"/><path class="cls-88" d="M572.71,154s1.53,3.91,3.37,5c2.08,1.21,4.8.11,4.8-1.18,0-.93-.61-3.33-.18-4.27h-.4a5,5,0,0,0-.14,2.19c.22,1-1.6,2-3.48,1.52-1.59-.4-3.87-3.3-3.87-3.3h0Z" transform="translate(-322.1 -60.31)"/><path class="cls-58" d="M573.92,153.9s3.81,1.14,5.76.63a1.41,1.41,0,0,0,.57-.82Z" transform="translate(-322.1 -60.31)"/><path class="cls-89" d="M572.81,153.67a13.11,13.11,0,0,0,4.06-.53c2-.63,3.27-.52,3.9-.77s1.45-.91,1.78-.91-1.56,2-2.47,2.45-6.55,0-7.27,0Z" transform="translate(-322.1 -60.31)"/><path class="cls-56" d="M573.73,152.63a2.3,2.3,0,0,0-1.44,2.16Z" transform="translate(-322.1 -60.31)"/><path class="cls-59" d="M573.73,123s-5.28-5.06-8-4.23-5.47,5.48-5.47,5.48a9.69,9.69,0,0,1,6.92.33Z" transform="translate(-322.1 -60.31)"/><polygon class="cls-90" points="237.12 86.84 239.17 88.52 237.7 84.42 237.12 86.84"/><path class="cls-84" d="M582.55,128.14v.05c0,.52-.11,1.37-.11,1.37-6.08-1.47-12.48-.41-17.61,4.71-4,3.95-5.62,12.88-5.62,12.88l-1.8-.8c-.78-8,.57-14.6,4.44-18.68a13.49,13.49,0,0,1,5.67-3.55c7.25-2.39,10.67-.44,12.16.44A7.46,7.46,0,0,1,582.55,128.14Z" transform="translate(-322.1 -60.31)"/><path class="cls-91" d="M582.55,128.19c0,.52-.11,1.37-.11,1.37-6.08-1.47-12.48-.41-17.61,4.71-4,3.95-5.62,12.88-5.62,12.88l-1.8-.8c-.78-8,.57-14.6,4.44-18.68,0,0,1,4.77,1.64,4.77,1.51,0,3.77-3.08,10.76-4A29.73,29.73,0,0,1,582.55,128.19Z" transform="translate(-322.1 -60.31)"/><path class="cls-92" d="M567,191.58s4-1,2.94-9l4,6.71-3.16,5.7-2.91-2.27Z" transform="translate(-322.1 -60.31)"/><path class="cls-59" d="M575.68,123a16.23,16.23,0,0,1,8.41-3.25s-4.14,1-6.39,3.87Z" transform="translate(-322.1 -60.31)"/><path class="cls-90" d="M575.68,123s9.06-5.88,11.75-6.37,3.73,4.38,3.73,8.61-1.73,12.26,0,14,6.13,1,6.64,1.51-5.93,7.6-5.93,7.6,5.17-6.44,4.67-6.94-4.06-.09-5.71-1.73-2-8.13-2.69-11.38c-.82-4.14-3.66-7.82-6-7.82S575.68,123,575.68,123Z" transform="translate(-322.1 -60.31)"/><path class="cls-83" d="M568.3,119.14a4,4,0,0,0-3.92,0c-2.16,1.14-9.29,9-9.29,12.73s3.11,7.34,4.12,12-3.87,8.62-5.46,10.92,4,8.88,4,8.88-1.1-9.34.4-12.59,5.63-3.56,5.63-5.76-8.77-10.52-7.52-14.67S563.88,119.14,568.3,119.14Z" transform="translate(-322.1 -60.31)"/><path class="cls-86" d="M553.52,155.35l3.41-1.85a38.65,38.65,0,0,0,.26,6.69h-2S553.28,157.56,553.52,155.35Z" transform="translate(-322.1 -60.31)"/><path class="cls-86" d="M582.55,119.94l5.45-3.06a2.75,2.75,0,0,1,1.79,2.08l-4.46,2.34S583.94,119.75,582.55,119.94Z" transform="translate(-322.1 -60.31)"/><path class="cls-64" d="M533.33,128.26s0-.47.15-1.19Z" transform="translate(-322.1 -60.31)"/><path class="cls-78" d="M583,162.94l-10.73,13.18s2,.84,7.46-.8,10.08-4.25,10.33-5.45S583,162.94,583,162.94Z" transform="translate(-322.1 -60.31)"/><path class="cls-58" d="M568,174.19s3.56,1.63,10.52.19c11.24-2.33,10.23-6.86,10.23-6.86s2.75,2.19,2.49,3.63-20,8-20,8Z" transform="translate(-322.1 -60.31)"/><path class="cls-93" d="M601.24,179.19v.12C601.11,183.16,599,191,599,191s-10.58,3-15.14,5.76-7.68,4.28-7.68,4.28-6.47-5.6-8.28-8.39c0,0,4.28-1,3.67-6.42-.51-4.42-11.12-15.64-11.12-15.64l.48-.47,1.92-1.87s5.62,8.65,11.12,8.65,16-5.29,17-6.31-11.19-11.16-11.19-11.16l1.34-.54s7.38,8.14,11.17,10.88,8,5.56,8.83,7.88A3.94,3.94,0,0,1,601.24,179.19Z" transform="translate(-322.1 -60.31)"/><path class="cls-78" d="M568.31,188.19a59.66,59.66,0,0,0-6.55,12.89c-2.49,7-8.68,15.23-10.37,15.23s-7.61-2.6-10.68-11.45a68.85,68.85,0,0,1-1.92-6.79v0c-1.87-7.81-2.89-16-2.89-16l4.38-.72c.74,3.73,10.54,18,10.54,18s3.15-13.47,5.26-20.12,4.81-8,4.81-8C567.19,175.84,568.31,188.19,568.31,188.19Z" transform="translate(-322.1 -60.31)"/><path class="cls-78" d="M535.89,182s-4.17-6.29-5-10.38-.55-5.74,0-6.29,3.35,0,3.35,0,2.66-.31,3.16.18a14.2,14.2,0,0,1,1.49,4.68c0,.84-1.6.4-1.6.4a2.77,2.77,0,0,1-2.16.52,2,2,0,0,1-1.57-1.51l0,1.76A38.61,38.61,0,0,1,538,175c1.83,1.83,2.27,6.29,2.27,6.29Z" transform="translate(-322.1 -60.31)"/><polygon class="cls-54" points="215 110.47 213.56 107.21 215.47 110.47 215 110.47"/><path class="cls-82" d="M542,173.29s-3,.69-3.65,2.18,1.89,5.84,1.89,5.84,3.54-3.69,3.54-6.93S542,173.29,542,173.29Z" transform="translate(-322.1 -60.31)"/><path class="cls-78" d="M543.82,174.38s-5.44-3.16-6-4.51,0-1.92,0-1.92,5.09,2,5.74,2.68S543.82,174.38,543.82,174.38Z" transform="translate(-322.1 -60.31)"/><path class="cls-54" d="M548.5,195.87s4.48,7.9,5,12.36A18.21,18.21,0,0,0,548.5,195.87Z" transform="translate(-322.1 -60.31)"/><path class="cls-54" d="M595.15,211.27c.17.74.12,1.38-.12,1.44s-.56-.5-.73-1.24-.11-1.38.12-1.44S595,210.54,595.15,211.27Z" transform="translate(-322.1 -60.31)"/><path class="cls-49" d="M574,199.2A41.22,41.22,0,0,1,584.39,193a86.65,86.65,0,0,1,15.13-4.19L599,191s-12,3.93-15.14,5.76-7.68,4.28-7.68,4.28Z" transform="translate(-322.1 -60.31)"/><path class="cls-94" d="M617,288.31c0,6,4.82,14,4.82,21.06s-5.55,29.11-5.55,29.11l-5.71,5s-.21-4.93-.61-11.79c-.71-12.07-2-30.1-3.77-37.66-2.79-11.85-9.08-51.34-9.08-51.34L592.27,246v0a1,1,0,0,0-.1.22c-1.39,3.28-16.35,38.54-23.86,48.16-5,6.4-13,20.36-18.21,29.73-3,5.44-5.07,9.33-5.07,9.33l-4.83-3.08s2.64-20.32,5-27.64,9-13.82,12.29-17.12,4.53-16.37,6.87-30.85,10.46-30.14,10.46-30.14c21.57,0,32.24-9.05,32.24-9.05,7.44,7.44,16.54,27.92,16.54,34.94S617,282.31,617,288.31Z" transform="translate(-322.1 -60.31)"/><polygon class="cls-80" points="288.56 285.02 287.85 271.36 295.8 271.36 294.17 278.17 288.56 285.02"/><polygon class="cls-80" points="219.64 259.54 228.01 263.88 222.94 273.2 218.11 270.13 219.64 259.54"/><path class="cls-49" d="M575.13,223.25l-1.1,3s23,1.76,34.79-8.6l-1.79-2S597.84,224.72,575.13,223.25Z" transform="translate(-322.1 -60.31)"/><path class="cls-95" d="M568.31,188.19a59.66,59.66,0,0,0-6.55,12.89c-2.49,7-8.68,15.23-10.37,15.23s-7.61-2.6-10.68-11.45a68.85,68.85,0,0,1-1.92-6.79c2.75,8,9.86,16.32,12.19,14.84,6.42-4.07,11.09-18.29,13.14-25.67s-3.24-16.09-3.24-16.09C567.19,175.84,568.31,188.19,568.31,188.19Z" transform="translate(-322.1 -60.31)"/><path class="cls-95" d="M639.4,177.69c-5.85,4.36-21.89,15.94-26.94,16.13-1.2.05-5.75-2.12-12.94-5l.76-3.28s9,5.47,12.92,5.47C616.36,191,632.88,181.52,639.4,177.69Z" transform="translate(-322.1 -60.31)"/><path class="cls-91" d="M615.53,331.67H610c-.71-12.07-2-30.1-3.77-37.66-2.79-11.85-9.08-51.34-9.08-51.34L592.27,246c4.14-3.19,7.1-6,9-10.83,0,0,.54,46.12,5.14,55.67C614.14,307,615.53,331.67,615.53,331.67Z" transform="translate(-322.1 -60.31)"/><path class="cls-91" d="M592.17,246.29c-1.39,3.28-16.35,38.54-23.86,48.16-5,6.4-13,20.36-18.21,29.73l-5-2.56s4.27-17.15,9-21.86,9.93-5,16-11.08C576,282.87,590.76,249.45,592.17,246.29Z" transform="translate(-322.1 -60.31)"/><polygon class="cls-79" points="223.06 261.31 220.89 269.15 222.94 273.2 228.01 263.87 223.06 261.31"/><polygon class="cls-79" points="292.41 271.3 290.81 282.27 289.42 282.96 288.42 282.1 287.85 271.36 292.41 271.3"/><path class="cls-84" d="M640.18,356c-5.85,2.49-17.77.44-22.28-.87a37.14,37.14,0,0,0-7.95-1.47l-.7-1a65,65,0,0,1,1.23-10.83l1,1.43,4.76-4.79s1.17,1.09,1.63,1.54,21.29,12.54,22.28,13.53a1.48,1.48,0,0,1,.41.75A2.65,2.65,0,0,1,640.18,356Z" transform="translate(-322.1 -60.31)"/><path class="cls-84" d="M547.81,343.47c0,1-2.49,2.91-4.75,3.94s-5.64,3.87-11.63,7.46-13.49,4.12-13.94,3.69a2,2,0,0,1-.52-1.47c0-.31,0-.69,0-1.16,0-1.76,23.54-27.69,23.54-27.69,2.35-1.1,4.54,5.27,4.54,5.27l1-1.84S547.81,342.43,547.81,343.47Z" transform="translate(-322.1 -60.31)"/><path class="cls-46" d="M576.63,229.36s-13.9,34.4-13.9,50.18,15.5-3.22,21.89-17C592.31,246.05,591.4,231.56,576.63,229.36Z" transform="translate(-322.1 -60.31)"/><path class="cls-46" d="M606.27,229.36c-2.95.8-2.8,52,1.07,55.88s13.33-26.83,12.82-36C619.46,236.33,612.77,227.61,606.27,229.36Z" transform="translate(-322.1 -60.31)"/><path class="cls-91" d="M601.24,179.19v.12C601.11,183.16,599,191,599,191s-10.58,3-15.14,5.76-7.68,4.28-7.68,4.28-6.47-5.6-8.28-8.39c0,0,4.28-1,3.67-6.42-.51-4.42-11.12-15.64-11.12-15.64l.48-.47s10.76,12.1,14.25,15.6C579.75,190.37,598.44,183.11,601.24,179.19Z" transform="translate(-322.1 -60.31)"/><path class="cls-91" d="M640.18,356c-5.85,2.49-17.77.44-22.28-.87a37.14,37.14,0,0,0-7.95-1.47l-.7-1a65,65,0,0,1,1.23-10.83l1,1.43s0,7.57.72,8.38c1.69,2,9.07,3.39,15.52,4.09a29.57,29.57,0,0,0,12.84-1.44A2.65,2.65,0,0,1,640.18,356Z" transform="translate(-322.1 -60.31)"/><path class="cls-91" d="M547.81,343.47c0,1-2.49,2.91-4.75,3.94s-5.64,3.87-11.63,7.46-13.49,4.12-13.94,3.69a2,2,0,0,1-.52-1.47,45.67,45.67,0,0,0,8.21-1.39c4.05-1.2,15-8.42,17.81-11.18s2-11,2-11l1-1.84S547.81,342.43,547.81,343.47Z" transform="translate(-322.1 -60.31)"/><g class="cls-96"><path class="cls-60" d="M575.93,267.1l-.58-.19,1.07-3.24a.53.53,0,0,0,0-.41.57.57,0,0,0-.36-.24l-.77-.25a.48.48,0,0,0-.35,0,.45.45,0,0,0-.2.28l-.86,2.63a.76.76,0,0,1-.33.49.79.79,0,0,1-.6,0l-3.73-1.22a4.19,4.19,0,0,1-.67-.27.83.83,0,0,1-.35-.31.77.77,0,0,1-.08-.41,3,3,0,0,1,.14-.58l.82-2.5a2.15,2.15,0,0,1,.23-.52.72.72,0,0,1,.31-.27,1,1,0,0,1,.46,0,6.87,6.87,0,0,1,.68.19l2.91.95-.33,1-1.85-.61a1,1,0,0,0-.63-.07c-.13,0-.23.18-.31.4l-.5,1.53a1.56,1.56,0,0,0-.07.32.37.37,0,0,0,0,.23.51.51,0,0,0,.2.18,2.18,2.18,0,0,0,.36.15L573,265a.55.55,0,0,0,.38,0,.41.41,0,0,0,.2-.3l.88-2.66a.65.65,0,0,1,.31-.43.92.92,0,0,1,.6,0l1.31.43a2.21,2.21,0,0,1,.4.18.53.53,0,0,1,.21.21.44.44,0,0,1,0,.28,1.17,1.17,0,0,1-.09.4Z" transform="translate(-322.1 -60.31)"/><path class="cls-60" d="M576.09,259.78l2,.67-.35,1.05-8-2.64,1.18-3.6a1.73,1.73,0,0,1,.21-.47.62.62,0,0,1,.29-.24,1.13,1.13,0,0,1,.46,0,4.83,4.83,0,0,1,.7.18l3.79,1.25a2.66,2.66,0,0,1,.43.18.6.6,0,0,1,.22.23.5.5,0,0,1,.05.3,2,2,0,0,1-.09.4Zm-2.77-3.73a2,2,0,0,0-.4-.09.46.46,0,0,0-.27,0,.55.55,0,0,0-.2.2,2.34,2.34,0,0,0-.15.37l-.59,1.78,3.81,1.25.66-2a.62.62,0,0,0,0-.44.6.6,0,0,0-.37-.25Z" transform="translate(-322.1 -60.31)"/><path class="cls-60" d="M579.78,255.39a1,1,0,0,1-.38.57.94.94,0,0,1-.71,0L572.81,254a4.19,4.19,0,0,1-.67-.27.89.89,0,0,1-.35-.3.67.67,0,0,1-.08-.4,3.49,3.49,0,0,1,.13-.58l.77-2.32a2.56,2.56,0,0,1,.23-.54.62.62,0,0,1,.3-.28.79.79,0,0,1,.47,0,5.18,5.18,0,0,1,.7.18l5.88,1.93a.7.7,0,0,1,.56,1.07Zm-4.73-4.65a1.07,1.07,0,0,0-.65-.07.71.71,0,0,0-.32.46l-.45,1.38a1.16,1.16,0,0,0-.07.32.36.36,0,0,0,.05.23.58.58,0,0,0,.2.17,1.86,1.86,0,0,0,.37.16l4.56,1.49a.59.59,0,0,0,.43,0,.52.52,0,0,0,.24-.34l.55-1.67a.52.52,0,0,0,0-.41.58.58,0,0,0-.35-.25Z" transform="translate(-322.1 -60.31)"/><path class="cls-60" d="M582.65,246.64c-.07.22-.25.28-.54.19l-1.09-.36a.66.66,0,0,0-.57,0,1,1,0,0,0-.31.49l-.65,2,2.17.71-.34,1-8-2.64,1.19-3.63a2.5,2.5,0,0,1,.22-.51.62.62,0,0,1,.3-.26,1.06,1.06,0,0,1,.45,0,4.53,4.53,0,0,1,.71.19l3.22,1.05a2.29,2.29,0,0,1,.44.2,1,1,0,0,1,.25.25.8.8,0,0,1,.09.31,1.43,1.43,0,0,1,0,.39,2.1,2.1,0,0,1,.18-.34.64.64,0,0,1,.57-.26,2.17,2.17,0,0,1,.48.1l1.12.37a.55.55,0,0,0,.26,0,.5.5,0,0,0,.19-.1Zm-5.76-1.53a1.07,1.07,0,0,0-.64-.08c-.12,0-.22.18-.3.4l-.7,2.14,3.65,1.19.66-2a.94.94,0,0,0,.05-.58.66.66,0,0,0-.44-.32Z" transform="translate(-322.1 -60.31)"/><path class="cls-60" d="M583.65,243.59l-6.22-2.05c-.12,0-.2,0-.25.15l-.52,1.6-1.64-.53,1.52-4.61,1.63.53-.53,1.6a.29.29,0,0,0,0,.18.23.23,0,0,0,.12.09l6.23,2Z" transform="translate(-322.1 -60.31)"/></g><path class="cls-49" d="M639.4,176.19l22.86-19.55c2.57-1.78,4.78-.38,4.78.71l-23.5,22.43Z" transform="translate(-322.1 -60.31)"/><path class="cls-78" d="M650.9,176.72c-1,0-3.61-1.9-3.61-3.05s2.51-.4,2.51-.4-2.06-2.06-1.32-2.8,3.32-.19,3.32-.19-.86-1.17-.19-1.84,5.87,0,5.87,0-2.2-1-1.54-2.71,5.67.52,5.67,1.21-.66,2.41-1.35,2.41-1.8,0-1.8,0a2.94,2.94,0,0,1-1.31,2.56c-.54.31-.59,1.32-1.32,2.05s-2,.46-2.56,1S652.07,176.72,650.9,176.72Z" transform="translate(-322.1 -60.31)"/><polygon class="cls-54" points="329.51 109.6 332.35 110.61 329.7 109.97 329.51 109.6"/><polygon class="cls-54" points="326.92 112.04 329.4 113.86 326.92 112.78 326.92 112.04"/><path class="cls-97" d="M639.4,176.19c-1.41.53,2.9,4.77,4.14,3.59S640.32,175.84,639.4,176.19Z" transform="translate(-322.1 -60.31)"/><polygon class="cls-97" points="350.11 76.15 372.43 77.3 374.33 65.13 352.46 65.79 350.11 76.15"/><polygon class="cls-49" points="374.33 65.13 375.94 65.94 373.75 77.3 372.43 77.3 374.33 65.13"/><polygon class="cls-49" points="358.72 65.6 359.65 64.46 367.06 64.02 367.93 65.33 358.72 65.6"/><polygon class="cls-98" points="352.46 75.15 353.78 66.89 372.43 66.23 371.11 75.98 352.46 75.15"/><polygon class="cls-49" points="353.78 66.89 352.46 75.15 352.79 75.17 354.48 66.86 353.78 66.89"/><polygon class="cls-99" points="358.31 76.57 357.82 79.78 363.9 80.21 365.39 76.94 358.31 76.57"/><polygon class="cls-49" points="363.9 80.21 365.39 80.21 367.03 77.02 365.39 76.94 363.9 80.21"/><path class="cls-49" d="M641.58,178.07s-3.52,35.64-3.52,46.61,2.92,18.14,5.7,18.14-1.46-64.75-1.46-64.75l-.86-.74s2.18,62.13.93,63.37-3.6-9.73-3-21.14S641.58,178.07,641.58,178.07Z" transform="translate(-322.1 -60.31)"/><path class="cls-51" d="M594.73,202.05s4.79,10.18,4.79,15.54l5.86-2.66s-6.81-10.63-7.54-12.65a12.79,12.79,0,0,1-.56-4.44Z" transform="translate(-322.1 -60.31)"/><path class="cls-51" d="M613.11,180.81s15.35-3.46,19.17-5.3a33,33,0,0,0,7.12-4.36Z" transform="translate(-322.1 -60.31)"/><path class="cls-91" d="M572.58,177.66s11.52,1.42,19.86.41l-7.93-.72,7.93-5.3S582.34,178.43,572.58,177.66Z" transform="translate(-322.1 -60.31)"/></g></g></svg>