<svg id="Layer_1" data-name="Layer 1" xmlns="http://www.w3.org/2000/svg" xmlns:xlink="http://www.w3.org/1999/xlink" viewBox="0 0 3484.41 1760.72"><defs><style>.cls-1{fill:url(#radial-gradient);}.cls-2{fill:url(#linear-gradient);}.cls-3{fill:url(#linear-gradient-2);}.cls-4{opacity:0.24;}.cls-5{fill:url(#linear-gradient-3);}.cls-6{fill:url(#linear-gradient-4);}.cls-7{fill:url(#linear-gradient-5);}.cls-8{fill:url(#linear-gradient-6);}.cls-9{fill:url(#linear-gradient-7);}.cls-10{fill:url(#linear-gradient-8);}.cls-11{fill:url(#radial-gradient-2);}.cls-12{fill:url(#linear-gradient-27);}.cls-13{opacity:0.22;}.cls-14{fill:#fff;}.cls-15{opacity:0.21;}.cls-16{fill:url(#radial-gradient-3);}.cls-17{fill:url(#linear-gradient-28);}.cls-18{fill:url(#radial-gradient-4);}.cls-19,.cls-20,.cls-21,.cls-22{opacity:0.13;}.cls-19,.cls-20,.cls-21,.cls-22,.cls-61,.cls-69,.cls-85{isolation:isolate;}.cls-19{fill:url(#radial-gradient-5);}.cls-20{fill:url(#radial-gradient-6);}.cls-21{fill:url(#radial-gradient-7);}.cls-22{fill:url(#radial-gradient-8);}.cls-23{fill:url(#linear-gradient-29);}.cls-24{fill:url(#linear-gradient-30);}.cls-25{fill:url(#linear-gradient-31);}.cls-26{fill:url(#linear-gradient-32);}.cls-27{fill:url(#linear-gradient-33);}.cls-28{fill:url(#linear-gradient-34);}.cls-29{fill:url(#linear-gradient-35);}.cls-30{fill:url(#linear-gradient-36);}.cls-31{fill:url(#linear-gradient-37);}.cls-32{fill:url(#linear-gradient-38);}.cls-33{fill:url(#linear-gradient-39);}.cls-34{fill:#2929fc;}.cls-35{fill:url(#linear-gradient-40);}.cls-36{fill:url(#linear-gradient-41);}.cls-37{fill:url(#linear-gradient-42);}.cls-38{fill:url(#linear-gradient-43);}.cls-39{fill:url(#linear-gradient-44);}.cls-40{fill:url(#linear-gradient-45);}.cls-41{fill:url(#linear-gradient-46);}.cls-42{fill:url(#linear-gradient-47);}.cls-43{fill:url(#linear-gradient-48);}.cls-44{fill:url(#linear-gradient-49);}.cls-45{fill:url(#linear-gradient-50);}.cls-46{fill:url(#linear-gradient-51);}.cls-47{fill:url(#linear-gradient-52);}.cls-48{fill:url(#linear-gradient-53);}.cls-49{fill:url(#linear-gradient-54);}.cls-50{fill:url(#linear-gradient-55);}.cls-51{fill:url(#linear-gradient-56);}.cls-52{fill:url(#linear-gradient-57);}.cls-53{fill:url(#linear-gradient-58);}.cls-54{fill:url(#linear-gradient-59);}.cls-55{fill:url(#linear-gradient-60);}.cls-56{fill:url(#linear-gradient-61);}.cls-57{fill:url(#linear-gradient-62);}.cls-58{fill:url(#linear-gradient-63);}.cls-59{fill:url(#linear-gradient-64);}.cls-60{fill:url(#linear-gradient-65);}.cls-61{opacity:0.4;fill:url(#linear-gradient-66);}.cls-62{fill:url(#linear-gradient-67);}.cls-63{fill:url(#linear-gradient-68);}.cls-64{fill:url(#linear-gradient-69);}.cls-65{fill:#769efe;}.cls-66{fill:url(#linear-gradient-70);}.cls-67{fill:url(#linear-gradient-71);}.cls-68{fill:url(#linear-gradient-72);}.cls-69{opacity:0.58;fill:url(#linear-gradient-73);}.cls-70{fill:url(#linear-gradient-74);}.cls-71{fill:url(#linear-gradient-75);}.cls-72{fill:url(#linear-gradient-76);}.cls-73{fill:url(#linear-gradient-77);}.cls-74{fill:url(#linear-gradient-78);}.cls-75{fill:url(#linear-gradient-79);}.cls-76{fill:url(#linear-gradient-80);}.cls-77{fill:url(#linear-gradient-81);}.cls-78{fill:url(#linear-gradient-82);}.cls-79{fill:url(#linear-gradient-83);}.cls-80{fill:url(#linear-gradient-84);}.cls-81{fill:#f28ca5;}.cls-82{fill:url(#linear-gradient-85);}.cls-83{fill:url(#linear-gradient-86);}.cls-84{fill:url(#linear-gradient-87);}.cls-85{opacity:0.18;fill:url(#linear-gradient-88);}.cls-86{fill:url(#linear-gradient-89);}.cls-87{fill:url(#linear-gradient-90);}.cls-88{fill:url(#linear-gradient-91);}.cls-89{opacity:0.45;}.cls-90{fill:none;stroke:#fdffb6;stroke-miterlimit:10;stroke-dasharray:0.5 5;}.cls-91{opacity:0.74;}.cls-92{fill:url(#radial-gradient-9);}.cls-93{fill:url(#radial-gradient-17);}.cls-94{fill:url(#radial-gradient-25);}.cls-95{fill:url(#radial-gradient-32);}.cls-96{fill:url(#radial-gradient-33);}.cls-97{fill:url(#radial-gradient-40);}.cls-98{fill:url(#radial-gradient-41);}.cls-99{fill:url(#radial-gradient-48);}</style><radialGradient id="radial-gradient" cx="1374.44" cy="-142.5" r="2258.6" gradientTransform="matrix(1.16, 0, 0, -1, -177.14, 1762)" gradientUnits="userSpaceOnUse"><stop offset="0.12" stop-color="#e9ff94"/><stop offset="0.39" stop-color="#ff2a48"/><stop offset="1" stop-color="#ffd47f"/></radialGradient><linearGradient id="linear-gradient" x1="824.13" y1="367.31" x2="-810.47" y2="322.6" gradientTransform="matrix(1, 0, 0, -1, 0, 1762)" gradientUnits="userSpaceOnUse"><stop offset="0" stop-color="#ff153c"/><stop offset="1" stop-color="#6a0002"/></linearGradient><linearGradient id="linear-gradient-2" x1="601.45" y1="416.83" x2="238.2" y2="81.52" xlink:href="#linear-gradient"/><linearGradient id="linear-gradient-3" x1="1138.1" y1="1575.79" x2="1143.12" y2="1221.14" gradientTransform="matrix(1, 0, 0, -1, 0, 1762)" gradientUnits="userSpaceOnUse"><stop offset="0" stop-color="#fff"/><stop offset="0.97" stop-color="#fff"/><stop offset="1" stop-color="#fff"/></linearGradient><linearGradient id="linear-gradient-4" x1="1138.86" y1="1575.8" x2="1143.87" y2="1221.15" xlink:href="#linear-gradient-3"/><linearGradient id="linear-gradient-5" x1="1136.14" y1="1575.76" x2="1141.16" y2="1221.11" xlink:href="#linear-gradient-3"/><linearGradient id="linear-gradient-6" x1="1135.86" y1="1575.76" x2="1140.88" y2="1221.11" xlink:href="#linear-gradient-3"/><linearGradient id="linear-gradient-7" x1="1135.55" y1="1575.76" x2="1140.57" y2="1221.11" xlink:href="#linear-gradient-3"/><linearGradient id="linear-gradient-8" x1="1135.36" y1="1575.76" x2="1140.38" y2="1221.1" xlink:href="#linear-gradient-3"/><radialGradient id="radial-gradient-2" cx="1866.73" cy="787.58" r="785.48" gradientTransform="matrix(1, 0, 0, -1, 0, 1762)" gradientUnits="userSpaceOnUse"><stop offset="0.12" stop-color="#fffdae"/><stop offset="0.39" stop-color="#ff153c"/><stop offset="1" stop-color="#6a0002"/></radialGradient><linearGradient id="linear-gradient-27" x1="2455.87" y1="638.7" x2="1967.39" y2="436" xlink:href="#linear-gradient"/><radialGradient id="radial-gradient-3" cx="2032.34" cy="556.72" r="603.45" xlink:href="#radial-gradient-2"/><linearGradient id="linear-gradient-28" x1="3318.46" y1="1185.07" x2="2829.97" y2="982.36" gradientTransform="matrix(0.75, 0.56, 0.32, -0.77, -296.08, 676.09)" xlink:href="#linear-gradient"/><radialGradient id="radial-gradient-4" cx="1230.96" cy="-8692.72" r="2377.71" gradientTransform="matrix(1.16, 0, 0, -0.14, -177.14, 263.27)" gradientUnits="userSpaceOnUse"><stop offset="0.12" stop-color="#fffdae"/><stop offset="0.39" stop-color="#bf001a"/><stop offset="1" stop-color="#ffd47f"/></radialGradient><radialGradient id="radial-gradient-5" cx="1591.88" cy="1074.18" r="442.15" gradientTransform="matrix(1, 0, 0, -1, 0, 1762)" gradientUnits="userSpaceOnUse"><stop offset="0" stop-color="#fff"/><stop offset="0.85" stop-color="#fff"/><stop offset="1" stop-color="#fff"/></radialGradient><radialGradient id="radial-gradient-6" cx="1690.97" cy="877.89" r="207.58" xlink:href="#radial-gradient-5"/><radialGradient id="radial-gradient-7" cx="579.77" cy="702.89" r="307.59" xlink:href="#radial-gradient-5"/><radialGradient id="radial-gradient-8" cx="648.71" cy="644.66" r="191.1" xlink:href="#radial-gradient-5"/><linearGradient id="linear-gradient-29" x1="1760.36" y1="212.92" x2="1672.83" y2="258.22" gradientTransform="matrix(1, 0, 0, -1, 0, 1762)" gradientUnits="userSpaceOnUse"><stop offset="0" stop-color="#7f69d1"/><stop offset="1" stop-color="#230a60"/></linearGradient><linearGradient id="linear-gradient-30" x1="1814.53" y1="191.58" x2="1608.77" y2="452.62" xlink:href="#linear-gradient-29"/><linearGradient id="linear-gradient-31" x1="1561.86" y1="237.69" x2="1641.59" y2="237.69" xlink:href="#linear-gradient-29"/><linearGradient id="linear-gradient-32" x1="1578.15" y1="462.32" x2="1671.49" y2="462.32" gradientTransform="matrix(1, 0, 0, -1, 0, 1762)" gradientUnits="userSpaceOnUse"><stop offset="0" stop-color="#7f69d1"/><stop offset="1" stop-color="#3e18c9"/></linearGradient><linearGradient id="linear-gradient-33" x1="2113.83" y1="894.23" x2="1529.31" y2="389.56" gradientTransform="matrix(1, 0, 0, -1, 0, 1762)" gradientUnits="userSpaceOnUse"><stop offset="0"/><stop offset="1"/></linearGradient><linearGradient id="linear-gradient-34" x1="1504.77" y1="831.22" x2="1550.45" y2="782.08" gradientTransform="matrix(1, 0, 0, -1, 0, 1762)" gradientUnits="userSpaceOnUse"><stop offset="0" stop-color="#fffbe9"/><stop offset="0.4" stop-color="#ffe2b3"/><stop offset="1" stop-color="#f78b7c"/></linearGradient><linearGradient id="linear-gradient-35" x1="1551.6" y1="777.54" x2="1696.64" y2="777.54" gradientTransform="matrix(1, 0, 0, -1, 0, 1762)" gradientUnits="userSpaceOnUse"><stop offset="0" stop-color="#ffde3b"/><stop offset="1" stop-color="#ef7929"/></linearGradient><linearGradient id="linear-gradient-36" x1="1568.86" y1="912.08" x2="1657.92" y2="770.05" xlink:href="#linear-gradient-33"/><linearGradient id="linear-gradient-37" x1="1550.41" y1="887.49" x2="1625.14" y2="956.07" xlink:href="#linear-gradient-34"/><linearGradient id="linear-gradient-38" x1="1545.7" y1="1039.85" x2="1619.79" y2="946.57" xlink:href="#linear-gradient-33"/><linearGradient id="linear-gradient-39" x1="1570.06" y1="982.19" x2="1613.59" y2="982.19" xlink:href="#linear-gradient-34"/><linearGradient id="linear-gradient-40" x1="1628.17" y1="1007.81" x2="1606.67" y2="981.33" xlink:href="#linear-gradient-34"/><linearGradient id="linear-gradient-41" x1="1642.7" y1="731.94" x2="1576.67" y2="768.09" xlink:href="#linear-gradient-34"/><linearGradient id="linear-gradient-42" x1="1562.5" y1="734.97" x2="1554.82" y2="763.37" xlink:href="#linear-gradient-34"/><linearGradient id="linear-gradient-43" x1="1521.32" y1="834.22" x2="1557.66" y2="836.52" xlink:href="#linear-gradient-34"/><linearGradient id="linear-gradient-44" x1="1531.55" y1="986.3" x2="1552.54" y2="911.32" xlink:href="#linear-gradient-34"/><linearGradient id="linear-gradient-45" x1="1537.6" y1="911.38" x2="1549.45" y2="911.38" xlink:href="#linear-gradient-32"/><linearGradient id="linear-gradient-46" x1="1517.12" y1="928.53" x2="1683.98" y2="796.48" xlink:href="#linear-gradient-35"/><linearGradient id="linear-gradient-47" x1="1620.85" y1="873.65" x2="1694.94" y2="756.96" xlink:href="#linear-gradient-35"/><linearGradient id="linear-gradient-48" x1="1593.68" y1="974.36" x2="1617.87" y2="990.48" xlink:href="#linear-gradient-33"/><linearGradient id="linear-gradient-49" x1="704.45" y1="260.95" x2="753.1" y2="260.95" gradientTransform="matrix(1, 0, 0, -1, 0, 1762)" gradientUnits="userSpaceOnUse"><stop offset="0" stop-color="#dd1478"/><stop offset="1" stop-color="#ffd150"/></linearGradient><linearGradient id="linear-gradient-50" x1="2217.75" y1="274" x2="2148.08" y2="302.87" gradientTransform="matrix(1, 0, 0, -1, -1467.33, 1762)" gradientUnits="userSpaceOnUse"><stop offset="0" stop-color="#fff7bd"/><stop offset="0.49" stop-color="#db6565"/><stop offset="1" stop-color="#d63838"/></linearGradient><linearGradient id="linear-gradient-51" x1="928.18" y1="243.85" x2="976.4" y2="243.85" xlink:href="#linear-gradient-49"/><linearGradient id="linear-gradient-52" x1="2436.46" y1="267.06" x2="2327.87" y2="242.58" xlink:href="#linear-gradient-50"/><linearGradient id="linear-gradient-53" x1="2371.76" y1="573.54" x2="2393.7" y2="573.54" xlink:href="#linear-gradient-50"/><linearGradient id="linear-gradient-54" x1="-2491.06" y1="541.4" x2="-2522.66" y2="-26.17" gradientTransform="translate(-1789.52 1762) rotate(180)" gradientUnits="userSpaceOnUse"><stop offset="0" stop-color="#3800a3"/><stop offset="0.55" stop-color="#9416f7"/><stop offset="1" stop-color="#ff4aff"/></linearGradient><linearGradient id="linear-gradient-55" x1="2252.49" y1="728.79" x2="2084.68" y2="860.19" xlink:href="#linear-gradient-50"/><linearGradient id="linear-gradient-56" x1="851.62" y1="655.64" x2="647.65" y2="474.24" gradientTransform="matrix(1, 0, 0, -1, 0, 1762)" xlink:href="#linear-gradient-50"/><linearGradient id="linear-gradient-57" x1="828" y1="571.56" x2="595.41" y2="643.61" gradientTransform="matrix(1, 0, 0, -1, 0, 1762)" gradientUnits="userSpaceOnUse"><stop offset="0" stop-color="#fff6a6"/><stop offset="0.46" stop-color="#81e2ef"/><stop offset="1" stop-color="#219ddb"/></linearGradient><linearGradient id="linear-gradient-58" x1="-2268.91" y1="501.77" x2="-2842.8" y2="300.78" xlink:href="#linear-gradient-54"/><linearGradient id="linear-gradient-59" x1="1338.99" y1="173.43" x2="2358.42" y2="432.68" gradientTransform="matrix(1, 0, 0, -1, -1467.33, 1762)" xlink:href="#linear-gradient-33"/><linearGradient id="linear-gradient-60" x1="2380.3" y1="576.55" x2="2286.14" y2="541.82" xlink:href="#linear-gradient-50"/><linearGradient id="linear-gradient-61" x1="819" y1="778.68" x2="658.47" y2="848.2" gradientTransform="matrix(1, 0, 0, -1, 0, 1762)" xlink:href="#linear-gradient-50"/><linearGradient id="linear-gradient-62" x1="794.12" y1="788.43" x2="780.73" y2="836.39" xlink:href="#linear-gradient-49"/><linearGradient id="linear-gradient-63" x1="2215.16" y1="819.74" x2="2249.84" y2="776.9" xlink:href="#linear-gradient-50"/><linearGradient id="linear-gradient-64" x1="-2688.66" y1="862.54" x2="-2210.21" y2="673.57" gradientTransform="translate(-1789.52 1762) rotate(180)" xlink:href="#linear-gradient-49"/><linearGradient id="linear-gradient-65" x1="-2789.44" y1="682.89" x2="-3041" y2="589.98" gradientTransform="translate(-1789.52 1762) rotate(180)" gradientUnits="userSpaceOnUse"><stop offset="0" stop-color="#fff"/><stop offset="1" stop-color="#f4eec3"/></linearGradient><linearGradient id="linear-gradient-66" x1="-2535.51" y1="726.41" x2="-2463.88" y2="603.79" gradientTransform="translate(-1789.52 1762) rotate(180)" xlink:href="#linear-gradient-33"/><linearGradient id="linear-gradient-67" x1="1760.65" y1="665.85" x2="1791.73" y2="235.98" gradientTransform="matrix(1, 0, 0, -1, 0, 1762)" gradientUnits="userSpaceOnUse"><stop offset="0" stop-color="#3800a3"/><stop offset="0.55" stop-color="#801ae2"/><stop offset="1" stop-color="#fc99ff"/></linearGradient><linearGradient id="linear-gradient-68" x1="788.31" y1="624.74" x2="819.39" y2="194.88" xlink:href="#linear-gradient-67"/><linearGradient id="linear-gradient-69" x1="1290.68" y1="658.47" x2="1299.66" y2="498.55" xlink:href="#linear-gradient-67"/><linearGradient id="linear-gradient-70" x1="1299.9" y1="621.98" x2="1360.82" y2="639.11" gradientTransform="matrix(1, 0, 0, -1, 0, 1762)" gradientUnits="userSpaceOnUse"><stop offset="0" stop-color="#fff6a6"/><stop offset="0.46" stop-color="#0074ff"/><stop offset="1" stop-color="#0718ad"/></linearGradient><linearGradient id="linear-gradient-71" x1="1243.06" y1="789.87" x2="1327.22" y2="770.02" gradientTransform="matrix(1, 0, 0, -1, 0, 1762)" gradientUnits="userSpaceOnUse"><stop offset="0" stop-color="#0074ff"/><stop offset="1" stop-color="#0718ad"/></linearGradient><linearGradient id="linear-gradient-72" x1="1353.56" y1="744.43" x2="1298.53" y2="719.83" gradientTransform="matrix(1, 0, 0, -1, 0, 1762)" gradientUnits="userSpaceOnUse"><stop offset="0" stop-color="#dd647e"/><stop offset="0.14" stop-color="#e7738b"/><stop offset="0.41" stop-color="#f88ca1"/><stop offset="0.58" stop-color="#fe95a9"/><stop offset="1" stop-color="#ffda99"/></linearGradient><linearGradient id="linear-gradient-73" x1="1286.4" y1="851.53" x2="1323.3" y2="711.69" xlink:href="#linear-gradient-33"/><linearGradient id="linear-gradient-74" x1="1344.82" y1="812.39" x2="1258.72" y2="761.9" gradientTransform="matrix(1, 0, 0, -1, 0, 1762)" gradientUnits="userSpaceOnUse"><stop offset="0" stop-color="#dd647e"/><stop offset="0.58" stop-color="#fe95a9"/><stop offset="1" stop-color="#ffda99"/></linearGradient><linearGradient id="linear-gradient-75" x1="1329.14" y1="864.42" x2="1315.33" y2="809.61" xlink:href="#linear-gradient-71"/><linearGradient id="linear-gradient-76" x1="1262.92" y1="853.01" x2="1281.91" y2="807.27" xlink:href="#linear-gradient-71"/><linearGradient id="linear-gradient-77" x1="1345.39" y1="779.75" x2="1286.26" y2="767.01" xlink:href="#linear-gradient-74"/><linearGradient id="linear-gradient-78" x1="1045.46" y1="520.73" x2="1428.71" y2="734.37" gradientTransform="matrix(1, 0, 0, -1, 0, 1762)" gradientUnits="userSpaceOnUse"><stop offset="0" stop-color="#749bfe"/><stop offset="0.99" stop-color="#fff6b6"/></linearGradient><linearGradient id="linear-gradient-79" x1="1291.57" y1="691.04" x2="1325.24" y2="711.33" xlink:href="#linear-gradient-57"/><linearGradient id="linear-gradient-80" x1="1318.2" y1="638.32" x2="1357.04" y2="668.1" xlink:href="#linear-gradient-57"/><linearGradient id="linear-gradient-81" x1="1322.51" y1="665.84" x2="1338.05" y2="666.27" xlink:href="#linear-gradient-57"/><linearGradient id="linear-gradient-82" x1="1277.47" y1="572.73" x2="1324.73" y2="469.79" xlink:href="#linear-gradient-70"/><linearGradient id="linear-gradient-83" x1="1176.96" y1="386.81" x2="1326.51" y2="393.28" gradientTransform="matrix(1, 0, 0, -1, 0, 1762)" gradientUnits="userSpaceOnUse"><stop offset="0" stop-color="#fff6a6"/><stop offset="0.46" stop-color="#81e2ef"/><stop offset="0.99" stop-color="#007c79"/></linearGradient><linearGradient id="linear-gradient-84" x1="1264.02" y1="388.59" x2="1363.62" y2="388.59" xlink:href="#linear-gradient-57"/><linearGradient id="linear-gradient-85" x1="1424.69" y1="571.05" x2="1324.1" y2="572.18" xlink:href="#linear-gradient-74"/><linearGradient id="linear-gradient-86" x1="895.12" y1="591.38" x2="732.05" y2="508.79" xlink:href="#linear-gradient-57"/><linearGradient id="linear-gradient-87" x1="704.97" y1="807.36" x2="833.43" y2="859.66" gradientTransform="matrix(1, 0, 0, -1, 0, 1762)" xlink:href="#linear-gradient-54"/><linearGradient id="linear-gradient-88" x1="623.53" y1="759.18" x2="850.43" y2="879.27" xlink:href="#linear-gradient-33"/><linearGradient id="linear-gradient-89" x1="58.91" y1="314.62" x2="124.04" y2="197.14" gradientTransform="matrix(0.7, -0.71, -0.71, -0.7, 1584.88, 900.8)" xlink:href="#linear-gradient-35"/><linearGradient id="linear-gradient-90" x1="733.92" y1="1132.29" x2="993.69" y2="897.17" xlink:href="#linear-gradient-57"/><linearGradient id="linear-gradient-91" x1="-659.52" y1="91.22" x2="-577.64" y2="91.22" gradientTransform="matrix(0.6, -0.8, -0.8, -0.6, 1613.96, 395.78)" xlink:href="#linear-gradient-71"/><radialGradient id="radial-gradient-9" cx="1406.33" cy="660.24" r="140.65" gradientTransform="matrix(1, 0, 0, -1, 0, 1762)" gradientUnits="userSpaceOnUse"><stop offset="0.12" stop-color="#fffdae"/><stop offset="0.39" stop-color="#ff29c8"/><stop offset="1" stop-color="#3e18c9"/></radialGradient><radialGradient id="radial-gradient-17" cx="-305.55" cy="1982.95" r="54.54" gradientTransform="matrix(-0.84, -1.18, -1.28, 0.91, 3830.52, -1066.62)" xlink:href="#radial-gradient-9"/><radialGradient id="radial-gradient-25" cx="1013.29" cy="3406.57" r="155.49" gradientTransform="matrix(-0.89, 0.45, 0.45, 0.89, 583.12, -2333.22)" xlink:href="#radial-gradient-9"/><radialGradient id="radial-gradient-32" cx="1013.3" cy="3406.57" r="155.49" gradientTransform="matrix(-0.89, 0.45, 0.45, 0.89, 583.12, -2333.22)" xlink:href="#radial-gradient-9"/><radialGradient id="radial-gradient-33" cx="1235.04" cy="2320.26" r="30.89" gradientTransform="matrix(-1.56, 1.82, 2.08, 1.79, -1829.14, -5400.02)" xlink:href="#radial-gradient-9"/><radialGradient id="radial-gradient-40" cx="698.35" cy="1516.95" r="33.88" gradientTransform="matrix(2.6, 0.17, -0.17, -2.54, -561, 4666.2)" xlink:href="#radial-gradient-9"/><radialGradient id="radial-gradient-41" cx="1399.5" cy="482.26" r="117.66" gradientTransform="matrix(1, -0.03, -0.03, -1, -456.45, 1668.37)" xlink:href="#radial-gradient-9"/><radialGradient id="radial-gradient-48" cx="-875.3" cy="2644.56" r="129.03" gradientTransform="matrix(-0.67, -0.74, -0.74, 0.67, 2310.63, -1149.69)" xlink:href="#radial-gradient-9"/></defs><title>lets-colab</title><g id="Layer_2" data-name="Layer 2"><rect class="cls-1" width="3484.41" height="1760.72"/><path class="cls-2" d="M669.67,1484.13H622.4a196,196,0,0,0-22.18-54l33.3-33.3a20.53,20.53,0,0,0,0-28.92l-38.77-38.77a20.53,20.53,0,0,0-28.92,0l-33.09,33.12a197.21,197.21,0,0,0-54.21-22.55V1293a20.49,20.49,0,0,0-20.43-20.44H403.27A20.49,20.49,0,0,0,382.84,1293v46.72a197.21,197.21,0,0,0-54.21,22.55l-33.1-33.12a20.52,20.52,0,0,0-28.91,0l-38.77,38.77a20.52,20.52,0,0,0,0,28.92l33.3,33.3a195.66,195.66,0,0,0-22.18,54H191.7a20.49,20.49,0,0,0-20.44,20.42V1532H345.47v-.75a85.24,85.24,0,0,1,170.47,0v.75H690.11v-27.42A20.49,20.49,0,0,0,669.67,1484.13Z"/><path class="cls-3" d="M430.68,1399.64A131.58,131.58,0,0,0,299.1,1531.22v.75h46.36v-.75a85.24,85.24,0,0,1,170.47,0v.75h46.36v-.75a131.58,131.58,0,0,0-131.6-131.58Z"/><g class="cls-4"><path class="cls-5" d="M1164.61,468.28h-49.82l-19.65-151.93,16.06,10.73,18-20.41,3,3c13.11,13,18.15,16.71,20,17.77,2-2.81,7.2-8.71,10.41-12.29l3.73-4.16,9.76,17.08,8.72-5.82Zm-42.74-8.06h35.72l16.83-121.29-1,.65-8.5-14.85c-3.73,4.27-5.87,6.91-6.26,7.54a6.67,6.67,0,0,1-4.86,3.48c-2.86.46-5.54.87-24.22-17.35l-17,19.29-7.18-4.8Zm29.71-131.72Z"/><path class="cls-6" d="M1188.67,468.28h-27.4l19.3-139.16-5.54,3.69-9.24-16.18c-3,3.3-8.23,9.22-10.55,12.31L1153,332l-3.17-2.12c-3.76-2.5-12.87-10.91-20.42-18.39l-17.59,19.95-12.44-8.29,18.79,145.13H1092L1033.47,347a121,121,0,0,1-8.4-17.43l-1.17-3h0a123.56,123.56,0,1,1,232.85-.3l.24.16-1.43,3.12a124.56,124.56,0,0,1-8.6,17.79Zm-18.15-8.06h13.09l56.29-116.76a118.4,118.4,0,0,0,8-16.5l.24-.64a115.5,115.5,0,1,0-215.67,0l.74,1.93a118,118,0,0,0,7.35,14.92L1097,460.22h12l-19.88-153.59,21.31,14.2,18.62-21.1,4.81,4.82c6.53,6.52,13.36,12.88,17.53,16.37,3.32-4,7.85-9,10-11.4l5.93-6.51,10.46,18.31,13.27-8.85Z"/><path class="cls-7" d="M1183.15,492.18h-85.67a11,11,0,0,1,0-22h85.67a11,11,0,0,1,0,22Zm-85.67-13.94a2.94,2.94,0,0,0,0,5.88h85.67a2.94,2.94,0,0,0,2.94-2.94,3,3,0,0,0-2.94-2.94Z"/><path class="cls-8" d="M1183.15,512.1h-85.67a11,11,0,0,1,0-22h85.67a11,11,0,0,1,0,22Zm-85.67-13.94a3,3,0,0,0,0,5.89h85.67a3,3,0,0,0,0-5.89Z"/><path class="cls-9" d="M1183.15,534h-85.67a11,11,0,0,1,0-22h85.67a11,11,0,0,1,0,22Zm-85.67-13.94a2.94,2.94,0,0,0,0,5.88h85.67a3,3,0,0,0,2.94-2.94,2.94,2.94,0,0,0-2.94-2.94Z"/><path class="cls-10" d="M1140.32,577.84A39.93,39.93,0,0,1,1100.43,538v-4h79.77v4A39.93,39.93,0,0,1,1140.32,577.84ZM1108.74,542a31.83,31.83,0,0,0,63.15,0Z"/></g><g class="cls-4"><path class="cls-5" d="M1164.61,468.28h-49.82l-19.65-151.93,16.06,10.73,18-20.41,3,3c13.11,13,18.15,16.71,20,17.77,2-2.81,7.2-8.71,10.41-12.29l3.73-4.16,9.76,17.08,8.72-5.82Zm-42.74-8.06h35.72l16.83-121.29-1,.65-8.5-14.85c-3.73,4.27-5.87,6.91-6.26,7.54a6.67,6.67,0,0,1-4.86,3.48c-2.86.46-5.54.87-24.22-17.35l-17,19.29-7.18-4.8Zm29.71-131.72Z"/><path class="cls-6" d="M1188.67,468.28h-27.4l19.3-139.16-5.54,3.69-9.24-16.18c-3,3.3-8.23,9.22-10.55,12.31L1153,332l-3.17-2.12c-3.76-2.5-12.87-10.91-20.42-18.39l-17.59,19.95-12.44-8.29,18.79,145.13H1092L1033.47,347a121,121,0,0,1-8.4-17.43l-1.17-3h0a123.56,123.56,0,1,1,232.85-.3l.24.16-1.43,3.12a124.56,124.56,0,0,1-8.6,17.79Zm-18.15-8.06h13.09l56.29-116.76a118.4,118.4,0,0,0,8-16.5l.24-.64a115.5,115.5,0,1,0-215.67,0l.74,1.93a118,118,0,0,0,7.35,14.92L1097,460.22h12l-19.88-153.59,21.31,14.2,18.62-21.1,4.81,4.82c6.53,6.52,13.36,12.88,17.53,16.37,3.32-4,7.85-9,10-11.4l5.93-6.51,10.46,18.31,13.27-8.85Z"/><path class="cls-7" d="M1183.15,492.18h-85.67a11,11,0,0,1,0-22h85.67a11,11,0,0,1,0,22Zm-85.67-13.94a2.94,2.94,0,0,0,0,5.88h85.67a2.94,2.94,0,0,0,2.94-2.94,3,3,0,0,0-2.94-2.94Z"/><path class="cls-8" d="M1183.15,512.1h-85.67a11,11,0,0,1,0-22h85.67a11,11,0,0,1,0,22Zm-85.67-13.94a3,3,0,0,0,0,5.89h85.67a3,3,0,0,0,0-5.89Z"/><path class="cls-9" d="M1183.15,534h-85.67a11,11,0,0,1,0-22h85.67a11,11,0,0,1,0,22Zm-85.67-13.94a2.94,2.94,0,0,0,0,5.88h85.67a3,3,0,0,0,2.94-2.94,2.94,2.94,0,0,0-2.94-2.94Z"/><path class="cls-10" d="M1140.32,577.84A39.93,39.93,0,0,1,1100.43,538v-4h79.77v4A39.93,39.93,0,0,1,1140.32,577.84ZM1108.74,542a31.83,31.83,0,0,0,63.15,0Z"/></g><g class="cls-4"><path class="cls-5" d="M1164.61,468.28h-49.82l-19.65-151.93,16.06,10.73,18-20.41,3,3c13.11,13,18.15,16.71,20,17.77,2-2.81,7.2-8.71,10.41-12.29l3.73-4.16,9.76,17.08,8.72-5.82Zm-42.74-8.06h35.72l16.83-121.29-1,.65-8.5-14.85c-3.73,4.27-5.87,6.91-6.26,7.54a6.67,6.67,0,0,1-4.86,3.48c-2.86.46-5.54.87-24.22-17.35l-17,19.29-7.18-4.8Zm29.71-131.72Z"/><path class="cls-6" d="M1188.67,468.28h-27.4l19.3-139.16-5.54,3.69-9.24-16.18c-3,3.3-8.23,9.22-10.55,12.31L1153,332l-3.17-2.12c-3.76-2.5-12.87-10.91-20.42-18.39l-17.59,19.95-12.44-8.29,18.79,145.13H1092L1033.47,347a121,121,0,0,1-8.4-17.43l-1.17-3h0a123.56,123.56,0,1,1,232.85-.3l.24.16-1.43,3.12a124.56,124.56,0,0,1-8.6,17.79Zm-18.15-8.06h13.09l56.29-116.76a118.4,118.4,0,0,0,8-16.5l.24-.64a115.5,115.5,0,1,0-215.67,0l.74,1.93a118,118,0,0,0,7.35,14.92L1097,460.22h12l-19.88-153.59,21.31,14.2,18.62-21.1,4.81,4.82c6.53,6.52,13.36,12.88,17.53,16.37,3.32-4,7.85-9,10-11.4l5.93-6.51,10.46,18.31,13.27-8.85Z"/><path class="cls-7" d="M1183.15,492.18h-85.67a11,11,0,0,1,0-22h85.67a11,11,0,0,1,0,22Zm-85.67-13.94a2.94,2.94,0,0,0,0,5.88h85.67a2.94,2.94,0,0,0,2.94-2.94,3,3,0,0,0-2.94-2.94Z"/><path class="cls-8" d="M1183.15,512.1h-85.67a11,11,0,0,1,0-22h85.67a11,11,0,0,1,0,22Zm-85.67-13.94a3,3,0,0,0,0,5.89h85.67a3,3,0,0,0,0-5.89Z"/><path class="cls-9" d="M1183.15,534h-85.67a11,11,0,0,1,0-22h85.67a11,11,0,0,1,0,22Zm-85.67-13.94a2.94,2.94,0,0,0,0,5.88h85.67a3,3,0,0,0,2.94-2.94,2.94,2.94,0,0,0-2.94-2.94Z"/><path class="cls-10" d="M1140.32,577.84A39.93,39.93,0,0,1,1100.43,538v-4h79.77v4A39.93,39.93,0,0,1,1140.32,577.84ZM1108.74,542a31.83,31.83,0,0,0,63.15,0Z"/></g><g class="cls-4"><path class="cls-5" d="M1164.61,468.28h-49.82l-19.65-151.93,16.06,10.73,18-20.41,3,3c13.11,13,18.15,16.71,20,17.77,2-2.81,7.2-8.71,10.41-12.29l3.73-4.16,9.76,17.08,8.72-5.82Zm-42.74-8.06h35.72l16.83-121.29-1,.65-8.5-14.85c-3.73,4.27-5.87,6.91-6.26,7.54a6.67,6.67,0,0,1-4.86,3.48c-2.86.46-5.54.87-24.22-17.35l-17,19.29-7.18-4.8Zm29.71-131.72Z"/><path class="cls-6" d="M1188.67,468.28h-27.4l19.3-139.16-5.54,3.69-9.24-16.18c-3,3.3-8.23,9.22-10.55,12.31L1153,332l-3.17-2.12c-3.76-2.5-12.87-10.91-20.42-18.39l-17.59,19.95-12.44-8.29,18.79,145.13H1092L1033.47,347a121,121,0,0,1-8.4-17.43l-1.17-3h0a123.56,123.56,0,1,1,232.85-.3l.24.16-1.43,3.12a124.56,124.56,0,0,1-8.6,17.79Zm-18.15-8.06h13.09l56.29-116.76a118.4,118.4,0,0,0,8-16.5l.24-.64a115.5,115.5,0,1,0-215.67,0l.74,1.93a118,118,0,0,0,7.35,14.92L1097,460.22h12l-19.88-153.59,21.31,14.2,18.62-21.1,4.81,4.82c6.53,6.52,13.36,12.88,17.53,16.37,3.32-4,7.85-9,10-11.4l5.93-6.51,10.46,18.31,13.27-8.85Z"/><path class="cls-7" d="M1183.15,492.18h-85.67a11,11,0,0,1,0-22h85.67a11,11,0,0,1,0,22Zm-85.67-13.94a2.94,2.94,0,0,0,0,5.88h85.67a2.94,2.94,0,0,0,2.94-2.94,3,3,0,0,0-2.94-2.94Z"/><path class="cls-8" d="M1183.15,512.1h-85.67a11,11,0,0,1,0-22h85.67a11,11,0,0,1,0,22Zm-85.67-13.94a3,3,0,0,0,0,5.89h85.67a3,3,0,0,0,0-5.89Z"/><path class="cls-9" d="M1183.15,534h-85.67a11,11,0,0,1,0-22h85.67a11,11,0,0,1,0,22Zm-85.67-13.94a2.94,2.94,0,0,0,0,5.88h85.67a3,3,0,0,0,2.94-2.94,2.94,2.94,0,0,0-2.94-2.94Z"/><path class="cls-10" d="M1140.32,577.84A39.93,39.93,0,0,1,1100.43,538v-4h79.77v4A39.93,39.93,0,0,1,1140.32,577.84ZM1108.74,542a31.83,31.83,0,0,0,63.15,0Z"/></g><path class="cls-11" d="M2228.38,946.64,1800.8,1620.72c-44.9-32.87-58.26-92.68-36.45-174.17.19-.74.39-1.49.59-2.24,9.5-34.64,25.28-73.15,47.65-115.14.33-.65.67-1.29,1-1.93q30.5-56.94,77.26-122,3.47-4.83,7-9.52c.4-.54.81-1.08,1.21-1.63a759.09,759.09,0,0,1,130-135.46c.5-.41,1-.8,1.49-1.19C2136.61,971.93,2228.38,946.64,2228.38,946.64Z"/><path class="cls-12" d="M2043.32,1506.76l-1.5,1.86c-89.9,111.33-175.35,147.87-241,112.1L2228.4,946.64s10.54,60.91-2.18,153.83c-.07.63-.17,1.25-.26,1.87a733.75,733.75,0,0,1-36.78,148c-.25.7-.49,1.4-.75,2.1a772.49,772.49,0,0,1-50.1,109.72q-4.07,7.35-8.15,14.49l-1.11,2C2100.36,1428.78,2071.63,1471.46,2043.32,1506.76Z"/><g class="cls-13"><path class="cls-14" d="M2061.14,1211.42l-.83.17-.81.16L2029,1058.59c.5-.41,1-.8,1.49-1.19L2061,1210.55Z"/></g><g class="cls-13"><path class="cls-14" d="M2225.94,1102.34l-123.71,44.4-.55-1.59,1-.36,123.52-44.32C2226.13,1101.1,2226,1101.72,2225.94,1102.34Z"/></g><g class="cls-15"><path class="cls-14" d="M2188.41,1252.44l-202.27,77.35-.3-.79-.3-.79,1.06-.41,202.56-77.46C2188.91,1251,2188.67,1251.74,2188.41,1252.44Z"/></g><g class="cls-15"><path class="cls-14" d="M1959.82,1371l-.79.27-.79.28-60.4-175.86c.4-.54.81-1.08,1.21-1.63l60.56,176.3Z"/></g><g class="cls-13"><path class="cls-14" d="M1883,1492.12l-.78.32-.79.32-68.79-163.59c.33-.65.67-1.29,1-1.93l69.11,164.33Z"/></g><g class="cls-13"><path class="cls-14" d="M2129.05,1378.62l-203.21,46.08-.19-.82-.17-.83.81-.18,203.87-46.22C2129.79,1377.31,2129.43,1378,2129.05,1378.62Z"/></g><g class="cls-13"><path class="cls-14" d="M2043.32,1506.76l-1.5,1.86L1859.61,1529l-.1-.82-.09-.83.67-.08Z"/></g><g class="cls-13"><path class="cls-14" d="M1838.19,1562.47l-.72.44-.72.44-72.4-116.8c.19-.74.39-1.49.59-2.24l73,117.8Z"/></g><path class="cls-16" d="M2453.46,1358.3l-534.83,277.59c-23.1-50.57-14-104.09,28.3-154.47l1.16-1.4c18.15-21.28,42.24-42,72.36-61.71l1.38-.91c27.32-17.74,59.54-34.64,96.72-50.35,2.76-1.17,5.51-2.29,8.25-3.39l1.42-.57a453.44,453.44,0,0,1,140.43-31l1.5-.08C2376.76,1326.06,2453.46,1358.3,2453.46,1358.3Z"/><path class="cls-17" d="M2136.37,1684.84l-1.72.59c-102.75,35-178.31,15-216-49.54l534.83-277.59s-11.55,52.78-50.71,117.08c-.26.44-.52.87-.79,1.29a467.62,467.62,0,0,1-74.72,93.11L2326,1571a450.49,450.49,0,0,1-72.47,56.17q-5.39,3.36-10.72,6.55c-.49.31-1,.59-1.46.89C2203.9,1657,2168.8,1673.64,2136.37,1684.84Z"/><g class="cls-13"><path class="cls-14" d="M2243.91,1467.74l-.67-.33-.67-.34,26.08-135,1.5-.08-26.09,135Z"/></g><g class="cls-13"><path class="cls-14" d="M2402,1476.67l-106.69-35.53.1-1.53.87.29,106.51,35.48C2402.49,1475.82,2402.23,1476.25,2402,1476.67Z"/></g><g class="cls-15"><path class="cls-14" d="M2326,1571l-176-54.44V1515l.92.29,176.21,54.51Z"/></g><g class="cls-15"><path class="cls-14" d="M2117.23,1533.4l-.68-.24-.68-.23,10.93-169.27,1.42-.57-10.95,169.7Z"/></g><g class="cls-13"><path class="cls-14" d="M2021.09,1583.26l-.68-.19-.69-.2.73-164.56,1.38-.91-.74,165.31Z"/></g><g class="cls-13"><path class="cls-14" d="M2241.36,1634.58l-166.68-79,.12-.73.14-.73.66.32,167.22,79.27Z"/></g><g class="cls-13"><path class="cls-14" d="M2136.37,1684.84l-1.72.59-142.77-87,.19-.69.2-.69.52.32Z"/></g><g class="cls-13"><path class="cls-14" d="M1965.17,1612.15l-.67-.07-.68-.06-16.89-130.6,1.16-1.4,17,131.74Z"/></g><rect class="cls-18" y="1519.4" width="3484.41" height="241.32"/><path class="cls-19" d="M1851.64,925.85H2099s-3.89-58.42-57.87-49c0,0-3-53.68-66.38-55.26S1908.34,858,1908.34,858,1839.33,861.12,1851.64,925.85Z"/><path class="cls-20" d="M1812.92,995.86H1929s-1.83-27.42-27.18-23c0,0-1.39-25.2-31.16-25.94s-31.16,17-31.16,17S1807.14,965.47,1812.92,995.86Z"/><path class="cls-21" d="M310.39,913.46H557.72s-3.89-58.42-57.88-48.94c0,0-3-53.69-66.37-55.26s-66.38,36.31-66.38,36.31S298.08,848.73,310.39,913.46Z"/><path class="cls-22" d="M481.35,1026.85H635s-2.42-36.29-36-30.41c0,0-1.85-33.35-41.24-34.33s-41.24,22.56-41.24,22.56S473.7,986.64,481.35,1026.85Z"/></g><g id="Layer_1-2" data-name="Layer 1"><circle class="cls-14" cx="868.06" cy="757.87" r="99.35"/><circle class="cls-14" cx="1169.05" cy="837.11" r="99.35"/><circle class="cls-14" cx="1461.82" cy="651" r="99.35"/><circle class="cls-14" cx="1479.23" cy="744.92" r="26.01"/><path class="cls-14" d="M1510.42,779.81a7.75,7.75,0,1,1-7.75-7.75h0A7.75,7.75,0,0,1,1510.42,779.81Z"/><circle class="cls-14" cx="1195.06" cy="924.63" r="26.01"/><path class="cls-14" d="M1226.26,959.52a7.75,7.75,0,1,1-7.76-7.74h0A7.75,7.75,0,0,1,1226.26,959.52Z"/><circle class="cls-14" cx="863.82" cy="846.55" r="26.01"/><path class="cls-14" d="M832.6,881.47a7.75,7.75,0,1,0,7.75-7.75,7.75,7.75,0,0,0-7.75,7.75Z"/><path class="cls-23" d="M1708.64,1502.22s-5.44,23.56-34.43,30.81c0,0-1.82,1.81,0,5.43,0,0,34.43-5.43,43.49-7.25l5.44-10.87,1.81,9.06,16.31-1.81s-5.43-23.56-16.31-30.81Z"/><path class="cls-24" d="M1634.33,1275.67s81.56,112.37,94.25,222.92l-19.94,3.63L1634.33,1350Z"/><path class="cls-25" d="M1610,1513.32s-13.72,16.75-46.34,18.61c0,0-4.05,7.44,0,7.44h47.12l12.69-7.44v7.44h18.12s-.8-16.75-7.65-26S1610,1513.32,1610,1513.32Z"/><path class="cls-26" d="M1578.15,1102.09l29.56,411.23h28s18.67-141.42,0-227c0,0,31.11-81.87,35.78-174.91C1671.49,1111.4,1590.59,1061.16,1578.15,1102.09Z"/><polygon class="cls-27" points="1617.35 1117.46 1624.82 1513.32 1605.73 1512.64 1578.48 1106.65 1617.35 1117.46"/><polygon class="cls-28" points="1506.72 994.61 1545.99 913.4 1548.84 988.58 1506.72 994.61"/><path class="cls-29" d="M1647.73,850.39s47,33.62,48.85,33.73-37.2,125.11-23.93,191l7,34.91s-88.55,23.84-110.26-8.29c0,0-17.79-160.82-17.79-222.54L1594,858.29Z"/><path class="cls-30" d="M1681.28,951.25s-10.28,48.39-9.79,61.39c0,0-11.13-28.85-11.13-42.79,0,0-55.79,18.59-53.47,18.59S1681.28,951.25,1681.28,951.25Z"/><path class="cls-31" d="M1591.11,820.15l3.6,46.67s10.28,33.93,53.55-16.14l-36.19-100.33Z"/><polygon class="cls-32" points="1591.11 820.14 1620.84 844.32 1644.11 839.17 1620.7 775.76 1591.11 820.14"/><path class="cls-33" d="M1570.85,771.87l7.94,51.08,34.8-10.27-6.5-75.61S1563.71,730.41,1570.85,771.87Z"/><path class="cls-34" d="M1611.5,790l-4.09-.24-3.61-31.67-10.42-8.82-22.13,5s-18,3.62-14.2-15.31c0,0,1.13,4.17,3.85,4.33,0,0-6-14,5.13-17.48,0,0-5.93,7.86,3.85,4.33s34.24-.72,45.87,10.9-4.25,49-4.25,49"/><path class="cls-35" d="M1609.25,762.21s24.14,5.83,2.33,27.11Z"/><path class="cls-36" d="M1604.59,996.36s14.49,5.86,16.63,6.18,8.3,17.75,8.3,17.75l-11,12.32s-2.32-7,7-11.62l-11.63-7-10.63-8.69Z"/><path class="cls-37" d="M1510.81,988.43s75.25,2.91,93.77,8l-1.36,9s-53.9,10.25-75.8,9.24S1499.53,999.78,1510.81,988.43Z"/><path class="cls-38" d="M1630.74,975.25c-32.66,14.89-68.71,29.54-86.54,30.81-37.14,2.64-5.24-158.43-5.24-158.43l9.15-1.28c20.94,109,9.29,126.71,9.29,126.71,28.93-35.5,51.19-32.77,72.31-45.75Z"/><path class="cls-39" d="M1548.11,846.35l8.09-14.05-1-14.58s-3.62-.21-3.94,5.22-.42,7.23-.42,7.23l-3-41.93s-3.51-2-4.15,8.83-.85,14.48-.85,14.48l-9.47,6.7,5.54,29.38Z"/><polygon class="cls-40" points="1538.96 847.63 1548.11 846.35 1549.45 853.45 1537.6 854.89 1538.96 847.63"/><path class="cls-41" d="M1544.17,851.57c-.17,3-2.34,5.3-4.84,5.16s-4.38-2.7-4.2-5.7,2.34-5.3,4.84-5.16S1544.35,848.57,1544.17,851.57Z"/><path class="cls-42" d="M1681.69,952.24s-35.44,18.52-75.36,36.74l-1.16-54.11c55.14-33.85,90.26-53,91.41-50.75C1708,906.58,1681.69,952.24,1681.69,952.24Z"/><path class="cls-43" d="M1611,782.51l-1.25-12S1622.08,771.85,1611,782.51Z"/><path class="cls-44" d="M749.39,1508.33c1.33,2.42,6.54,5.51,1.66,10.19s-30-13.75-30-13.75l-3.37-6.1-7.49,1.07-5.74-5.2s3.36-8.9,12.58-11.72Z"/><path class="cls-45" d="M741.14,1462.83l-7.64,17.65s6.35,16.88,14.53,26.29-33.53-21.06-33.53-21.06l8.86-10.07,6.12-16.81Z"/><path class="cls-46" d="M966.59,1502.19c2.76,0,8-3.06,9.73,3.47s-26.56,19.6-26.56,19.6h-7l-2.69,7.07-7.32,2.5s-6.17-7.24-4.17-16.68Z"/><path class="cls-47" d="M922.78,1487.39l11.75,15.23s17.85,2.61,30,0-34.65,19.16-34.65,19.16l-4.52-12.63-11.75-13.49Z"/><path class="cls-48" d="M926.37,1193.14s-5.88,1.63-7.51-1.31-2.94-2.94-2.94-2.94l-11.49,1.44,11-7Z"/><path class="cls-49" d="M637.33,1244.71l170,31.63-63.27,193.74-19.76-7.91s-4-106.75,31.63-142.34l-23.73-23.72s-130.47-19.77-130.47-23.72S637.33,1244.71,637.33,1244.71Z"/><polygon class="cls-50" points="755.84 958.76 690.62 1010.67 736.18 1027.25 759.9 1007.48 755.84 958.76"/><path class="cls-51" d="M878.51,1193.31s-67.32,2.88-118.6-35.58c-24.77-18.58-31.53-34.88-36.11-41.19l32.59-36.36c10,23.47,22.22,48.24,33.17,59.19,0,0,41.51,38.12,89,42.08Z"/><path class="cls-52" d="M756.39,1080.18l-32.59,36.36a40,40,0,0,1-3.52-5.4s-79,90.07-82.94,133.58h-94.9S583.8,1035,691.62,1005.45l44.55,21.8s8.25,24.57,19.52,51.28C755.92,1079.08,756.14,1079.63,756.39,1080.18Z"/><path class="cls-53" d="M929.92,1485.88l-8.63,5.19-11.14,6.69-94.9-94.89c-35.58-35.58-43.48-90.95-43.48-90.95h-174c-71.18,0-55.36-67.21-55.36-67.21H637.3l158.16,39.54Z"/><path class="cls-54" d="M921.29,1491.07l-11.14,6.69-94.9-94.89c-35.58-35.58-43.48-90.95-43.48-90.95h-174c-71.18,0-55.36-67.21-55.36-67.21h23.43s-8.74,45.3,67.51,45.92,156.18,5,156.18,5Z"/><path class="cls-55" d="M878.51,1181.45s18.48-6.92,31.21-3.66,25.79,15.35,25.79,15.35a6.24,6.24,0,0,1-8.82.32l-.32-.32a46,46,0,0,0-10.12-7.1s-16,6.77-25.14,7.1-12.6.17-12.6.17Z"/><polygon class="cls-14" points="929.48 1197.17 1041.27 1193.59 1041.27 1198.79 929.48 1198.79 929.48 1197.17"/><path class="cls-14" d="M1041.28,1193.59l3.36,1.58,15.78-51.81,7.9-26,17-55.75c-.42-2.11-3.16-1.06-3.16-1.06l-16.38,53.35-8.14,26.44Z"/><polygon class="cls-14" points="691.62 1005.44 704.55 995.27 739.55 1024.44 736.18 1027.25 691.62 1005.44"/><path class="cls-56" d="M756,960l-3.23,45.4,39.83,10.94,18.64-87.15S752,912.59,756,960Z"/><path class="cls-57" d="M760.66,955.76c-8.11,6.53-20-.87-17.59-11,2-8.18,5.06-16.17,9.85-20.71,7.92-7.5,15.67-8.57,20.37-8.33a9.87,9.87,0,0,0,7.25-2.56c4-3.62,12.35-7.48,26.07,4.12a33.1,33.1,0,0,0,12.41,7c13.57,3.77,9.44,23.74-4.47,21.49A53.78,53.78,0,0,1,802.28,942c-.3-.12-.6-.24-.91-.33L787,937.16A11,11,0,0,0,775,941l-5.49,7.21a11.09,11.09,0,0,1-1.7,1.79C766.49,951,764.05,953,760.66,955.76Z"/><path class="cls-58" d="M765,952.27s-2.46-7.67-8-7.2-9.67,12.88-.68,19.62Z"/><polygon class="cls-59" points="768.7 949.18 765.96 960.04 759.9 962.24 763.51 945.05 768.7 949.18"/><polygon class="cls-60" points="1082.14 1060.58 981.99 973.28 925 1148.22 1041.27 1193.59 1082.14 1060.58"/><path class="cls-61" d="M720.27,1111.14s-7.44-9.81-17.56-33L660,1191.8S694.85,1135.69,720.27,1111.14Z"/><polygon class="cls-62" points="1776.49 1201.97 1804.28 1536.45 1795.38 1536.45 1756.5 1201.97 1776.49 1201.97"/><polygon class="cls-63" points="808.98 1201.97 781.19 1536.45 790.09 1536.45 828.97 1201.97 808.98 1201.97"/><rect class="cls-64" x="745.02" y="1198.68" width="1103" height="17.79"/><polygon class="cls-65" points="697.39 1337.19 725.18 1536.45 716.29 1536.45 677.4 1337.19 697.39 1337.19"/><rect class="cls-65" x="537.73" y="1311.92" width="160.79" height="25.27"/><polygon class="cls-65" points="537.73 1337.19 509.94 1536.45 518.84 1536.45 557.72 1337.19 537.73 1337.19"/><polygon class="cls-65" points="1387.18 1337.19 1414.97 1536.45 1406.07 1536.45 1367.19 1337.19 1387.18 1337.19"/><rect class="cls-65" x="1227.52" y="1315.84" width="160.79" height="21.35"/><path class="cls-66" d="M1327.74,1048.67s54.34,15.69,60.57,53.94,0,96.07,0,96.07H1278.58s14.87-24.91-1.75-56.93-8.81-45,24.65-75.86Z"/><path class="cls-67" d="M1348.09,950s17.69,27,13.83,50.44-43.88,41.43-81.84,26.49-10.67-57.63-10.67-57.63Z"/><path class="cls-68" d="M1326.41,995.47c-.51,2.31,1.81,67.23,1.81,67.23s-16,10.52-26.74,3.19v-53Z"/><polygon class="cls-69" points="1326.41 995.47 1326.89 1022.39 1327.61 1044.84 1301.48 1034.24 1301.38 1023.88 1326.41 995.47"/><path class="cls-70" d="M1275.92,964.58s-7.67,39.27,24.09,62.35c0,0,33.94-2.16,27.37-66.73S1266.06,931.7,1275.92,964.58Z"/><path class="cls-71" d="M1290.15,942.72s2.77,37.4,38.07,32.94c0,0,25.44-1.19,18.87-32.94S1278.11,882.5,1290.15,942.72Z"/><path class="cls-72" d="M1290.15,942.72s-.36,31.58-17.88,33.31-7.3-62.18,17.88-57.78Z"/><path class="cls-73" d="M1326.73,979.37s11.77-3.09,10,5.8-10.74,7.56-10.74,7.56Z"/><polygon class="cls-74" points="1325.98 1198.68 1159.7 1198.68 1129.05 1080.9 1295.33 1080.9 1325.98 1198.68"/><path class="cls-75" d="M1298.47,1045.23s27.57,4,36.47-3.79,9.46,22.73-3.5,27-36.53,8.76-36.53-1.91S1289.57,1048.79,1298.47,1045.23Z"/><path class="cls-76" d="M1341.42,1053.87s18.69,45.53,21,89.66c0,0-12.41,10.67-16.86,4.89s-8.71-84.08-8.71-84.08S1336.13,1051.37,1341.42,1053.87Z"/><path class="cls-77" d="M1336.9,1064.34s-10.5,36.94-2.85,49.83l7.65,12.89Z"/><circle class="cls-14" cx="1220.45" cy="1150.14" r="16.64"/><path class="cls-78" d="M1370.33,1216.47s6.86,34.69,8.2,57.38-6.37,56-89.92,52-13.88-109.42-13.88-109.42Z"/><path class="cls-79" d="M1336.48,1475a23,23,0,0,1-14.07-.34c-21.36-38.64-93.68-172.24-85.32-195,9.79-26.68,39.75-10.44,39.75-10.44l38,142.11Z"/><path class="cls-80" d="M1309.78,1320.77c-1.43,30.69,30,122.54,42.41,157.62-4.41,3.72-10.76,5.23-10.76,5.23-18.54-30-55.83-94.87-73-157.41-23.4-85.07,52.75-61.7,77.21-54.87s16.86,40.87,16.86,40.87C1343.3,1330.12,1309.78,1320.77,1309.78,1320.77Z"/><path class="cls-81" d="M1341.43,1489.56s-7.39,23.14-15.45,25.8,2.24-30.24,2.24-30.24-2.16-3.84-5.81-10.46a23,23,0,0,0,14.07.34Z"/><path class="cls-81" d="M1363.59,1496.68s-1.07,24-11.24,27,0-23,0-23-4.24-6.26-10.92-17h0s6.35-1.51,10.76-5.23c3.07,8.64,5,13.85,5,13.85Z"/><polygon class="cls-65" points="1227.52 1337.19 1199.72 1536.45 1208.62 1536.45 1247.51 1337.19 1227.52 1337.19"/><path class="cls-82" d="M1388.31,1198.68H1326l-3.57-7.83,36.72-9.48S1383.37,1187.54,1388.31,1198.68Z"/><rect class="cls-14" x="873.38" y="1179.48" width="6.32" height="14.54"/><path class="cls-83" d="M881,1180a4.43,4.43,0,1,1-4.44-4.42h0A4.44,4.44,0,0,1,881,1180Z"/><path class="cls-84" d="M826.57,926.4s-41.72,5.89-67.36,30a70.18,70.18,0,0,0-7.56,8.33c-23.85,31.07-12.91-25.39-2.78-42.25,0,0-12.54.83-6.06-6.31s-6.48-4.22,0-9.28c5.7-4.44,12.6-8.91,27.71-8.15h0c2,.07,4.22.28,6.56.57,19.8,2.53,22.75,10.22,22.75,10.22S818.3,916.44,826.57,926.4Z"/><path class="cls-85" d="M759.65,921.16l16.9-5.44s-19.68,19.37-24.31,34.12c-2.44,7.75,2.11,8,7,6.53a70.18,70.18,0,0,0-7.56,8.33c-23.85,31.07-12.91-25.39-2.78-42.25,0,0-12.54.83-6.06-6.31s-6.48-4.22,0-9.28c5.7-4.44,12.6-8.91,27.71-8.15-14.5,1.39-18.74,8.65-19.82,10.79s11.36.18,12.39,0c-.63.16-5.42,1.47-11.54,6.18-6.57,5.06,26.8-6.2,26.8-6.2Z"/><polyline class="cls-14" points="751.09 1067.36 720.27 1111.14 723.79 1116.54 756.39 1080.18"/><path class="cls-86" d="M1489.45,606.79a17.15,17.15,0,0,0-4.91,7.85l-20.16-22-22,20.16a17.32,17.32,0,1,0-21.9,20.05l-22,20.16,21.16,23.1a17.31,17.31,0,1,1,18.06,19.72l21.15,23.09,65.91-60.37-20.15-22a17.14,17.14,0,0,0,8.24-4.2,17.32,17.32,0,0,0-22.84-26c-.19.16-.37.33-.55.5Z"/><path class="cls-87" d="M922.22,746.45a17.49,17.49,0,0,1-9.27,1.83l13.66,27.23-27.23,13.67a17.67,17.67,0,1,1-27.09,13.59l-27.23,13.66-14.34-28.57a17.68,17.68,0,1,0-12.24-24.4l-14.34-28.58L885.69,694l13.67,27.23a17.68,17.68,0,1,1,22.86,25.26Z"/><path class="cls-88" d="M1146.24,813.64a12.23,12.23,0,0,1,4,5.21L1163,802l16.83,12.77a12.26,12.26,0,1,1,16.74,12.71l16.82,12.77L1200,857.94A12.26,12.26,0,1,0,1188.52,873l-13.41,17.66-50.39-38.26,12.78-16.83a12.26,12.26,0,1,1,8.74-22Z"/><polygon class="cls-34" points="1607.41 789.75 1597.85 810.04 1577.43 814.2 1577.43 827.22 1613.59 812.68 1611.58 789.32 1607.41 789.75"/><polygon class="cls-34" points="1574.14 793.03 1591.82 793.03 1595.51 799.41 1574.14 799.41 1574.14 793.03"/><g class="cls-89"><g class="cls-4"><path class="cls-14" d="M1164.61,468.28h-49.82l-19.65-151.93,16.06,10.73,18-20.41,3,3c13.11,13,18.15,16.71,20,17.77,2-2.81,7.2-8.71,10.41-12.29l3.73-4.16,9.76,17.08,8.72-5.82Zm-42.74-8.06h35.72l16.83-121.29-1,.65-8.5-14.85c-3.73,4.27-5.87,6.91-6.26,7.54a6.67,6.67,0,0,1-4.86,3.48c-2.86.46-5.54.87-24.22-17.35l-17,19.29-7.18-4.8Zm29.71-131.72Z"/><path class="cls-14" d="M1188.67,468.28h-27.4l19.3-139.16-5.54,3.69-9.24-16.18c-3,3.3-8.23,9.22-10.55,12.31L1153,332l-3.17-2.12c-3.76-2.5-12.87-10.91-20.42-18.39l-17.59,19.95-12.44-8.29,18.79,145.13H1092L1033.47,347a121,121,0,0,1-8.4-17.43l-1.17-3h0a123.56,123.56,0,1,1,232.85-.3l.24.16-1.43,3.12a124.56,124.56,0,0,1-8.6,17.79Zm-18.15-8.06h13.09l56.29-116.76a118.4,118.4,0,0,0,8-16.5l.24-.64a115.5,115.5,0,1,0-215.67,0l.74,1.93a118,118,0,0,0,7.35,14.92L1097,460.22h12l-19.88-153.59,21.31,14.2,18.62-21.1,4.81,4.82c6.53,6.52,13.36,12.88,17.53,16.37,3.32-4,7.85-9,10-11.4l5.93-6.51,10.46,18.31,13.27-8.85Z"/><path class="cls-14" d="M1183.15,492.18h-85.67a11,11,0,0,1,0-22h85.67a11,11,0,0,1,0,22Zm-85.67-13.94a2.94,2.94,0,0,0,0,5.88h85.67a2.94,2.94,0,0,0,2.94-2.94,3,3,0,0,0-2.94-2.94Z"/><path class="cls-14" d="M1183.15,512.1h-85.67a11,11,0,0,1,0-22h85.67a11,11,0,0,1,0,22Zm-85.67-13.94a3,3,0,0,0,0,5.89h85.67a3,3,0,0,0,0-5.89Z"/><path class="cls-14" d="M1183.15,534h-85.67a11,11,0,0,1,0-22h85.67a11,11,0,0,1,0,22Zm-85.67-13.94a2.94,2.94,0,0,0,0,5.88h85.67a3,3,0,0,0,2.94-2.94,2.94,2.94,0,0,0-2.94-2.94Z"/><path class="cls-14" d="M1140.32,577.84A39.93,39.93,0,0,1,1100.43,538v-4h79.77v4A39.93,39.93,0,0,1,1140.32,577.84ZM1108.74,542a31.83,31.83,0,0,0,63.15,0Z"/></g><g class="cls-4"><path class="cls-14" d="M1164.61,468.28h-49.82l-19.65-151.93,16.06,10.73,18-20.41,3,3c13.11,13,18.15,16.71,20,17.77,2-2.81,7.2-8.71,10.41-12.29l3.73-4.16,9.76,17.08,8.72-5.82Zm-42.74-8.06h35.72l16.83-121.29-1,.65-8.5-14.85c-3.73,4.27-5.87,6.91-6.26,7.54a6.67,6.67,0,0,1-4.86,3.48c-2.86.46-5.54.87-24.22-17.35l-17,19.29-7.18-4.8Zm29.71-131.72Z"/><path class="cls-14" d="M1188.67,468.28h-27.4l19.3-139.16-5.54,3.69-9.24-16.18c-3,3.3-8.23,9.22-10.55,12.31L1153,332l-3.17-2.12c-3.76-2.5-12.87-10.91-20.42-18.39l-17.59,19.95-12.44-8.29,18.79,145.13H1092L1033.47,347a121,121,0,0,1-8.4-17.43l-1.17-3h0a123.56,123.56,0,1,1,232.85-.3l.24.16-1.43,3.12a124.56,124.56,0,0,1-8.6,17.79Zm-18.15-8.06h13.09l56.29-116.76a118.4,118.4,0,0,0,8-16.5l.24-.64a115.5,115.5,0,1,0-215.67,0l.74,1.93a118,118,0,0,0,7.35,14.92L1097,460.22h12l-19.88-153.59,21.31,14.2,18.62-21.1,4.81,4.82c6.53,6.52,13.36,12.88,17.53,16.37,3.32-4,7.85-9,10-11.4l5.93-6.51,10.46,18.31,13.27-8.85Z"/><path class="cls-14" d="M1183.15,492.18h-85.67a11,11,0,0,1,0-22h85.67a11,11,0,0,1,0,22Zm-85.67-13.94a2.94,2.94,0,0,0,0,5.88h85.67a2.94,2.94,0,0,0,2.94-2.94,3,3,0,0,0-2.94-2.94Z"/><path class="cls-14" d="M1183.15,512.1h-85.67a11,11,0,0,1,0-22h85.67a11,11,0,0,1,0,22Zm-85.67-13.94a3,3,0,0,0,0,5.89h85.67a3,3,0,0,0,0-5.89Z"/><path class="cls-14" d="M1183.15,534h-85.67a11,11,0,0,1,0-22h85.67a11,11,0,0,1,0,22Zm-85.67-13.94a2.94,2.94,0,0,0,0,5.88h85.67a3,3,0,0,0,2.94-2.94,2.94,2.94,0,0,0-2.94-2.94Z"/><path class="cls-14" d="M1140.32,577.84A39.93,39.93,0,0,1,1100.43,538v-4h79.77v4A39.93,39.93,0,0,1,1140.32,577.84ZM1108.74,542a31.83,31.83,0,0,0,63.15,0Z"/></g></g><path class="cls-90" d="M1124.72,603s2.3,43.49-27.25,31.78S977.8,481.73,925,534s-61.2,95.79-61.2,95.79"/><path class="cls-90" d="M1160.63,592.63s9.5,60.6,60.44,27.14S1276.53,535,1247.5,523s-74.44,76.27,83.76,80"/><path class="cls-90" d="M1140.31,592.63s28.9,55.58,0,75.65-55.71,26.3-42.84,57.48"/><g class="cls-4"><path class="cls-5" d="M1164.61,468.28h-49.82l-19.65-151.93,16.06,10.73,18-20.41,3,3c13.11,13,18.15,16.71,20,17.77,2-2.81,7.2-8.71,10.41-12.29l3.73-4.16,9.76,17.08,8.72-5.82Zm-42.74-8.06h35.72l16.83-121.29-1,.65-8.5-14.85c-3.73,4.27-5.87,6.91-6.26,7.54a6.67,6.67,0,0,1-4.86,3.48c-2.86.46-5.54.87-24.22-17.35l-17,19.29-7.18-4.8Zm29.71-131.72Z"/><path class="cls-6" d="M1188.67,468.28h-27.4l19.3-139.16-5.54,3.69-9.24-16.18c-3,3.3-8.23,9.22-10.55,12.31L1153,332l-3.17-2.12c-3.76-2.5-12.87-10.91-20.42-18.39l-17.59,19.95-12.44-8.29,18.79,145.13H1092L1033.47,347a121,121,0,0,1-8.4-17.43l-1.17-3h0a123.56,123.56,0,1,1,232.85-.3l.24.16-1.43,3.12a124.56,124.56,0,0,1-8.6,17.79Zm-18.15-8.06h13.09l56.29-116.76a118.4,118.4,0,0,0,8-16.5l.24-.64a115.5,115.5,0,1,0-215.67,0l.74,1.93a118,118,0,0,0,7.35,14.92L1097,460.22h12l-19.88-153.59,21.31,14.2,18.62-21.1,4.81,4.82c6.53,6.52,13.36,12.88,17.53,16.37,3.32-4,7.85-9,10-11.4l5.93-6.51,10.46,18.31,13.27-8.85Z"/><path class="cls-7" d="M1183.15,492.18h-85.67a11,11,0,0,1,0-22h85.67a11,11,0,0,1,0,22Zm-85.67-13.94a2.94,2.94,0,0,0,0,5.88h85.67a2.94,2.94,0,0,0,2.94-2.94,3,3,0,0,0-2.94-2.94Z"/><path class="cls-8" d="M1183.15,512.1h-85.67a11,11,0,0,1,0-22h85.67a11,11,0,0,1,0,22Zm-85.67-13.94a3,3,0,0,0,0,5.89h85.67a3,3,0,0,0,0-5.89Z"/><path class="cls-9" d="M1183.15,534h-85.67a11,11,0,0,1,0-22h85.67a11,11,0,0,1,0,22Zm-85.67-13.94a2.94,2.94,0,0,0,0,5.88h85.67a3,3,0,0,0,2.94-2.94,2.94,2.94,0,0,0-2.94-2.94Z"/><path class="cls-10" d="M1140.32,577.84A39.93,39.93,0,0,1,1100.43,538v-4h79.77v4A39.93,39.93,0,0,1,1140.32,577.84ZM1108.74,542a31.83,31.83,0,0,0,63.15,0Z"/></g><g class="cls-4"><path class="cls-5" d="M1164.61,468.28h-49.82l-19.65-151.93,16.06,10.73,18-20.41,3,3c13.11,13,18.15,16.71,20,17.77,2-2.81,7.2-8.71,10.41-12.29l3.73-4.16,9.76,17.08,8.72-5.82Zm-42.74-8.06h35.72l16.83-121.29-1,.65-8.5-14.85c-3.73,4.27-5.87,6.91-6.26,7.54a6.67,6.67,0,0,1-4.86,3.48c-2.86.46-5.54.87-24.22-17.35l-17,19.29-7.18-4.8Zm29.71-131.72Z"/><path class="cls-6" d="M1188.67,468.28h-27.4l19.3-139.16-5.54,3.69-9.24-16.18c-3,3.3-8.23,9.22-10.55,12.31L1153,332l-3.17-2.12c-3.76-2.5-12.87-10.91-20.42-18.39l-17.59,19.95-12.44-8.29,18.79,145.13H1092L1033.47,347a121,121,0,0,1-8.4-17.43l-1.17-3h0a123.56,123.56,0,1,1,232.85-.3l.24.16-1.43,3.12a124.56,124.56,0,0,1-8.6,17.79Zm-18.15-8.06h13.09l56.29-116.76a118.4,118.4,0,0,0,8-16.5l.24-.64a115.5,115.5,0,1,0-215.67,0l.74,1.93a118,118,0,0,0,7.35,14.92L1097,460.22h12l-19.88-153.59,21.31,14.2,18.62-21.1,4.81,4.82c6.53,6.52,13.36,12.88,17.53,16.37,3.32-4,7.85-9,10-11.4l5.93-6.51,10.46,18.31,13.27-8.85Z"/><path class="cls-7" d="M1183.15,492.18h-85.67a11,11,0,0,1,0-22h85.67a11,11,0,0,1,0,22Zm-85.67-13.94a2.94,2.94,0,0,0,0,5.88h85.67a2.94,2.94,0,0,0,2.94-2.94,3,3,0,0,0-2.94-2.94Z"/><path class="cls-8" d="M1183.15,512.1h-85.67a11,11,0,0,1,0-22h85.67a11,11,0,0,1,0,22Zm-85.67-13.94a3,3,0,0,0,0,5.89h85.67a3,3,0,0,0,0-5.89Z"/><path class="cls-9" d="M1183.15,534h-85.67a11,11,0,0,1,0-22h85.67a11,11,0,0,1,0,22Zm-85.67-13.94a2.94,2.94,0,0,0,0,5.88h85.67a3,3,0,0,0,2.94-2.94,2.94,2.94,0,0,0-2.94-2.94Z"/><path class="cls-10" d="M1140.32,577.84A39.93,39.93,0,0,1,1100.43,538v-4h79.77v4A39.93,39.93,0,0,1,1140.32,577.84ZM1108.74,542a31.83,31.83,0,0,0,63.15,0Z"/></g><g class="cls-91"><path class="cls-14" d="M1467.28,1182.25s-33.06-7.55-40.62-55.73l34.95-8.5s11.34,35.89,35,39.67C1496.56,1157.69,1475.78,1175.64,1467.28,1182.25Z"/><path class="cls-92" d="M1435.25,1131.71l-.17-.93c.15,0,15.15-2.87,23.51-6.58l.38.86C1450.52,1128.82,1435.4,1131.68,1435.25,1131.71Z"/><path class="cls-92" d="M1437.12,1136.44l-.13-.94c.14,0,14.2-1.93,23.47-6.57l.42.85C1451.47,1134.48,1437.26,1136.42,1437.12,1136.44Z"/><path class="cls-92" d="M1440,1141.16l-.14-.94c.12,0,12.31-1.93,21.58-6.56l.42.84C1452.42,1139.2,1440.08,1141.14,1440,1141.16Z"/><path class="cls-92" d="M1442.8,1145.88l-.16-.93a58.35,58.35,0,0,0,10.3-2.81l.35.88A60.27,60.27,0,0,1,1442.8,1145.88Z"/><path class="cls-92" d="M1448.54,1155.31l-.3-.9c.17-.06,17-5.69,22.56-9.39l.52.79C1465.67,1149.58,1449.23,1155.08,1448.54,1155.31Z"/><path class="cls-92" d="M1452.27,1159.1l-.21-.92c.12,0,12.28-2.89,20.6-9.36l.58.74C1464.75,1156.16,1452.4,1159.07,1452.27,1159.1Z"/><path class="cls-92" d="M1455.12,1162.87l-.23-.91a35.09,35.09,0,0,0,8.37-3.73l.49.81A34.92,34.92,0,0,1,1455.12,1162.87Z"/><path class="cls-92" d="M1467.28,1172.33c-3,0-6.79-3.75-7-3.91l-.4-.41,17.8-11.87.27.27c1.73,1.73,6.24,1.76,6.28,1.76h1.32l-1,.83C1477.2,1165.08,1468.2,1172.33,1467.28,1172.33Zm-5.86-4.18c1,.94,3.78,3.24,5.86,3.24.88-.29,9.76-7.42,15.76-12.34-1.49-.13-4-.52-5.41-1.71Z"/></g><g class="cls-91"><path class="cls-14" d="M1566.09,1036.1s7.05,17.85-14.4,38.33l-15.63-13s14.11-17.88,8.27-30C1544.33,1031.34,1560,1034.54,1566.09,1036.1Z"/><path class="cls-93" d="M1551.46,1068.66l-.4.41c-.07-.06-6.38-6-11-8.47l.3-.48C1545,1062.67,1551.4,1068.6,1551.46,1068.66Z"/><path class="cls-93" d="M1553.2,1066.13l-.43.39c0-.06-5.59-5.83-10.92-8.45l.28-.49C1547.54,1060.24,1553.14,1066.08,1553.2,1066.13Z"/><path class="cls-93" d="M1554.61,1063.16l-.41.4a46.21,46.21,0,0,0-10.31-7.59l.28-.49A46.27,46.27,0,0,1,1554.61,1063.16Z"/><path class="cls-93" d="M1556,1060.19l-.41.4a30.1,30.1,0,0,0-4.76-3.73l.32-.47A31.85,31.85,0,0,1,1556,1060.19Z"/><path class="cls-93" d="M1558.84,1054.23l-.35.45c-.08-.06-8.38-5.8-12-7l.22-.52C1550.4,1048.39,1558.49,1054,1558.84,1054.23Z"/><path class="cls-93" d="M1559.5,1051.17l-.39.42s-5.44-4.61-11.37-6.14l.18-.53C1554,1046.48,1559.44,1051.13,1559.5,1051.17Z"/><path class="cls-93" d="M1560.44,1048.53l-.38.43a19,19,0,0,0-4.58-2.53l.24-.5A18.9,18.9,0,0,1,1560.44,1048.53Z"/><path class="cls-93" d="M1561.17,1039.61c1,1.37.35,4.44.32,4.57l-.07.33-11.71-4v-.22c.29-1.4-1.17-3.48-1.18-3.5l-.43-.61.75.17C1554.33,1037.62,1560.87,1039.19,1561.17,1039.61Zm-.17,4.16c.13-.8.38-2.87-.3-3.83-.43-.3-6.88-1.86-11.28-2.87a5.74,5.74,0,0,1,.93,3.08Z"/></g><g class="cls-91"><path class="cls-14" d="M1103.57,1116.77s36.41-8.9,67.74,35L1141,1177.45s-29-29.86-54.19-21.9C1086.79,1155.55,1098.44,1127.52,1103.57,1116.77Z"/><path class="cls-94" d="M1160.25,1150.86l.64.83c-.14.11-13.56,10.34-20,18.15l-.81-.66C1146.6,1161.28,1160.12,1151,1160.25,1150.86Z"/><path class="cls-94" d="M1156.07,1147.11l.59.87c-.13.09-13.08,8.94-19.94,18.11l-.84-.63C1142.85,1156.16,1155.94,1147.2,1156.07,1147.11Z"/><path class="cls-94" d="M1150.92,1143.86l.61.85c-.11.08-11.22,8-18.08,17.18l-.84-.63C1139.57,1152,1150.81,1143.94,1150.92,1143.86Z"/><path class="cls-94" d="M1145.78,1140.59l.61.85a64.94,64.94,0,0,0-8.78,7.87l-.78-.69A66.84,66.84,0,0,1,1145.78,1140.59Z"/><path class="cls-94" d="M1135.44,1134.12l.73.74c-.14.14-14,14.05-17.64,20.45l-.91-.52C1121.35,1148.27,1134.86,1134.69,1135.44,1134.12Z"/><path class="cls-94" d="M1129.87,1132.22l.66.81c-.1.09-10.7,8.93-15.72,19.45l-.94-.45C1119,1141.3,1129.76,1132.31,1129.87,1132.22Z"/><path class="cls-94" d="M1125.19,1129.9l.68.79a38.67,38.67,0,0,0-6.43,7.83l-.88-.56A38,38,0,0,1,1125.19,1129.9Z"/><path class="cls-95" d="M1108.48,1126.57c3-1.48,8.57.36,8.8.43l.61.21-11.72,20.54-.41-.13c-2.56-.85-7,1.36-7.07,1.38l-1.3.65.59-1.33C1102.27,1138.65,1107.57,1127,1108.48,1126.57Zm7.86,1.24c-1.49-.42-5.34-1.33-7.39-.3-.72.72-6,12.17-9.47,20,1.54-.61,4.17-1.45,6.2-1Z"/></g><g class="cls-91"><path class="cls-14" d="M1008.71,988s14.78-10.22,39.43,5.7l-8.08,17.29s-20.32-9.59-30.14-1.65C1009.92,1009.33,1008.83,994,1008.71,988Z"/><path class="cls-96" d="M1042.82,995.08l.49.29c0,.08-3.88,7.18-5,12l-.53-.18C1038.91,1002.31,1042.78,995.15,1042.82,995.08Z"/><path class="cls-96" d="M1040,994l.47.32c0,.07-4,6.43-5,12l-.53-.17C1036,1000.46,1040,994,1040,994Z"/><path class="cls-96" d="M1036.88,993.24l.48.31a41.39,41.39,0,0,0-4.39,11.2l-.53-.17A41.63,41.63,0,0,1,1036.88,993.24Z"/><path class="cls-96" d="M1033.75,992.52l.48.31A26.9,26.9,0,0,0,1032,998l-.52-.2A27.66,27.66,0,0,1,1033.75,992.52Z"/><path class="cls-96" d="M1027.47,991.1l.51.24c0,.09-3.22,9-3.43,12.69l-.54-.1C1024.22,1000.19,1027.33,991.47,1027.47,991.1Z"/><path class="cls-96" d="M1024.45,991.11l.5.27c0,.06-2.89,6-2.78,11.9l-.54-.06C1021.52,997.24,1024.42,991.17,1024.45,991.11Z"/><path class="cls-96" d="M1021.75,990.76l.5.26a17.36,17.36,0,0,0-1.17,4.81l-.53-.13A16.85,16.85,0,0,1,1021.75,990.76Z"/><path class="cls-97" d="M1013.25,991.89c1-1.19,4-1.23,4.17-1.23h.33l-.66,11.77h-.22c-1.39,0-2.94,1.8-3,1.81l-.45.53V1004C1013.17,998.7,1012.94,992.26,1013.25,991.89Zm3.92-.69c-.78,0-2.77.23-3.49,1.06-.16.47.06,6.82.26,11.14a5.12,5.12,0,0,1,2.63-1.49Z"/></g><g class="cls-91"><path class="cls-14" d="M982.06,1213.54s-27.82-5.56-35.25-45.67l29-7.91s10.31,29.75,30.14,32.36C1006,1192.32,989,1207.81,982.06,1213.54Z"/><path class="cls-98" d="M954.11,1172l-.17-.77c.13,0,12.61-2.75,19.51-6l.34.72C966.81,1169.24,954.24,1172,954.11,1172Z"/><path class="cls-98" d="M955.78,1175.92l-.13-.78c.12,0,11.83-2,19.47-6l.38.69C967.74,1174,955.9,1175.9,955.78,1175.92Z"/><path class="cls-98" d="M958.26,1179.8l-.14-.77c.1,0,10.26-1.91,17.9-6l.37.7C968.64,1177.88,958.37,1179.78,958.26,1179.8Z"/><path class="cls-98" d="M960.75,1183.69l-.15-.78a48.86,48.86,0,0,0,8.54-2.58l.31.72A49.87,49.87,0,0,1,960.75,1183.69Z"/><path class="cls-98" d="M965.77,1191.44l-.28-.75c.14,0,14.1-5.15,18.65-8.37l.46.65C980,1186.25,966.34,1191.23,965.77,1191.44Z"/><path class="cls-98" d="M969,1194.52l-.2-.76c.1,0,10.2-2.7,17-8.3l.51.61C979.34,1191.78,969.08,1194.49,969,1194.52Z"/><path class="cls-98" d="M971.44,1197.61l-.21-.76a28.72,28.72,0,0,0,6.91-3.31l.43.67A29,29,0,0,1,971.44,1197.61Z"/><path class="cls-99" d="M981.83,1205.24c-2.5.07-5.76-3-5.9-3.11l-.35-.33,14.62-10.34.23.22c1.49,1.41,5.25,1.32,5.29,1.32h1.1l-.83.73C990,1199,982.6,1205.22,981.83,1205.24Zm-5-3.36c.89.76,3.23,2.62,5,2.57.72-.26,8-6.43,12.89-10.68a8.84,8.84,0,0,1-4.56-1.3Z"/></g></g></svg>