<svg xmlns="http://www.w3.org/2000/svg" xmlns:xlink="http://www.w3.org/1999/xlink" viewBox="0 0 778.72 454.86"><defs><style>.cls-1,.cls-11,.cls-20,.cls-29{opacity:0.25;}.cls-2{fill:#8a0027;}.cls-3{fill:url(#Áåçûìÿííûé_ãðàäèåíò_10);}.cls-4{fill:url(#Áåçûìÿííûé_ãðàäèåíò_7);}.cls-5{fill:#0c3640;}.cls-6{fill:url(#Áåçûìÿííûé_ãðàäèåíò_70);}.cls-7{fill:url(#Áåçûìÿííûé_ãðàäèåíò_70-2);}.cls-8{fill:url(#Áåçûìÿííûé_ãðàäèåíò_347);}.cls-9{fill:url(#Áåçûìÿííûé_ãðàäèåíò_8);}.cls-10{fill:#002c48;}.cls-11{fill:#500032;}.cls-12{fill:#002166;}.cls-13{fill:url(#Áåçûìÿííûé_ãðàäèåíò_4);}.cls-14{fill:url(#Áåçûìÿííûé_ãðàäèåíò_347-2);}.cls-15{fill:url(#Áåçûìÿííûé_ãðàäèåíò_70-3);}.cls-16,.cls-19,.cls-21{fill-rule:evenodd;}.cls-16{fill:url(#Áåçûìÿííûé_ãðàäèåíò_70-4);}.cls-17{fill:url(#Áåçûìÿííûé_ãðàäèåíò_355);}.cls-18{fill:url(#Áåçûìÿííûé_ãðàäèåíò_70-5);}.cls-19{fill:url(#Áåçûìÿííûé_ãðàäèåíò_360);}.cls-20{fill:#50000f;}.cls-21{fill:url(#Áåçûìÿííûé_ãðàäèåíò_352);}.cls-22{fill:#00346d;opacity:0.21;}.cls-23{fill:url(#Áåçûìÿííûé_ãðàäèåíò_7-2);}.cls-24{fill:url(#Áåçûìÿííûé_ãðàäèåíò_355-2);}.cls-25{fill:url(#Áåçûìÿííûé_ãðàäèåíò_5);}.cls-26{fill:#ffb6c5;}.cls-27{fill:url(#Áåçûìÿííûé_ãðàäèåíò_4-2);}.cls-28,.cls-29,.cls-48,.cls-49,.cls-53{fill:#fff;}.cls-30{fill:url(#Áåçûìÿííûé_ãðàäèåíò_355-3);}.cls-31{fill:#ffac95;}.cls-32{fill:#004e5e;}.cls-32,.cls-45,.cls-48,.cls-56{opacity:0.31;}.cls-33{fill:url(#Áåçûìÿííûé_ãðàäèåíò_53);}.cls-34{fill:url(#Áåçûìÿííûé_ãðàäèåíò_63);}.cls-35{fill:#143750;}.cls-36{fill:#5e1f13;}.cls-37{fill:url(#Áåçûìÿííûé_ãðàäèåíò_4-3);}.cls-38{fill:url(#Áåçûìÿííûé_ãðàäèåíò_4-4);}.cls-39{fill:url(#Áåçûìÿííûé_ãðàäèåíò_53-2);}.cls-40{fill:url(#Áåçûìÿííûé_ãðàäèåíò_3);}.cls-41{opacity:0.5;}.cls-42{fill:url(#Áåçûìÿííûé_ãðàäèåíò_70-6);}.cls-43{fill:#006a99;}.cls-44{fill:#a0d9ff;}.cls-45,.cls-46{fill:#ccedff;}.cls-47{fill:#00506d;}.cls-47,.cls-53{opacity:0.35;}.cls-49{opacity:0.4;}.cls-50{fill:#aef1ff;}.cls-51{fill:#daf7ff;}.cls-52{fill:#85300c;}.cls-54{fill:#002457;}.cls-55{fill:#782704;opacity:0.3;}.cls-57{fill:#660013;}.cls-58{fill:#1a424f;}.cls-59{fill:#99f1ff;opacity:0.54;}.cls-60{fill:#318fa3;}</style><linearGradient id="Áåçûìÿííûé_ãðàäèåíò_10" x1="5.95" y1="436.77" x2="99.62" y2="436.77" gradientUnits="userSpaceOnUse"><stop offset="0" stop-color="#e94702"/><stop offset="1" stop-color="#245b78"/></linearGradient><linearGradient id="Áåçûìÿííûé_ãðàäèåíò_7" x1="5.95" y1="486.35" x2="192.96" y2="486.35" gradientUnits="userSpaceOnUse"><stop offset="0" stop-color="#001e2e"/><stop offset="1" stop-color="#0ecaff"/></linearGradient><linearGradient id="Áåçûìÿííûé_ãðàäèåíò_70" x1="24.83" y1="280.59" x2="129.14" y2="280.59" gradientUnits="userSpaceOnUse"><stop offset="0" stop-color="#135b7d"/><stop offset="1" stop-color="#57162a"/></linearGradient><linearGradient id="Áåçûìÿííûé_ãðàäèåíò_70-2" x1="163.99" y1="456.5" x2="236.84" y2="456.5" xlink:href="#Áåçûìÿííûé_ãðàäèåíò_70"/><linearGradient id="Áåçûìÿííûé_ãðàäèåíò_347" x1="481.62" y1="394.8" x2="572.09" y2="394.8" gradientUnits="userSpaceOnUse"><stop offset="0" stop-color="#660013"/><stop offset="1" stop-color="#e04f0b"/></linearGradient><linearGradient id="Áåçûìÿííûé_ãðàäèåíò_8" x1="494.13" y1="361.93" x2="578.97" y2="361.93" gradientUnits="userSpaceOnUse"><stop offset="0" stop-color="#99261e"/><stop offset="1" stop-color="#de4e00"/></linearGradient><linearGradient id="Áåçûìÿííûé_ãðàäèåíò_4" x1="476.01" y1="305.69" x2="619.49" y2="305.69" gradientUnits="userSpaceOnUse"><stop offset="0" stop-color="#db5800"/><stop offset="1" stop-color="#de4e00"/></linearGradient><linearGradient id="Áåçûìÿííûé_ãðàäèåíò_347-2" x1="481.98" y1="308.2" x2="582.56" y2="308.2" xlink:href="#Áåçûìÿííûé_ãðàäèåíò_347"/><linearGradient id="Áåçûìÿííûé_ãðàäèåíò_70-3" x1="619.13" y1="158.49" x2="609.15" y2="229.69" xlink:href="#Áåçûìÿííûé_ãðàäèåíò_70"/><linearGradient id="Áåçûìÿííûé_ãðàäèåíò_70-4" x1="466.55" y1="187.05" x2="466.55" y2="437.18" xlink:href="#Áåçûìÿííûé_ãðàäèåíò_70"/><linearGradient id="Áåçûìÿííûé_ãðàäèåíò_355" x1="190.5" y1="416.75" x2="346.48" y2="416.75" gradientUnits="userSpaceOnUse"><stop offset="0" stop-color="#db1600"/><stop offset="1" stop-color="#de4e00"/></linearGradient><linearGradient id="Áåçûìÿííûé_ãðàäèåíò_70-5" x1="278.63" y1="437.03" x2="316.58" y2="437.03" xlink:href="#Áåçûìÿííûé_ãðàäèåíò_70"/><linearGradient id="Áåçûìÿííûé_ãðàäèåíò_360" x1="315.65" y1="310.7" x2="465.86" y2="310.7" gradientUnits="userSpaceOnUse"><stop offset="0" stop-color="#db1200"/><stop offset="1" stop-color="#de4e00"/></linearGradient><linearGradient id="Áåçûìÿííûé_ãðàäèåíò_352" x1="395.33" y1="546.14" x2="422.22" y2="338.46" gradientUnits="userSpaceOnUse"><stop offset="0" stop-color="#c22101"/><stop offset="1" stop-color="#eb4f07"/></linearGradient><linearGradient id="Áåçûìÿííûé_ãðàäèåíò_7-2" x1="5.95" y1="554.39" x2="192.94" y2="554.39" xlink:href="#Áåçûìÿííûé_ãðàäèåíò_7"/><linearGradient id="Áåçûìÿííûé_ãðàäèåíò_355-2" x1="-705.81" y1="173.17" x2="-580.36" y2="173.17" gradientTransform="matrix(-0.88, -0.47, -0.47, 0.88, 145.59, 35.77)" xlink:href="#Áåçûìÿííûé_ãðàäèåíò_355"/><linearGradient id="Áåçûìÿííûé_ãðàäèåíò_5" x1="-599.78" y1="186.55" x2="-576.57" y2="186.55" gradientTransform="matrix(-0.88, -0.47, -0.47, 0.88, 145.59, 35.77)" gradientUnits="userSpaceOnUse"><stop offset="0" stop-color="#c22101"/><stop offset="1" stop-color="#eb8231"/></linearGradient><linearGradient id="Áåçûìÿííûé_ãðàäèåíò_4-2" x1="533.63" y1="412.78" x2="651.29" y2="412.78" xlink:href="#Áåçûìÿííûé_ãðàäèåíò_4"/><linearGradient id="Áåçûìÿííûé_ãðàäèåíò_355-3" x1="322.24" y1="447" x2="563.09" y2="447" xlink:href="#Áåçûìÿííûé_ãðàäèåíò_355"/><linearGradient id="Áåçûìÿííûé_ãðàäèåíò_53" x1="402.81" y1="444.21" x2="532.15" y2="444.21" gradientUnits="userSpaceOnUse"><stop offset="0" stop-color="#328eb8"/><stop offset="1" stop-color="#8c3e56"/></linearGradient><linearGradient id="Áåçûìÿííûé_ãðàäèåíò_63" x1="336.75" y1="438.65" x2="392.38" y2="438.65" gradientTransform="translate(199.5 -107.31) rotate(22.91)" gradientUnits="userSpaceOnUse"><stop offset="0" stop-color="#303d6d"/><stop offset="1" stop-color="#00708c"/></linearGradient><linearGradient id="Áåçûìÿííûé_ãðàäèåíò_4-3" x1="445.92" y1="213" x2="572.76" y2="213" xlink:href="#Áåçûìÿííûé_ãðàäèåíò_4"/><linearGradient id="Áåçûìÿííûé_ãðàäèåíò_4-4" x1="662.1" y1="200.5" x2="784.67" y2="200.5" xlink:href="#Áåçûìÿííûé_ãðàäèåíò_4"/><linearGradient id="Áåçûìÿííûé_ãðàäèåíò_53-2" x1="528.74" y1="237" x2="510.2" y2="208.72" xlink:href="#Áåçûìÿííûé_ãðàäèåíò_53"/><linearGradient id="Áåçûìÿííûé_ãðàäèåíò_3" x1="382.41" y1="230.96" x2="465.39" y2="230.96" gradientUnits="userSpaceOnUse"><stop offset="0" stop-color="#ad1e1e"/><stop offset="1" stop-color="#db4a0c"/></linearGradient><linearGradient id="Áåçûìÿííûé_ãðàäèåíò_70-6" x1="603.48" y1="310.43" x2="612.52" y2="418.22" xlink:href="#Áåçûìÿííûé_ãðàäèåíò_70"/></defs><title>robot-arm</title><g id="Ñëîé_2" data-name="Ñëîé 2"><path class="cls-2" d="M269.3,521.83c-2.8,44.29-21.05,61.15-28.76,66.35C201,614.77,130.17,576.7,109.39,564.4a269.94,269.94,0,0,1-23.3-15.71C74,539.86,63.6,532.24,44.51,526.45A145.42,145.42,0,0,0,6,520.31v8.35a137.46,137.46,0,0,1,36.13,5.77c17.74,5.39,27.16,12.27,39.08,21a282.09,282.09,0,0,0,24,16.16c16.21,9.6,61.49,34,101.57,34,13.94,0,27.25-3,38.49-10.52,10.85-7.31,29.5-26.48,32.43-72.74Z" transform="translate(-5.95 -150.76)"/><path class="cls-3" d="M99.62,441.43l-.7-27.12a766.79,766.79,0,0,0-89.7,15.3L6,430.39v28.84c8.24-2.94,17-5.67,26.22-8.06A310.12,310.12,0,0,1,99.62,441.43Z" transform="translate(-5.95 -150.76)"/><path class="cls-4" d="M186,410.75a241.19,241.19,0,0,0-34.28,14.47c-53.23,27.56-65.4,61.61-110.11,89.85A193.17,193.17,0,0,1,6,532.7V562c40.6-5.28,65.15-19.78,80.57-33.38,21-18.52,32-39.92,67.55-68.67a214.3,214.3,0,0,1,38.89-25Z" transform="translate(-5.95 -150.76)"/><path class="cls-2" d="M194.7,463.39Q192,452.2,189.29,441A395,395,0,0,0,148,443C92.57,448.46,44.86,465,6,484.23v36.88A474.54,474.54,0,0,1,194.7,463.39Z" transform="translate(-5.95 -150.76)"/><path class="cls-5" d="M211.75,497.73l-23.82-28.48a668.41,668.41,0,0,1-87.62,48A668.29,668.29,0,0,1,6,551.79v19.93c51.43-6.35,112.53-21.47,174.33-55.19C191.38,510.48,201.86,504.18,211.75,497.73Z" transform="translate(-5.95 -150.76)"/><polygon class="cls-6" points="121.28 248.95 24.83 262.02 36.65 312.23 129.13 296.23 121.28 248.95"/><path class="cls-7" d="M199.76,392.29a86.29,86.29,0,0,1-35.7.93,196.2,196.2,0,0,0,5.56,51.92,199,199,0,0,0,37.09,75.57,63.29,63.29,0,0,1,10.66-12.52,64,64,0,0,1,19.47-12.05,231,231,0,0,1-37.08-103.85Z" transform="translate(-5.95 -150.76)"/><path class="cls-8" d="M481.62,393.22A107,107,0,0,0,493.67,403a113.06,113.06,0,0,0,46.82,18.55c32.35-15.22,31.85-24.05,31.53-26-1.18-7-14-5.67-49.14-19-17.2-6.53-24.6-10.82-31.53-6.95C483.19,374.14,481.84,386.6,481.62,393.22Z" transform="translate(-5.95 -150.76)"/><path class="cls-9" d="M494.13,371a133.47,133.47,0,0,0,56.56,26c3.25-4.28,6.52-8.91,9.74-13.91A218.51,218.51,0,0,0,579,347.32c-10.71-1.65-22-3.78-33.84-6.49a479.57,479.57,0,0,1-48.68-13.9Q495.3,349,494.13,371Z" transform="translate(-5.95 -150.76)"/><path class="cls-10" d="M580.83,352.08a44.54,44.54,0,0,0-13.91,7.65c-14.11,11.5-16.52,28.28-17,33l8,6.25,39.64-19.81Q589.17,365.64,580.83,352.08Z" transform="translate(-5.95 -150.76)"/><path class="cls-11" d="M579,346.86c-.58,2.87-9.11,3.25-19.47,3.71-32.45,1.45-65.24-10.52-64.44-16.69.38-2.9,8.12-4,15.3-5.1C545.28,323.64,580.22,340.74,579,346.86Z" transform="translate(-5.95 -150.76)"/><path class="cls-12" d="M334.2,311.16q-6.39,4.86-13,9.74-6.06,4.49-12.06,8.81L342.54,371l24.57-18.55Z" transform="translate(-5.95 -150.76)"/><path class="cls-13" d="M499.23,266.66a338.21,338.21,0,0,0,35.7,10.66,340.25,340.25,0,0,0,84.37,9.27,66.47,66.47,0,0,1-.92,17.16c-4.81,25.84-23.79,41.44-31.06,46.82a224.79,224.79,0,0,1-31.53-.93A228.29,228.29,0,0,1,488.11,332a66.78,66.78,0,0,1-12.06-40.34,65.7,65.7,0,0,1,9.28-31.06Z" transform="translate(-5.95 -150.76)"/><path class="cls-14" d="M534.58,299.57c18.48,17.38,40.59,19.72,48,20.17a61.05,61.05,0,0,0-13.21,26.77,254.94,254.94,0,0,1-66.75-9Q492.28,315.35,482,293.22l7.4-16.93,15.75-6.4,12.42,5.35A73.61,73.61,0,0,0,534.58,299.57Z" transform="translate(-5.95 -150.76)"/><path class="cls-15" d="M683.05,175.8c-72-8.55-106.1-14.27-115.44-18.08-1.61-.66-8.36-3.66-12.51-.7-2.7,1.93-3.34,5.66-3.48,8.35q7,21.19,13.91,42.41c9.15-1.28,18.9-2.26,29.2-2.78A332.34,332.34,0,0,1,674,210.57a93.8,93.8,0,0,0,9-34.77Z" transform="translate(-5.95 -150.76)"/><path class="cls-16" d="M424.6,248.12a104.11,104.11,0,0,0,35.23-25c6.12,3.24,23.81,13.65,29.67,33.84a47.83,47.83,0,0,1,1.85,11.59l-3.24,16.23q3.3,5.94,6.49,12.52A246.55,246.55,0,0,1,508.51,333l-7,12.52A83.5,83.5,0,0,1,503.87,358c2.6,24.36-6.23,44.44-12.52,55.63-11-4.34-31.67-14.4-47.75-36.16a104.24,104.24,0,0,1-13.44-24.57Q427.37,300.5,424.6,248.12Z" transform="translate(-5.95 -150.76)"/><path class="cls-17" d="M315.88,315.57a307.14,307.14,0,0,1-31.29,22.25A308.82,308.82,0,0,1,223.4,367c-2.92-.27-7.43-.62-13-.7-7.94-.12-11.9-.18-13.45.47-10.6,4.41-8.41,48.9,8.35,89.93a207.39,207.39,0,0,0,38.94,61.2l91.09-16.69a166.72,166.72,0,0,1,11.13-149.51Z" transform="translate(-5.95 -150.76)"/><path class="cls-18" d="M312.41,394.15c-3.64.71-19.43,4.23-28.28,18.54-10.37,16.77-4.6,37.63,5.1,50.07,9.47,12.15,22.47,16,27.35,17.15a199.72,199.72,0,0,1-4.17-85.76Z" transform="translate(-5.95 -150.76)"/><path class="cls-19" d="M465.86,303.28a116.54,116.54,0,0,0-7.42-27.81,118,118,0,0,0-27.82-40.8,62.25,62.25,0,0,0-44.5,26,278.33,278.33,0,0,1-26.89,22.26,279.91,279.91,0,0,1-43.58,26q12.41,13.17,25,27.81c14.69,17.07,27.93,33.85,39.87,50.07l60.26-18.54Z" transform="translate(-5.95 -150.76)"/><path class="cls-20" d="M465.86,303.28s-18.08,29.31-28.28,36-34.87-6.76-50.82-5.15S349,346.51,349,346.51l5.44,6.59,87.55,12Z" transform="translate(-5.95 -150.76)"/><path class="cls-21" d="M521.72,429.61c-7.12-4.58-17.65-11.61-29.9-20.86-42.6-32.14-46.3-45.9-68.85-56.33-3.66-1.69-45.72-20.36-82.75,1.39-32.09,18.86-42.52,57.58-40.33,86.23.77,10,5.22,46.87,33.38,64.67,15.13,9.57,29.37,8.76,77.19,4.87,40.56-3.3,73.82-6.26,96.66-8.34Q514.41,465.42,521.72,429.61Z" transform="translate(-5.95 -150.76)"/><path class="cls-22" d="M489,498.45q-14.94-1.93-30.14-4.17-44.76-6.57-86.69-14.83l-39.4,1.85a55.26,55.26,0,0,1-8.35-20.86,56.22,56.22,0,0,1,3.71-31.52Z" transform="translate(-5.95 -150.76)"/><path class="cls-23" d="M192.94,529.12l-12-14.67q-19.78,9.94-41.3,19.45A885.93,885.93,0,0,1,6,580.33v14a324.79,324.79,0,0,0,67-8.78A330.6,330.6,0,0,0,192.94,529.12Z" transform="translate(-5.95 -150.76)"/><path class="cls-10" d="M593.35,451.45l-35.24-4.92a84.54,84.54,0,0,1-16.23,54.71l38.73,7.86Q587,480.27,593.35,451.45Z" transform="translate(-5.95 -150.76)"/><path class="cls-10" d="M596.81,447.18c1.82-2.11,4.67-4.69,8.27-4.8,3.11-.09,5.15,1.72,8.56,3.7,2.25,1.3,6.13,2.61,13.89,5.23,14,4.71,21.28,1.72,32.76,5.22C666,458.27,674,462,682.41,471a132.84,132.84,0,0,1-85.6-23.81Z" transform="translate(-5.95 -150.76)"/><path class="cls-10" d="M582,515c.66,2.71,2,6.31,5.18,8,2.73,1.5,5.37.81,9.3.61,2.6-.14,6.65.46,14.75,1.67,14.6,2.17,19.73,8.16,31.54,10.27,5.87,1,14.67,1.37,26.28-2.79A132.74,132.74,0,0,0,582,515Z" transform="translate(-5.95 -150.76)"/><path class="cls-24" d="M592.15,440.3a176.77,176.77,0,0,0,27.13,14.94,181.4,181.4,0,0,0,73.44,15.15,70.59,70.59,0,0,1-21.55,70.08,306.25,306.25,0,0,0-94.78-23.88,64.88,64.88,0,0,1-5.75-36.87C573.85,457.24,588.11,443.85,592.15,440.3Z" transform="translate(-5.95 -150.76)"/><path class="cls-25" d="M584.58,457.76c-4.33-2.38-17,5.86-19.56,18.52-2.44,11.89,4.69,24.22,9.57,24C583,499.85,591.85,461.76,584.58,457.76Z" transform="translate(-5.95 -150.76)"/><path class="cls-26" d="M618,492.08a2,2,0,0,1-.42-.05l-32.51-9a1.55,1.55,0,0,1,.82-3l32.52,9a1.55,1.55,0,0,1-.41,3Z" transform="translate(-5.95 -150.76)"/><path class="cls-26" d="M631.47,510.67a14.47,14.47,0,0,1-6.7-1.58c-6.66-3.42-10-12-7.56-19.53,1.76-5.5,7.18-11.43,14.91-11.45h0c7.5,0,12,5.7,12.84,6.85a1.55,1.55,0,1,1-2.51,1.81c-.41-.57-4.21-5.56-10.33-5.56h0c-6.18,0-10.54,4.83-12,9.3-2,6.13.68,13.08,6,15.82s11.29,0,11.94-.33a1.55,1.55,0,1,1,1.4,2.76A18.77,18.77,0,0,1,631.47,510.67Z" transform="translate(-5.95 -150.76)"/><path class="cls-27" d="M651.29,415.94a76.42,76.42,0,0,0-6.95-9.74c-3-3.61-25.09-29.15-51.92-26-4.24.5-8.24,2.19-16.23,5.56-18,7.61-37.44,15.8-41.72,32-1,3.78-2,11.19,2.78,21.79l20.86,6q9.35-3.54,19-7C602.61,429.64,627.4,422.16,651.29,415.94Z" transform="translate(-5.95 -150.76)"/><path class="cls-28" d="M694.87,489.88l-7.07,2.66a77.48,77.48,0,0,1-8.46,28.86l3.48,5.57a66.46,66.46,0,0,0,12-37.09Z" transform="translate(-5.95 -150.76)"/><path class="cls-29" d="M690,474.46a43.7,43.7,0,0,1,.35,13.56,202.13,202.13,0,0,1-21.21,2.44A211.32,211.32,0,0,1,588,479.22l6-28.52a224.7,224.7,0,0,0,96,23.76Z" transform="translate(-5.95 -150.76)"/><path class="cls-30" d="M561.36,438a83,83,0,0,1-19.48,72.32L373.6,476.2l-38.94,2.09c-2.89-4-15.26-22.1-11.82-46.59,4.42-31.46,31.14-46.41,34.07-48l36.86,21.55Z" transform="translate(-5.95 -150.76)"/><path class="cls-31" d="M275.9,441.78s-1.1.32-3,.8-4.72,1.14-8.06,1.82c-1.68.34-3.49.71-5.41,1.06l-6,1.11q-3.15.58-6.47,1.12c-2.21.36-4.45.7-6.7,1-9,1.3-18,2.28-24.85,2.7-3.41.25-6.26.35-8.26.41s-3.15,0-3.15,0,1.1-.34,3-.85,4.7-1.23,8-2c6.67-1.53,15.61-3.15,24.6-4.46,2.25-.31,4.5-.63,6.72-.9s4.4-.54,6.52-.77l3.12-.32c1.08-.11,2-.17,3-.24,1.95-.15,3.8-.24,5.5-.33,3.41-.19,6.27-.24,8.27-.26S275.9,441.78,275.9,441.78Z" transform="translate(-5.95 -150.76)"/><circle class="cls-32" cx="358.09" cy="287.37" r="30.08"/><path class="cls-33" d="M532.15,445.61q-2.43,10.42-4.87,20.86l-124.47-23L403.5,422Z" transform="translate(-5.95 -150.76)"/><circle class="cls-34" cx="364.56" cy="438.65" r="27.82" transform="translate(-147.94 25.74) rotate(-22.91)"/><path class="cls-28" d="M166.84,388.58l-45.9,3.71a190.7,190.7,0,0,0,10.67,64.44l43.11-8.81a104.76,104.76,0,0,0-7.88-59.34Z" transform="translate(-5.95 -150.76)"/><path class="cls-35" d="M369.77,456a70.38,70.38,0,0,1-4.69-8.79,78.06,78.06,0,0,1-6.43-27.19l-2.78.82a63.49,63.49,0,0,0,2.6,19A57.32,57.32,0,0,0,367,457.25Z" transform="translate(-5.95 -150.76)"/><ellipse class="cls-36" cx="268.07" cy="343.47" rx="25.59" ry="7.43"/><path class="cls-28" d="M204.62,498.45,124,537.05a40.73,40.73,0,0,0,3.13,11.12,42.42,42.42,0,0,0,13.9,17l75.11-40a34.3,34.3,0,0,0-11.48-26.78Z" transform="translate(-5.95 -150.76)"/><path class="cls-37" d="M546.06,150.76a246.34,246.34,0,0,1-22.95,23.65,251.55,251.55,0,0,1-77.19,47.28,157.82,157.82,0,0,1,43.81,53.55,182.84,182.84,0,0,0,82.06-58.42,68.9,68.9,0,0,0-25.73-66.06Z" transform="translate(-5.95 -150.76)"/><path class="cls-38" d="M674,168.84a58.81,58.81,0,0,0-4.87,7.65c-8.26,15.55-7.53,31.35-6.26,40.33a118.24,118.24,0,0,0,22.25,9.74c38.51,12.29,73.57,1.45,89.71-4.87a34.06,34.06,0,0,0,8.34-13.91,33.66,33.66,0,0,0,1.39-12.51q-15-2.4-30.59-5.57A753.88,753.88,0,0,1,674,168.84Z" transform="translate(-5.95 -150.76)"/><path class="cls-39" d="M554.4,198.05c-5.25-7.17-32.15,1.55-50.07,15.76-10.9,8.65-25.31,24.75-21.32,31.52,4.11,7,27.2,3.13,43.58-7C545.13,227,559.42,204.9,554.4,198.05Z" transform="translate(-5.95 -150.76)"/><path class="cls-40" d="M465.39,220.76a41.73,41.73,0,0,0-15.76-20.39,106,106,0,0,0-20.4,6.95c-24.74,11.36-39.43,29.69-46.82,40.8L394,261.56a94.32,94.32,0,0,0,71.39-40.8Z" transform="translate(-5.95 -150.76)"/><g class="cls-41"><path class="cls-28" d="M436.53,206.39l.93-.2c.6-.12,1.48-.32,2.62-.48.58-.08,1.21-.17,1.91-.22a9.55,9.55,0,0,1,2.36.07,3.42,3.42,0,0,1,.71.23,1.43,1.43,0,0,1,.71.71l0,0,0,.12v0l0,.08v.08a.43.43,0,0,1,0,.16,2.09,2.09,0,0,1,0,.36l-.09.23a2.8,2.8,0,0,1-.47.72,12.62,12.62,0,0,1-2.29,1.92c-1.65,1.15-3.47,2.26-5.41,3.41s-3.95,2.37-6.06,3.62-4.23,2.6-6.4,3.94-4.35,2.78-6.49,4.24-4.3,2.91-6.37,4.42-4.11,3-6.06,4.45l-5.61,4.27c-1.79,1.37-3.49,2.65-5.14,3.78A21.43,21.43,0,0,1,393,243.9a3.63,3.63,0,0,1-1.55.43,1.13,1.13,0,0,1-.57-.15,1,1,0,0,1-.3-.23,1.72,1.72,0,0,1-.12-.17,1.51,1.51,0,0,1-.16-.95,7.2,7.2,0,0,1,.83-2.25c.34-.62.66-1.17,1-1.66.61-1,1.15-1.71,1.51-2.21l.55-.76-.42.84c-.28.54-.67,1.36-1.15,2.39-.24.52-.48,1.1-.72,1.73a6.77,6.77,0,0,0-.5,2,1.09,1.09,0,0,0,0,.19s.05.1,0,0,.05.05.07.08,0-.05,0-.06,0,0,0,0a2.79,2.79,0,0,0,.9-.41,23,23,0,0,0,2.18-1.62c1.49-1.24,3.07-2.65,4.78-4.11s3.49-3,5.41-4.58,3.89-3.17,6-4.7,4.23-3.08,6.4-4.56,4.43-2.87,6.64-4.21,4.45-2.58,6.6-3.78,4.27-2.27,6.26-3.31,3.89-2,5.56-2.94a12.43,12.43,0,0,0,2.17-1.49,1.48,1.48,0,0,0,.3-.35l.05-.07a0,0,0,0,0,0,0c.07.13,0-.28,0-.1,0,0-.25-.27-.57-.35a10,10,0,0,0-2.09-.3c-.67,0-1.3,0-1.87,0C437.85,206.29,436.53,206.39,436.53,206.39Z" transform="translate(-5.95 -150.76)"/></g><path class="cls-42" d="M615.13,297.26a77.15,77.15,0,0,0-13.44,7.88c-17.23,12.58-25.19,29.38-28.75,38.94l14.84,37.55a140.46,140.46,0,0,1,57.48,29.21q-7.05-24.91-13.9-50.54Q622.82,328.38,615.13,297.26Z" transform="translate(-5.95 -150.76)"/><rect class="cls-43" x="260.04" y="527.03" width="24.11" height="5.79" transform="translate(50.32 -176.06) rotate(5.94)"/><rect class="cls-10" x="259.56" y="494.8" width="28.92" height="34.77" transform="translate(48.5 -176.36) rotate(5.94)"/><rect class="cls-44" x="522.43" y="452.19" width="9.74" height="1.39" transform="translate(-20.29 737.76) rotate(-79.47)"/><path class="cls-44" d="M522.94,457l-2.78-.52,1.77-9.57,2.78.52Zm-5.57-1-2.78-.52,1.78-9.57,2.78.52Zm-5.56-1-2.78-.52,1.77-9.57,2.78.51Zm-5.57-1-2.78-.51,1.78-9.57,2.78.51Zm-5.56-1-2.78-.52,1.77-9.57,2.78.52Zm-5.57-1-2.78-.52,1.78-9.57,2.78.52Zm-5.56-1-2.79-.52,1.78-9.57,2.78.51Zm-5.57-1-2.78-.51,1.78-9.58,2.78.52Zm-5.56-1-2.79-.52,1.78-9.57,2.78.52Zm-5.57-1-2.78-.52,1.77-9.57,2.79.52Zm-5.56-1-2.79-.51,1.78-9.57,2.78.51Zm-5.57-1-2.78-.51,1.77-9.58,2.79.52Zm-5.56-1-2.79-.52,1.78-9.57,2.78.52Zm-5.57-1-2.78-.52,1.77-9.57,2.79.52Zm-5.57-1-2.78-.52,1.78-9.57,2.78.51Zm-5.56-1-2.78-.51,1.77-9.58,2.79.52Zm-5.57-1-2.78-.52,1.78-9.57,2.78.52Zm-5.56-1-2.78-.52,1.77-9.57,2.79.52Zm-5.56-1-2.79-.51,1.78-9.57,2.78.51Zm-5.57-1-2.78-.51,1.77-9.58,2.78.52Zm-5.57-1-2.78-.52,1.78-9.57,2.78.52Z" transform="translate(-5.95 -150.76)"/><rect class="cls-44" x="401.41" y="429.74" width="9.73" height="1.39" transform="translate(-96.92 600.74) rotate(-79.5)"/><path class="cls-45" d="M390.06,435.17a128.13,128.13,0,0,0-14.14-2.31,129.55,129.55,0,0,0-36.86,1.39,25.12,25.12,0,0,1,28.05-20.63C377.8,415,387,423.51,390.06,435.17Z" transform="translate(-5.95 -150.76)"/><path class="cls-46" d="M386.58,428.22c1-1-2.28-7-7.42-10.2-4.2-2.65-10.06-3.79-10.66-2.55C367.36,417.84,384.76,430.08,386.58,428.22Z" transform="translate(-5.95 -150.76)"/><path class="cls-44" d="M545.59,197.12s.69-.11,1.4-.15,1.41,0,1.41,0l-.06.53s-.67-.14-1.36-.22S545.59,197.12,545.59,197.12Z" transform="translate(-5.95 -150.76)"/><path class="cls-44" d="M551.27,197.42l.11.05.32.13a4.57,4.57,0,0,1,.93.53,4,4,0,0,1,.82.75l.13.17.09.13.07.1-1.2.74-.06-.11-.05-.1-.07-.12a4.15,4.15,0,0,0-.5-.63,3.65,3.65,0,0,0-.66-.52l-.24-.15-.11-.06Z" transform="translate(-5.95 -150.76)"/><path class="cls-44" d="M554.6,202.37v.48c0,.29,0,.67-.08,1a11.2,11.2,0,0,1-.27,1.48l-2-.6s.22-.61.38-1.23c.08-.31.14-.62.18-.85l0-.27v-.12Z" transform="translate(-5.95 -150.76)"/><polygon class="cls-44" points="547.39 57.45 546.26 59.99 543.85 58.78 545.23 56.37 547.39 57.45"/><polygon class="cls-44" points="544.84 62.6 543.35 64.95 540.74 63.17 542.4 60.93 544.84 62.6"/><polygon class="cls-44" points="541.67 67.34 539.98 69.55 537.23 67.29 539.07 65.21 541.67 67.34"/><polygon class="cls-44" points="538.1 71.78 536.23 73.84 533.45 71.2 535.41 69.23 538.1 71.78"/><polygon class="cls-44" points="534.19 75.92 532.17 77.83 529.45 74.88 531.53 73.02 534.19 75.92"/><polygon class="cls-44" points="529.98 79.76 527.82 81.52 525.24 78.29 527.43 76.57 529.98 79.76"/><polygon class="cls-44" points="525.46 83.28 523.17 84.85 520.82 81.4 523.13 79.84 525.46 83.28"/><polygon class="cls-44" points="520.67 86.4 518.25 87.78 516.19 84.21 518.6 82.81 520.67 86.4"/><polygon class="cls-44" points="515.66 89.13 513.15 90.32 511.39 86.72 513.87 85.47 515.66 89.13"/><polygon class="cls-44" points="510.47 91.47 507.88 92.48 506.44 88.96 508.99 87.86 510.47 91.47"/><polygon class="cls-44" points="505.14 93.43 502.48 94.25 501.36 90.92 503.97 89.96 505.14 93.43"/><polygon class="cls-44" points="499.67 94.99 496.96 95.59 496.17 92.6 498.83 91.79 499.67 94.99"/><polygon class="cls-44" points="494.1 96.12 491.33 96.46 490.88 93.89 493.6 93.27 494.1 96.12"/><polygon class="cls-44" points="488.4 96.67 485.61 96.67 485.51 94.65 488.28 94.35 488.4 96.67"/><path class="cls-44" d="M488.63,247.11l-.44-.09c-.27-.05-.63-.14-1-.24a9.18,9.18,0,0,1-1-.34,4.35,4.35,0,0,1-.43-.19l.48-1.19a8.62,8.62,0,0,0,1.25.28c.32,0,.65.08.9.1l.41,0Z" transform="translate(-5.95 -150.76)"/><path class="cls-44" d="M483.63,244l0-.12a2,2,0,0,1-.06-.37,4,4,0,0,1,.08-1,6.2,6.2,0,0,1,.51-1.36l.33.13a5.55,5.55,0,0,0-.23,1.31,3.14,3.14,0,0,0,.07.86c0,.11.06.17.08.24l.05.12Z" transform="translate(-5.95 -150.76)"/><path class="cls-47" d="M546.06,197.12c3,4.54-11.26,20.28-25.5,29.9-13.93,9.42-33.74,17-36.86,12.52s10.77-21.36,26.43-31.52C524,199,543.14,192.7,546.06,197.12Z" transform="translate(-5.95 -150.76)"/><path class="cls-48" d="M324,329.71a320,320,0,0,1-47.75,29.67,321.49,321.49,0,0,1-47.75,19.47q-1.16-5.1-2.32-10.2a332.86,332.86,0,0,0,43.58-19.93,332.32,332.32,0,0,0,45.89-30.37Z" transform="translate(-5.95 -150.76)"/><path class="cls-29" d="M388.44,261.1a303.55,303.55,0,0,1-27.36,23.18A302.91,302.91,0,0,1,320.4,310q5.91,6.6,11.83,13.21a146,146,0,0,0,66.41-51.46Z" transform="translate(-5.95 -150.76)"/><path class="cls-28" d="M521.72,429.61c-2.69-.41-5.37-.79-8.05-1.24l-8-1.29c-2.68-.43-5.37-.84-8-1.3l-8-1.36-16-2.79-16-2.9-16-3c-5.34-1-10.66-2-16-3.06s-10.65-2.06-16-3.13-10.65-2.12-16-3.23l-.2,0-.15-.09-9.12-5.54-9.1-5.58-9.06-5.66c-3-1.87-6-3.78-9-5.7q4.72,2.49,9.4,5.07l9.37,5.12L385,399.1l9.3,5.24-.34-.13c5.35.93,10.69,1.9,16,2.86S420.68,409,426,410s10.67,2,16,3l16,3.1,16,3.19,15.95,3.29,8,1.69c2.65.55,5.3,1.16,7.95,1.73l8,1.76C516.43,428.38,519.07,429,521.72,429.61Z" transform="translate(-5.95 -150.76)"/><path class="cls-28" d="M359.23,346.86s-1.07.27-2.93.81a79.12,79.12,0,0,0-7.53,2.62c-1.54.6-3.17,1.33-4.86,2.16s-3.43,1.79-5.21,2.82-3.54,2.22-5.28,3.44c-.88.65-1.75,1.31-2.64,2l-2.51,2.08c-.82.72-1.62,1.46-2.43,2.19s-1.55,1.53-2.32,2.28-1.45,1.58-2.18,2.35-1.36,1.59-2,2.37l-1.87,2.38-1.71,2.34c-.53.78-1.05,1.54-1.54,2.28s-.94,1.47-1.35,2.18c-.84,1.42-1.59,2.74-2.23,3.92s-1.15,2.23-1.57,3.1-.72,1.57-.94,2l-.33.72.26-.75c.16-.49.42-1.21.76-2.11s.81-2,1.36-3.23,1.21-2.61,2-4.07c.39-.74.83-1.49,1.27-2.27s1-1.56,1.46-2.37,1.07-1.62,1.63-2.45,1.2-1.64,1.83-2.47,1.32-1.64,2-2.46,1.42-1.63,2.18-2.43,1.54-1.57,2.35-2.34,1.63-1.52,2.47-2.25l2.6-2.13,2.65-1.94a63.87,63.87,0,0,1,5.47-3.42,65.55,65.55,0,0,1,10.4-4.65c1.57-.57,3-1,4.35-1.34s2.45-.61,3.4-.81,1.7-.33,2.21-.42Z" transform="translate(-5.95 -150.76)"/><path class="cls-28" d="M365.72,354.28c.6,1.73-6.3,5.48-16.69,11.12-5.39,2.93-23.64,12.86-25.5,10.2-1.2-1.72,4.68-8.53,10.67-13C347.39,352.83,364.84,351.73,365.72,354.28Z" transform="translate(-5.95 -150.76)"/><path class="cls-28" d="M396.32,269.44c.81,2.62-7.37,7.88-14.84,10.2-1.45.45-10,3.09-11.12.93-1.28-2.37,6.06-10.68,15.29-12.52C389.79,267.22,395.69,267.42,396.32,269.44Z" transform="translate(-5.95 -150.76)"/><path class="cls-28" d="M314.73,323.22c.59.76-3.5,5.62-8.81,8.34-3.53,1.81-8.45,3.11-8.81,2.32C296.39,332.31,313.66,321.84,314.73,323.22Z" transform="translate(-5.95 -150.76)"/><path class="cls-49" d="M456.12,210.57a151.78,151.78,0,0,1-18.54,10.19C424.44,226.84,404,234,402.34,231s15.58-16.8,34.31-25a113.13,113.13,0,0,1,12.52-4.64Z" transform="translate(-5.95 -150.76)"/><path class="cls-50" d="M607.71,290.77c0,1.11-10.2,1.82-10.66,1.85-15.29,1-29.43-3.68-29.2-5.1C568.21,285.2,607.72,288.57,607.71,290.77Z" transform="translate(-5.95 -150.76)"/><path class="cls-20" d="M778.78,210.1a141.33,141.33,0,0,1-14.84,2.32c-40,4.09-73.85-9.74-95.5-21.79-.69,2.88-1.33,6-1.85,9.27a116.51,116.51,0,0,0-1.39,14.84,117.75,117.75,0,0,0,28.74,12c36,9.7,67.15-.56,80.67-6Z" transform="translate(-5.95 -150.76)"/><path class="cls-51" d="M768.58,195.27c3.95.83,10.63,2.93,10.43,4.17-.44,2.69-33.2,1.39-33.38-1.39C745.52,196.38,757,192.84,768.58,195.27Z" transform="translate(-5.95 -150.76)"/><path class="cls-52" d="M459.13,280.1s-.38.33-1.11.93-1.78,1.49-3.16,2.58c-2.76,2.18-6.69,5.32-11.57,8.88-2.43,1.78-5.09,3.69-7.94,5.64s-5.85,4-9.05,6c-1.58,1-3.2,2.07-4.85,3.09s-3.3,2.09-5,3.09c-3.4,2-6.88,4.08-10.37,6.08s-7.06,3.87-10.56,5.73-7,3.57-10.4,5.24-6.7,3.18-9.86,4.6-6.15,2.72-8.94,3.87-5.36,2.18-7.64,3.07l-5.93,2.25c-1.65.61-3,1.05-3.85,1.37l-1.37.48,1.31-.62c.86-.4,2.1-1,3.7-1.73l5.73-2.7,7.39-3.58c1.36-.65,2.77-1.33,4.22-2.06s3-1.44,4.49-2.23l9.66-4.91,5.06-2.66c1.7-.92,3.42-1.85,5.17-2.76,3.46-1.88,7-3.81,10.45-5.79s7-3.94,10.36-5.95,6.75-4,9.93-5.94l9.22-5.7,8.18-5.23c5-3.29,9.25-6,12.15-8Z" transform="translate(-5.95 -150.76)"/><path class="cls-52" d="M339.3,346.86l-7.22,2.94q-3.61,1.47-7.2,3l-7.16,3.06c-2.39,1-4.75,2.05-7.13,3.11s-4.75,2.09-7.11,3.15l-7.07,3.23-7,3.3-7,3.38c-2.34,1.12-4.66,2.27-7,3.43s-4.62,2.34-6.93,3.51l-6.9,3.58c-2.29,1.21-4.58,2.42-6.86,3.66-4.55,2.47-9.1,4.94-13.61,7.51l-6.75,3.85c-2.25,1.28-4.48,2.61-6.72,3.92l-.33.19-.34-.06a68,68,0,0,0-8.07-.94,71.51,71.51,0,0,0-8.15.07,61.83,61.83,0,0,0-8.12,1.08,70.88,70.88,0,0,0-8,2.07,57.59,57.59,0,0,1,7.81-2.69,66.21,66.21,0,0,1,8.14-1.62c1.38-.18,2.76-.32,4.15-.4s2.78-.12,4.17-.11a61.19,61.19,0,0,1,8.33.61l-.67.13c2.21-1.38,4.39-2.79,6.61-4.15s4.44-2.72,6.67-4,4.49-2.64,6.74-3.94,4.52-2.59,6.81-3.83,4.57-2.49,6.86-3.72,4.6-2.43,6.92-3.63,4.64-2.35,7-3.48,4.68-2.29,7-3.4,4.73-2.19,7.09-3.27l7.14-3.17c2.39-1,4.78-2,7.19-3s4.82-2,7.24-2.92c4.84-1.9,9.7-3.75,14.62-5.45q3.67-1.29,7.38-2.52C334.33,348.4,336.81,347.63,339.3,346.86Z" transform="translate(-5.95 -150.76)"/><path class="cls-31" d="M224.09,370.5l3,17.27c.48,2.57,1,5.36,1.56,8.32.29,1.47.58,3,.89,4.52s.64,3.12,1,4.72c.66,3.23,1.38,6.49,2.13,9.85s1.54,6.73,2.37,10.12,1.69,6.75,2.56,10.07,1.76,6.58,2.64,9.72,1.75,6.19,2.61,9.07,1.68,5.59,2.44,8.1c1.57,5,2.88,9.19,3.8,12.11s1.44,4.61,1.44,4.61l-.59-1.11c-.37-.74-1-1.8-1.62-3.19s-1.52-3.05-2.39-5-1.88-4.16-2.89-6.6c-.51-1.22-1-2.49-1.57-3.81s-1-2.7-1.58-4.11c-1.06-2.84-2.15-5.84-3.18-9s-2.06-6.4-3-9.73-1.86-6.75-2.71-10.17-1.6-6.86-2.27-10.26c-.37-1.7-.66-3.4-1-5.08s-.58-3.32-.83-4.95l-.39-2.41-.34-2.4c-.2-1.57-.39-3.12-.58-4.62-.38-3-.64-5.85-.85-8.48-.44-5.26-.59-9.66-.65-12.74,0-1.54,0-2.75,0-3.57S224.09,370.5,224.09,370.5Z" transform="translate(-5.95 -150.76)"/><path class="cls-28" d="M548.49,154.93c1,.82-1.66,6.32-5.56,10.44-5.8,6.11-14.15,8.85-14.95,7.64-.68-1,3.82-5,9-9.73C541.34,159.4,547.37,154,548.49,154.93Z" transform="translate(-5.95 -150.76)"/><path class="cls-28" d="M273.81,425.79s.05.88.18,2.4.33,3.68.73,6.23c.21,1.28.48,2.65.78,4.09s.73,2.93,1.17,4.46,1,3.18,1.63,4.67c.29.77.58,1.55.95,2.32s.66,1.56,1.07,2.3.74,1.53,1.14,2.28l1.24,2.21c.45.7.88,1.41,1.3,2.12s.91,1.36,1.35,2c.93,1.3,1.83,2.56,2.75,3.72s1.81,2.23,2.66,3.21,1.65,1.85,2.38,2.62,1.38,1.43,1.91,2l1.71,1.7-.54-.33c-.36-.21-.88-.51-1.52-.94s-1.42-1-2.27-1.61-1.81-1.4-2.8-2.29-2.05-1.86-3.1-3-2.12-2.31-3.15-3.63l-1.52-2c-.49-.7-1-1.43-1.46-2.17l-1.34-2.29c-.43-.78-.83-1.58-1.24-2.37s-.72-1.64-1.09-2.45-.66-1.66-1-2.5a24.5,24.5,0,0,1-.8-2.48c-.22-.83-.44-1.57-.66-2.45a40.82,40.82,0,0,1-.84-4.74,39.81,39.81,0,0,1-.33-4.29,40.3,40.3,0,0,1,.3-6.39c.08-.77.2-1.37.26-1.77S273.81,425.79,273.81,425.79Z" transform="translate(-5.95 -150.76)"/><path class="cls-28" d="M552.78,214.27l-.37.72c-.25.47-.6,1.16-1.1,2a63.62,63.62,0,0,1-4.52,6.83,66,66,0,0,1-7.79,8.6c-.81.75-1.62,1.4-2.45,2.12-.42.35-.82.71-1.25,1.06l-1.35,1c-1.78,1.38-3.69,2.61-5.62,3.82-1,.56-2,1.14-3,1.68l-3,1.53-3,1.34c-1,.42-2,.79-3,1.18-2,.72-4,1.33-5.84,1.83s-3.68.9-5.35,1.22-3.2.56-4.57.72-2.56.27-3.54.35-1.76.11-2.29.12l-.81,0,.81-.1L497,250c1-.15,2.15-.32,3.49-.59.68-.13,1.39-.27,2.14-.44s1.54-.32,2.35-.53c1.63-.39,3.39-.87,5.23-1.44s3.74-1.26,5.69-2c1-.4,2-.79,3-1.22l3-1.36,3-1.52c1-.54,1.92-1.12,2.88-1.68a64.55,64.55,0,0,0,5.52-3.68c.44-.32.88-.65,1.32-1l1.27-1c.83-.69,1.71-1.36,2.46-2a72.24,72.24,0,0,0,8-8.17c2.14-2.59,3.81-4.85,4.9-6.49S552.78,214.27,552.78,214.27Z" transform="translate(-5.95 -150.76)"/><polygon class="cls-53" points="552.16 290.9 552.16 305.15 388.17 270.74 388.17 260.07 552.16 290.9"/><path class="cls-28" d="M348.1,412.69s-.39.32-1.05.9-1.6,1.41-2.64,2.48a37.75,37.75,0,0,0-3.29,3.86c-.56.73-1.08,1.54-1.61,2.35s-1,1.68-1.45,2.55l-.66,1.33c-.19.45-.4.88-.58,1.33-.35.9-.72,1.78-1,2.67a39.25,39.25,0,0,0-1.24,4.91c-.27,1.47-.42,2.72-.51,3.59S334,440,334,440s-.08-.5-.15-1.38a25.76,25.76,0,0,1,0-3.69,27,27,0,0,1,.87-5.16,24.36,24.36,0,0,1,.92-2.82c.17-.47.39-.94.59-1.42l.66-1.38c.48-.9,1-1.79,1.56-2.64a25.33,25.33,0,0,1,1.77-2.38,26.4,26.4,0,0,1,6.72-5.81C347.65,412.91,348.1,412.69,348.1,412.69Z" transform="translate(-5.95 -150.76)"/><path class="cls-54" d="M374.06,466.7l.84-.49c.52-.31,1.27-.76,2.15-1.31s1.87-1.22,2.9-2c.53-.37,1-.79,1.57-1.2s1.07-.87,1.56-1.31,1-.9,1.5-1.37,1-.92,1.4-1.39c.89-.93,1.68-1.83,2.35-2.62s1.21-1.47,1.59-1.95l.6-.75s-.11.33-.36.9A20.49,20.49,0,0,1,389,455.5a23.91,23.91,0,0,1-2.08,3c-.43.51-.88,1-1.37,1.54s-1,1-1.54,1.46-1.08.89-1.65,1.33-1.14.79-1.7,1.14a22.8,22.8,0,0,1-3.23,1.67,19.35,19.35,0,0,1-2.41.86C374.41,466.63,374.06,466.7,374.06,466.7Z" transform="translate(-5.95 -150.76)"/><polygon class="cls-55" points="546.6 335.27 535.94 355.98 376.35 324.98 389.9 312.23 546.6 335.27"/><g class="cls-56"><path class="cls-57" d="M669.14,535.66l-3.78-1.27L661,532.93l-5.59-1.85L648.83,529c-2.36-.73-4.85-1.47-7.42-2.23s-5.25-1.51-8-2.27S628,523,625.19,522.3c-1.38-.36-2.77-.68-4.17-1l-4.13-1c-2.75-.63-5.46-1.2-8.08-1.75s-5.18-1.06-7.6-1.52l-6.85-1.24-14.23-2.4,1-.06c.68,0,1.68-.09,3-.11s2.81,0,4.58,0,3.76.07,5.94.2,4.53.28,7,.54,5.1.55,7.8.95,5.48.87,8.28,1.44c1.4.27,2.83.58,4.25.89s2.81.64,4.22,1c5.65,1.41,11.22,3.11,16.35,5,2.58.9,5,1.89,7.33,2.82s4.48,1.9,6.45,2.83,3.76,1.8,5.33,2.61,2.93,1.55,4,2.17,2,1.13,2.55,1.48Z" transform="translate(-5.95 -150.76)"/></g><g class="cls-56"><path class="cls-28" d="M687.57,476.55l-1.08.08c-.7.05-1.72.13-3,.18s-2.9.11-4.73.11-3.89,0-6.14-.1-4.68-.21-7.25-.46-5.28-.51-8.07-.9-5.67-.87-8.58-1.42c-1.45-.3-2.92-.57-4.38-.91l-2.21-.51-2.17-.52c-2.9-.73-5.83-1.55-8.65-2.41-1.41-.45-2.82-.88-4.19-1.36s-2.73-.93-4.05-1.42c-2.65-1-5.17-2-7.54-3s-4.6-2-6.62-3c-4.06-1.95-7.33-3.79-9.58-5.12-1.14-.66-2-1.22-2.6-1.59l-.91-.58,3.86,1.42,4.42,1.61,5.73,2.05c1.05.37,2.15.74,3.29,1.12l3.51,1.19c2.42.8,5,1.6,7.63,2.41s5.4,1.6,8.19,2.4,5.63,1.54,8.51,2.25l2.17.54,2.13.51,4.28,1c2.84.61,5.64,1.21,8.36,1.74s5.36,1,7.87,1.46l7.08,1.16,6,.89,4.66.65Z" transform="translate(-5.95 -150.76)"/></g><polygon class="cls-58" points="293.66 190.3 299.99 201.31 257.78 220.21 253.85 211.16 293.66 190.3"/><path class="cls-59" d="M297.43,347.64q-8.74,4-17.54,8.1t-17.2,8l1.21,2.58c11.8-5,23.68-10.13,35.47-15.15Z" transform="translate(-5.95 -150.76)"/><path class="cls-60" d="M299.37,351.21,263.9,366.36l2.68,3.33,34.18-15.27Z" transform="translate(-5.95 -150.76)"/><path class="cls-28" d="M299.61,341.07c1.17,1.76,2.28,3.57,3.42,5.35s2.23,3.6,3.33,5.41l.28.46-.5.24q-5.22,2.49-10.48,4.88t-10.55,4.72q-5.31,2.31-10.64,4.54c-1.78.73-3.56,1.48-5.35,2.19s-3.58,1.43-5.39,2.11c1.71-.9,3.44-1.75,5.16-2.61s3.47-1.7,5.2-2.55q5.22-2.49,10.47-4.9c3.51-1.59,7-3.18,10.55-4.72s7.07-3.08,10.62-4.57l-.23.7c-1-1.86-2-3.72-3-5.6S300.55,343,299.61,341.07Z" transform="translate(-5.95 -150.76)"/><path class="cls-28" d="M280.77,485.94l-1.45,0-3.8.15c-1.56.08-3.39.18-5.33.35-1,.08-2,.19-3,.3s-2,.23-3.09.38c-2.05.27-4.11.63-6,1s-3.7.75-5.23,1.09l-3.7.89-1.4.34s.47-.24,1.32-.61,2.06-.87,3.56-1.38,3.27-1.06,5.2-1.53c1-.22,2-.47,3-.64s2.06-.36,3.12-.52c2.09-.27,4.2-.46,6.18-.52s3.84,0,5.42.07,2.89.25,3.8.38S280.77,485.94,280.77,485.94Z" transform="translate(-5.95 -150.76)"/></g></svg>